  0
SECTION
  2
HEADER
  9
$ACADVER
  1
AC1015
  9
$ACADMAINTVER
 70
     6
  9
$DWGCODEPAGE
  3
ANSI_1251
  9
$INSBASE
 10
0.0
 20
0.0
 30
0.0
  9
$EXTMIN
 10
-1594.4355792178
 20
-525.8488358683
 30
0.0
  9
$EXTMAX
 10
-394.3006667266
 20
-17.1678348998
 30
0.0
  9
$LIMMIN
 10
0.0
 20
0.0
  9
$LIMMAX
 10
420.0
 20
297.0
  9
$ORTHOMODE
 70
     0
  9
$REGENMODE
 70
     1
  9
$FILLMODE
 70
     1
  9
$QTEXTMODE
 70
     0
  9
$MIRRTEXT
 70
     1
  9
$LTSCALE
 40
1.0
  9
$ATTMODE
 70
     1
  9
$TEXTSIZE
 40
3.5
  9
$TRACEWID
 40
1.0
  9
$TEXTSTYLE
  7
Standard
  9
$CLAYER
  8
0
  9
$CELTYPE
  6
ByLayer
  9
$CECOLOR
 62
   256
  9
$CELTSCALE
 40
1.0
  9
$DISPSILH
 70
     0
  9
$DIMSCALE
 40
1.0
  9
$DIMASZ
 40
3.302
  9
$DIMEXO
 40
1.0
  9
$DIMDLI
 40
3.75
  9
$DIMRND
 40
0.0
  9
$DIMDLE
 40
0.0
  9
$DIMEXE
 40
1.0
  9
$DIMTP
 40
0.0
  9
$DIMTM
 40
0.0
  9
$DIMTXT
 40
3.5
  9
$DIMCEN
 40
2.5
  9
$DIMTSZ
 40
0.0
  9
$DIMTOL
 70
     0
  9
$DIMLIM
 70
     0
  9
$DIMTIH
 70
     1
  9
$DIMTOH
 70
     1
  9
$DIMSE1
 70
     0
  9
$DIMSE2
 70
     0
  9
$DIMTAD
 70
     1
  9
$DIMZIN
 70
     0
  9
$DIMBLK
  1

  9
$DIMASO
 70
     1
  9
$DIMSHO
 70
     1
  9
$DIMPOST
  1

  9
$DIMAPOST
  1

  9
$DIMALT
 70
     0
  9
$DIMALTD
 70
     3
  9
$DIMALTF
 40
0.0393700787
  9
$DIMLFAC
 40
1.0
  9
$DIMTOFL
 70
     1
  9
$DIMTVP
 40
0.0
  9
$DIMTIX
 70
     0
  9
$DIMSOXD
 70
     0
  9
$DIMSAH
 70
     0
  9
$DIMBLK1
  1

  9
$DIMBLK2
  1

  9
$DIMSTYLE
  2
ISO-25
  9
$DIMCLRD
 70
     0
  9
$DIMCLRE
 70
     0
  9
$DIMCLRT
 70
     0
  9
$DIMTFAC
 40
1.0
  9
$DIMGAP
 40
1.524
  9
$DIMJUST
 70
     0
  9
$DIMSD1
 70
     0
  9
$DIMSD2
 70
     0
  9
$DIMTOLJ
 70
     0
  9
$DIMTZIN
 70
     0
  9
$DIMALTZ
 70
     0
  9
$DIMALTTZ
 70
     0
  9
$DIMUPT
 70
     0
  9
$DIMDEC
 70
     2
  9
$DIMTDEC
 70
     2
  9
$DIMALTU
 70
     2
  9
$DIMALTTD
 70
     3
  9
$DIMTXSTY
  7
Standard
  9
$DIMAUNIT
 70
     0
  9
$DIMADEC
 70
     2
  9
$DIMALTRND
 40
0.0
  9
$DIMAZIN
 70
     0
  9
$DIMDSEP
 70
    44
  9
$DIMATFIT
 70
     3
  9
$DIMFRAC
 70
     0
  9
$DIMLDRBLK
  1

  9
$DIMLUNIT
 70
     2
  9
$DIMLWD
 70
    -2
  9
$DIMLWE
 70
    -2
  9
$DIMTMOVE
 70
     0
  9
$LUNITS
 70
     2
  9
$LUPREC
 70
     2
  9
$SKETCHINC
 40
1.0
  9
$FILLETRAD
 40
10.0
  9
$AUNITS
 70
     0
  9
$AUPREC
 70
     2
  9
$MENU
  1
.
  9
$ELEVATION
 40
0.0
  9
$PELEVATION
 40
0.0
  9
$THICKNESS
 40
0.0
  9
$LIMCHECK
 70
     0
  9
$CHAMFERA
 40
0.0
  9
$CHAMFERB
 40
0.0
  9
$CHAMFERC
 40
0.0
  9
$CHAMFERD
 40
0.0
  9
$SKPOLY
 70
     0
  9
$TDCREATE
 40
2459303.545263125
  9
$TDUCREATE
 40
2459303.420263125
  9
$TDUPDATE
 40
2459303.545469676
  9
$TDUUPDATE
 40
2459303.420469676
  9
$TDINDWG
 40
0.0000000116
  9
$TDUSRTIMER
 40
0.0000000116
  9
$USRTIMER
 70
     1
  9
$ANGBASE
 50
0.0
  9
$ANGDIR
 70
     0
  9
$PDMODE
 70
     0
  9
$PDSIZE
 40
-1.0
  9
$PLINEWID
 40
0.0
  9
$SPLFRAME
 70
     0
  9
$SPLINETYPE
 70
     6
  9
$SPLINESEGS
 70
     8
  9
$HANDSEED
  5
3AE
  9
$SURFTAB1
 70
     6
  9
$SURFTAB2
 70
     6
  9
$SURFTYPE
 70
     6
  9
$SURFU
 70
     6
  9
$SURFV
 70
     6
  9
$UCSBASE
  2

  9
$UCSNAME
  2

  9
$UCSORG
 10
0.0
 20
0.0
 30
0.0
  9
$UCSXDIR
 10
1.0
 20
0.0
 30
0.0
  9
$UCSYDIR
 10
0.0
 20
1.0
 30
0.0
  9
$UCSORTHOREF
  2

  9
$UCSORTHOVIEW
 70
     0
  9
$UCSORGTOP
 10
0.0
 20
0.0
 30
0.0
  9
$UCSORGBOTTOM
 10
0.0
 20
0.0
 30
0.0
  9
$UCSORGLEFT
 10
0.0
 20
0.0
 30
0.0
  9
$UCSORGRIGHT
 10
0.0
 20
0.0
 30
0.0
  9
$UCSORGFRONT
 10
0.0
 20
0.0
 30
0.0
  9
$UCSORGBACK
 10
0.0
 20
0.0
 30
0.0
  9
$PUCSBASE
  2

  9
$PUCSNAME
  2

  9
$PUCSORG
 10
0.0
 20
0.0
 30
0.0
  9
$PUCSXDIR
 10
1.0
 20
0.0
 30
0.0
  9
$PUCSYDIR
 10
0.0
 20
1.0
 30
0.0
  9
$PUCSORTHOREF
  2

  9
$PUCSORTHOVIEW
 70
     0
  9
$PUCSORGTOP
 10
0.0
 20
0.0
 30
0.0
  9
$PUCSORGBOTTOM
 10
0.0
 20
0.0
 30
0.0
  9
$PUCSORGLEFT
 10
0.0
 20
0.0
 30
0.0
  9
$PUCSORGRIGHT
 10
0.0
 20
0.0
 30
0.0
  9
$PUCSORGFRONT
 10
0.0
 20
0.0
 30
0.0
  9
$PUCSORGBACK
 10
0.0
 20
0.0
 30
0.0
  9
$USERI1
 70
     0
  9
$USERI2
 70
     0
  9
$USERI3
 70
     0
  9
$USERI4
 70
     0
  9
$USERI5
 70
     0
  9
$USERR1
 40
0.0
  9
$USERR2
 40
0.0
  9
$USERR3
 40
0.0
  9
$USERR4
 40
0.0
  9
$USERR5
 40
0.0
  9
$WORLDVIEW
 70
     1
  9
$SHADEDGE
 70
     3
  9
$SHADEDIF
 70
    70
  9
$TILEMODE
 70
     1
  9
$MAXACTVP
 70
    64
  9
$PINSBASE
 10
0.0
 20
0.0
 30
0.0
  9
$PLIMCHECK
 70
     0
  9
$PEXTMIN
 10
1.0000000000E+20
 20
1.0000000000E+20
 30
1.0000000000E+20
  9
$PEXTMAX
 10
-1.0000000000E+20
 20
-1.0000000000E+20
 30
-1.0000000000E+20
  9
$PLIMMIN
 10
0.0
 20
0.0
  9
$PLIMMAX
 10
420.0
 20
297.0
  9
$UNITMODE
 70
     0
  9
$VISRETAIN
 70
     1
  9
$PLINEGEN
 70
     0
  9
$PSLTSCALE
 70
     1
  9
$TREEDEPTH
 70
  3020
  9
$CMLSTYLE
  2
Standard
  9
$CMLJUST
 70
     0
  9
$CMLSCALE
 40
20.0
  9
$PROXYGRAPHICS
 70
     1
  9
$MEASUREMENT
 70
     1
  9
$CELWEIGHT
370
    -1
  9
$ENDCAPS
280
     0
  9
$JOINSTYLE
280
     0
  9
$LWDISPLAY
290
     1
  9
$INSUNITS
 70
     4
  9
$HYPERLINKBASE
  1

  9
$STYLESHEET
  1

  9
$XEDIT
290
     1
  9
$CEPSNTYPE
380
     0
  9
$PSTYLEMODE
290
     1
  9
$FINGERPRINTGUID
  2
{65C287E8-8AD8-41F2-84F6-1E891C41BE3F}
  9
$VERSIONGUID
  2
{FAEB1C32-E019-11D5-929B-00C0DF256EC4}
  9
$EXTNAMES
290
     1
  9
$PSVPSCALE
 40
0.0
  9
$OLESTARTUP
290
     0
  0
ENDSEC
  0
SECTION
  2
CLASSES
  0
CLASS
  1
ACDBDICTIONARYWDFLT
  2
AcDbDictionaryWithDefault
  3
ObjectDBX Classes
 90
        0
280
     0
281
     0
  0
CLASS
  1
VISUALSTYLE
  2
AcDbVisualStyle
  3
ObjectDBX Classes
 90
     4095
280
     0
281
     0
  0
CLASS
  1
MATERIAL
  2
AcDbMaterial
  3
ObjectDBX Classes
 90
     1153
280
     0
281
     0
  0
CLASS
  1
SCALE
  2
AcDbScale
  3
ObjectDBX Classes
 90
     1153
280
     0
281
     0
  0
CLASS
  1
SUN
  2
AcDbSun
  3
SCENEOE
 90
     1153
280
     0
281
     0
  0
CLASS
  1
ACDBPLACEHOLDER
  2
AcDbPlaceHolder
  3
ObjectDBX Classes
 90
        0
280
     0
281
     0
  0
CLASS
  1
LAYOUT
  2
AcDbLayout
  3
ObjectDBX Classes
 90
        0
280
     0
281
     0
  0
ENDSEC
  0
SECTION
  2
TABLES
  0
TABLE
  2
VPORT
  5
8
330
0
100
AcDbSymbolTable
 70
     1
  0
VPORT
  5
29
330
8
100
AcDbSymbolTableRecord
100
AcDbViewportTableRecord
  2
*Active
 70
     0
 10
0.0
 20
0.0
 11
1.0
 21
1.0
 12
-994.3681229722
 22
-271.5083353841
 13
0.0
 23
0.0
 14
10.0
 24
10.0
 15
10.0
 25
10.0
 16
0.0
 26
0.0
 36
1.0
 17
0.0
 27
0.0
 37
0.0
 40
518.8546209879
 41
2.3593075232
 42
50.0
 43
0.0
 44
0.0
 50
0.0
 51
0.0
 71
     0
 72
   100
 73
     1
 74
     3
 75
     0
 76
     0
 77
     0
 78
     0
281
     0
 65
     1
110
0.0
120
0.0
130
0.0
111
1.0
121
0.0
131
0.0
112
0.0
122
1.0
132
0.0
 79
     0
146
0.0
  0
ENDTAB
  0
TABLE
  2
LTYPE
  5
5
330
0
100
AcDbSymbolTable
 70
     6
  0
LTYPE
  5
14
330
5
100
AcDbSymbolTableRecord
100
AcDbLinetypeTableRecord
  2
ByBlock
 70
     0
  3

 72
    65
 73
     0
 40
0.0
  0
LTYPE
  5
15
330
5
100
AcDbSymbolTableRecord
100
AcDbLinetypeTableRecord
  2
ByLayer
 70
     0
  3

 72
    65
 73
     0
 40
0.0
  0
LTYPE
  5
16
330
5
100
AcDbSymbolTableRecord
100
AcDbLinetypeTableRecord
  2
Continuous
 70
     0
  3
Solid line
 72
    65
 73
     0
 40
0.0
  0
LTYPE
  5
6A
330
5
100
AcDbSymbolTableRecord
100
AcDbLinetypeTableRecord
  2
HIDDEN
 70
     0
  3
Hidden __ __ __ __ __ __ __ __ __ __ __ __ __ __
 72
    65
 73
     2
 40
1.905
 49
1.27
 74
     0
 49
-0.635
 74
     0
  0
LTYPE
  5
6B
330
5
100
AcDbSymbolTableRecord
100
AcDbLinetypeTableRecord
  2
PHANTOM
 70
     0
  3
Phantom ______  __  __  ______  __  __  ______
 72
    65
 73
     6
 40
12.7
 49
6.35
 74
     0
 49
-1.27
 74
     0
 49
1.27
 74
     0
 49
-1.27
 74
     0
 49
1.27
 74
     0
 49
-1.27
 74
     0
  0
LTYPE
  5
6C
330
5
100
AcDbSymbolTableRecord
100
AcDbLinetypeTableRecord
  2
CENTER
 70
     0
  3
Center ____ _ ____ _ ____ _ ____ _ ____ _ ____
 72
    65
 73
     4
 40
10.16
 49
6.35
 74
     0
 49
-1.27
 74
     0
 49
1.27
 74
     0
 49
-1.27
 74
     0
  0
LTYPE
  5
6D
330
5
100
AcDbSymbolTableRecord
100
AcDbLinetypeTableRecord
  2
CENTERX2
 70
     0
  3
Center (2x) ________  __  ________  __  _____
 72
    65
 73
     4
 40
20.32
 49
12.7
 74
     0
 49
-2.54
 74
     0
 49
2.54
 74
     0
 49
-2.54
 74
     0
  0
LTYPE
  5
6E
330
5
100
AcDbSymbolTableRecord
100
AcDbLinetypeTableRecord
  2
DOT2
 70
     0
  3
Dot (.5x) ........................................
 72
    65
 73
     2
 40
0.635
 49
0.0
 74
     0
 49
-0.635
 74
     0
  0
ENDTAB
  0
TABLE
  2
LAYER
  5
2
330
0
100
AcDbSymbolTable
 70
     1
  0
LAYER
  5
10
330
2
100
AcDbSymbolTableRecord
100
AcDbLayerTableRecord
  2
0
 70
     0
 62
     7
  6
Continuous
370
    -3
390
F
  0
ENDTAB
  0
TABLE
  2
STYLE
  5
3
330
0
100
AcDbSymbolTable
 70
     1
  0
STYLE
  5
11
330
3
100
AcDbSymbolTableRecord
100
AcDbTextStyleTableRecord
  2
Standard
 70
     0
 40
0.0
 41
1.0
 50
0.0
 71
     0
 42
3.5
  3
txt
  4

  0
ENDTAB
  0
TABLE
  2
VIEW
  5
6
330
0
100
AcDbSymbolTable
 70
     0
  0
ENDTAB
  0
TABLE
  2
UCS
  5
7
330
0
100
AcDbSymbolTable
 70
     0
  0
ENDTAB
  0
TABLE
  2
APPID
  5
9
330
0
100
AcDbSymbolTable
 70
     1
  0
APPID
  5
12
330
9
100
AcDbSymbolTableRecord
100
AcDbRegAppTableRecord
  2
ACAD
 70
     0
  0
ENDTAB
  0
TABLE
  2
DIMSTYLE
  5
A
330
0
100
AcDbSymbolTable
 70
     1
100
AcDbDimStyleTable
  0
DIMSTYLE
105
27
330
A
100
AcDbSymbolTableRecord
100
AcDbDimStyleTableRecord
  2
ISO-25
 70
     0
 41
2.5
 42
0.625
 43
3.75
 44
1.25
 73
     0
 74
     0
 77
     1
 78
     8
140
2.5
141
2.5
143
0.0393700787
147
0.625
171
     3
172
     1
178
     0
271
     2
272
     2
274
     3
278
    44
283
     0
284
     8
340
11
  0
ENDTAB
  0
TABLE
  2
BLOCK_RECORD
  5
1
330
0
100
AcDbSymbolTable
 70
     1
  0
BLOCK_RECORD
  5
1F
330
1
100
AcDbSymbolTableRecord
100
AcDbBlockTableRecord
  2
*Model_Space
340
22
  0
BLOCK_RECORD
  5
1B
330
1
100
AcDbSymbolTableRecord
100
AcDbBlockTableRecord
  2
*Paper_Space
340
1E
  0
BLOCK_RECORD
  5
23
330
1
100
AcDbSymbolTableRecord
100
AcDbBlockTableRecord
  2
*Paper_Space0
340
26
  0
ENDTAB
  0
ENDSEC
  0
SECTION
  2
BLOCKS
  0
BLOCK
  5
20
330
1F
100
AcDbEntity
  8
0
100
AcDbBlockBegin
  2
*Model_Space
 70
     0
 10
0.0
 20
0.0
 30
0.0
  3
*Model_Space
  1
*Model_Space
  0
ENDBLK
  5
21
330
1F
100
AcDbEntity
  8
0
100
AcDbBlockEnd
  0
BLOCK
  5
1C
330
1B
100
AcDbEntity
 67
     1
  8
0
100
AcDbBlockBegin
  2
*Paper_Space
 70
     0
 10
0.0
 20
0.0
 30
0.0
  3
*Paper_Space
  1
*Paper_Space
  0
ENDBLK
  5
1D
330
1B
100
AcDbEntity
 67
     1
  8
0
100
AcDbBlockEnd
  0
BLOCK
  5
24
330
23
100
AcDbEntity
  8
0
100
AcDbBlockBegin
  2
*Paper_Space0
 70
     0
 10
0.0
 20
0.0
 30
0.0
  3
*Paper_Space0
  1
*Paper_Space0
  0
ENDBLK
  5
25
330
23
100
AcDbEntity
  8
0
100
AcDbBlockEnd
  0
ENDSEC
  0
SECTION
  2
ENTITIES
  0
CIRCLE
  5
E8
330
1F
100
AcDbEntity
  8
0
  6
Continuous
 62
     7
100
AcDbCircle
 10
-1564.9540813503
 20
-109.997443859
 30
0.0
 40
5.900000000000049
  0
CIRCLE
  5
E9
330
1F
100
AcDbEntity
  8
0
  6
Continuous
 62
     7
100
AcDbCircle
 10
-1218.9540813503
 20
-109.997443859
 30
0.0
 40
1.799999999999846
  0
CIRCLE
  5
EA
330
1F
100
AcDbEntity
  8
0
  6
Continuous
 62
     7
100
AcDbCircle
 10
-1386.9540813503
 20
-109.997443859
 30
0.0
 40
11.00000000000016
  0
CIRCLE
  5
EB
330
1F
100
AcDbEntity
  8
0
  6
Continuous
 62
     7
100
AcDbCircle
 10
-1574.9540813503
 20
-109.997443859
 30
0.0
 40
1.800000000000064
  0
CIRCLE
  5
EC
330
1F
100
AcDbEntity
  8
0
  6
Continuous
 62
     7
100
AcDbCircle
 10
-1554.9540813503
 20
-109.997443859
 30
0.0
 40
1.800000000000064
  0
CIRCLE
  5
ED
330
1F
100
AcDbEntity
  8
0
  6
Continuous
 62
     7
100
AcDbCircle
 10
-1198.9540813503
 20
-109.997443859
 30
0.0
 40
1.799999999999846
  0
CIRCLE
  5
EE
330
1F
100
AcDbEntity
  8
0
  6
Continuous
 62
     7
100
AcDbCircle
 10
-1208.9540813503
 20
-109.997443859
 30
0.0
 40
5.899999999999823
  0
CIRCLE
  5
EF
330
1F
100
AcDbEntity
  8
0
  6
Continuous
 62
     7
100
AcDbCircle
 10
-1402.4540813503
 20
-94.497443859
 30
0.0
 40
1.599999999999861
  0
CIRCLE
  5
F0
330
1F
100
AcDbEntity
  8
0
  6
Continuous
 62
     7
100
AcDbCircle
 10
-1371.4540813503
 20
-94.497443859
 30
0.0
 40
1.600000000000078
  0
CIRCLE
  5
F1
330
1F
100
AcDbEntity
  8
0
  6
Continuous
 62
     7
100
AcDbCircle
 10
-1402.4540813503
 20
-125.497443859
 30
0.0
 40
1.599999999999869
  0
CIRCLE
  5
F2
330
1F
100
AcDbEntity
  8
0
  6
Continuous
 62
     7
100
AcDbCircle
 10
-1371.4540813503
 20
-125.497443859
 30
0.0
 40
1.600000000000086
  0
CIRCLE
  5
F3
330
1F
100
AcDbEntity
  8
0
  6
Continuous
 62
     7
100
AcDbCircle
 10
-1386.9540813503
 20
-92.997443859
 30
0.0
 40
2.600000000000211
  0
CIRCLE
  5
F4
330
1F
100
AcDbEntity
  8
0
  6
Continuous
 62
     7
100
AcDbCircle
 10
-1346.9540813503
 20
-92.997443859
 30
0.0
 40
2.100000000000153
  0
CIRCLE
  5
F5
330
1F
100
AcDbEntity
  8
0
  6
Continuous
 62
     7
100
AcDbCircle
 10
-1306.9540813503
 20
-92.997443859
 30
0.0
 40
2.099999999999927
  0
CIRCLE
  5
F6
330
1F
100
AcDbEntity
  8
0
  6
Continuous
 62
     7
100
AcDbCircle
 10
-1266.9540813503
 20
-92.997443859
 30
0.0
 40
2.099999999999927
  0
CIRCLE
  5
F7
330
1F
100
AcDbEntity
  8
0
  6
Continuous
 62
     7
100
AcDbCircle
 10
-1226.9540813503
 20
-92.997443859
 30
0.0
 40
2.099999999999927
  0
CIRCLE
  5
F8
330
1F
100
AcDbEntity
  8
0
  6
Continuous
 62
     7
100
AcDbCircle
 10
-1426.9540813503
 20
-92.997443859
 30
0.0
 40
2.599999999999994
  0
CIRCLE
  5
F9
330
1F
100
AcDbEntity
  8
0
  6
Continuous
 62
     7
100
AcDbCircle
 10
-1466.9540813503
 20
-92.997443859
 30
0.0
 40
2.599999999999777
  0
CIRCLE
  5
FA
330
1F
100
AcDbEntity
  8
0
  6
Continuous
 62
     7
100
AcDbCircle
 10
-1506.9540813503
 20
-92.997443859
 30
0.0
 40
2.599999999999994
  0
CIRCLE
  5
FB
330
1F
100
AcDbEntity
  8
0
  6
Continuous
 62
     7
100
AcDbCircle
 10
-1546.9540813503
 20
-92.997443859
 30
0.0
 40
2.599999999999994
  0
CIRCLE
  5
FC
330
1F
100
AcDbEntity
  8
0
  6
Continuous
 62
     7
100
AcDbCircle
 10
-891.1000682756
 20
-215.5276374013
 30
0.0
 40
2.100000000000076
  0
CIRCLE
  5
FD
330
1F
100
AcDbEntity
  8
0
  6
Continuous
 62
     7
100
AcDbCircle
 10
-891.1000682756
 20
-165.5276374013
 30
0.0
 40
2.099999999999961
  0
CIRCLE
  5
FE
330
1F
100
AcDbEntity
  8
0
  6
Continuous
 62
     7
100
AcDbCircle
 10
-841.1000682756
 20
-165.5276374013
 30
0.0
 40
2.099999999999994
  0
CIRCLE
  5
FF
330
1F
100
AcDbEntity
  8
0
  6
Continuous
 62
     7
100
AcDbCircle
 10
-841.1000682756
 20
-215.5276374013
 30
0.0
 40
2.100000000000048
  0
CIRCLE
  5
100
330
1F
100
AcDbEntity
  8
0
  6
Continuous
 62
     7
100
AcDbCircle
 10
-1564.9540813503
 20
-238.5655486985
 30
0.0
 40
5.90000000000004
  0
CIRCLE
  5
101
330
1F
100
AcDbEntity
  8
0
  6
Continuous
 62
     7
100
AcDbCircle
 10
-1218.9540813503
 20
-238.5655486985
 30
0.0
 40
1.799999999999842
  0
CIRCLE
  5
102
330
1F
100
AcDbEntity
  8
0
  6
Continuous
 62
     7
100
AcDbCircle
 10
-1386.9540813503
 20
-238.5655486985
 30
0.0
 40
11.00000000000016
  0
CIRCLE
  5
103
330
1F
100
AcDbEntity
  8
0
  6
Continuous
 62
     7
100
AcDbCircle
 10
-1574.9540813503
 20
-238.5655486985
 30
0.0
 40
1.80000000000006
  0
CIRCLE
  5
104
330
1F
100
AcDbEntity
  8
0
  6
Continuous
 62
     7
100
AcDbCircle
 10
-1554.9540813503
 20
-238.5655486985
 30
0.0
 40
1.80000000000006
  0
CIRCLE
  5
105
330
1F
100
AcDbEntity
  8
0
  6
Continuous
 62
     7
100
AcDbCircle
 10
-1198.9540813503
 20
-238.5655486985
 30
0.0
 40
1.799999999999842
  0
CIRCLE
  5
106
330
1F
100
AcDbEntity
  8
0
  6
Continuous
 62
     7
100
AcDbCircle
 10
-1208.9540813503
 20
-238.5655486985
 30
0.0
 40
5.900000000000032
  0
CIRCLE
  5
107
330
1F
100
AcDbEntity
  8
0
  6
Continuous
 62
     7
100
AcDbCircle
 10
-1386.9540813503
 20
-221.5655486985
 30
0.0
 40
2.599999999999994
  0
CIRCLE
  5
108
330
1F
100
AcDbEntity
  8
0
  6
Continuous
 62
     7
100
AcDbCircle
 10
-1426.9540813503
 20
-221.5655486985
 30
0.0
 40
2.599999999999994
  0
CIRCLE
  5
109
330
1F
100
AcDbEntity
  8
0
  6
Continuous
 62
     7
100
AcDbCircle
 10
-1466.9540813503
 20
-221.5655486985
 30
0.0
 40
2.599999999999777
  0
CIRCLE
  5
10A
330
1F
100
AcDbEntity
  8
0
  6
Continuous
 62
     7
100
AcDbCircle
 10
-1506.9540813503
 20
-221.5655486985
 30
0.0
 40
2.600000000000211
  0
CIRCLE
  5
10B
330
1F
100
AcDbEntity
  8
0
  6
Continuous
 62
     7
100
AcDbCircle
 10
-1546.9540813503
 20
-221.5655486985
 30
0.0
 40
2.60000000000022
  0
CIRCLE
  5
10C
330
1F
100
AcDbEntity
  8
0
  6
Continuous
 62
     7
100
AcDbCircle
 10
-1346.9540813503
 20
-221.5655486985
 30
0.0
 40
2.599999999999994
  0
CIRCLE
  5
10D
330
1F
100
AcDbEntity
  8
0
  6
Continuous
 62
     7
100
AcDbCircle
 10
-1306.9540813503
 20
-221.5655486985
 30
0.0
 40
2.599999999999994
  0
CIRCLE
  5
10E
330
1F
100
AcDbEntity
  8
0
  6
Continuous
 62
     7
100
AcDbCircle
 10
-1266.9540813503
 20
-221.5655486985
 30
0.0
 40
2.599999999999994
  0
CIRCLE
  5
10F
330
1F
100
AcDbEntity
  8
0
  6
Continuous
 62
     7
100
AcDbCircle
 10
-1226.9540813503
 20
-221.5655486985
 30
0.0
 40
2.599999999999777
  0
CIRCLE
  5
110
330
1F
100
AcDbEntity
  8
0
  6
Continuous
 62
     7
100
AcDbCircle
 10
-1583.9540813503
 20
-33.2799133873
 30
0.0
 40
2.100000000000162
  0
CIRCLE
  5
111
330
1F
100
AcDbEntity
  8
0
  6
Continuous
 62
     7
100
AcDbCircle
 10
-1583.9540813503
 20
-53.2799133873
 30
0.0
 40
2.100000000000162
  0
CIRCLE
  5
112
330
1F
100
AcDbEntity
  8
0
  6
Continuous
 62
     7
100
AcDbCircle
 10
-1583.9540813503
 20
-73.2799133873
 30
0.0
 40
2.100000000000162
  0
CIRCLE
  5
113
330
1F
100
AcDbEntity
  8
0
  6
Continuous
 62
     7
100
AcDbCircle
 10
-1091.9540813503
 20
-73.2799133873
 30
0.0
 40
2.100000000000162
  0
CIRCLE
  5
114
330
1F
100
AcDbEntity
  8
0
  6
Continuous
 62
     7
100
AcDbCircle
 10
-1091.9540813503
 20
-53.2799133873
 30
0.0
 40
2.100000000000162
  0
CIRCLE
  5
115
330
1F
100
AcDbEntity
  8
0
  6
Continuous
 62
     7
100
AcDbCircle
 10
-1091.9540813503
 20
-33.2799133873
 30
0.0
 40
2.100000000000162
  0
CIRCLE
  5
116
330
1F
100
AcDbEntity
  8
0
  6
Continuous
 62
     7
100
AcDbCircle
 10
-1583.9540813503
 20
-275.34501485
 30
0.0
 40
2.09999999999994
  0
CIRCLE
  5
117
330
1F
100
AcDbEntity
  8
0
  6
Continuous
 62
     7
100
AcDbCircle
 10
-1583.9540813503
 20
-295.34501485
 30
0.0
 40
2.099999999999957
  0
CIRCLE
  5
118
330
1F
100
AcDbEntity
  8
0
  6
Continuous
 62
     7
100
AcDbCircle
 10
-1583.9540813503
 20
-315.34501485
 30
0.0
 40
2.09999999999994
  0
CIRCLE
  5
119
330
1F
100
AcDbEntity
  8
0
  6
Continuous
 62
     7
100
AcDbCircle
 10
-1091.9540813503
 20
-315.34501485
 30
0.0
 40
2.09999999999994
  0
CIRCLE
  5
11A
330
1F
100
AcDbEntity
  8
0
  6
Continuous
 62
     7
100
AcDbCircle
 10
-1091.9540813503
 20
-295.34501485
 30
0.0
 40
2.099999999999957
  0
CIRCLE
  5
11B
330
1F
100
AcDbEntity
  8
0
  6
Continuous
 62
     7
100
AcDbCircle
 10
-1091.9540813503
 20
-275.34501485
 30
0.0
 40
2.09999999999994
  0
CIRCLE
  5
11C
330
1F
100
AcDbEntity
  8
0
  6
Continuous
 62
     7
100
AcDbCircle
 10
-1395.9540813503
 20
-148.564199549
 30
0.0
 40
1.800000000000076
  0
CIRCLE
  5
11D
330
1F
100
AcDbEntity
  8
0
  6
Continuous
 62
     7
100
AcDbCircle
 10
-1345.9540813503
 20
-148.564199549
 30
0.0
 40
1.799999999999859
  0
CIRCLE
  5
11E
330
1F
100
AcDbEntity
  8
0
  6
Continuous
 62
     7
100
AcDbCircle
 10
-1295.9540813503
 20
-148.564199549
 30
0.0
 40
1.799999999999859
  0
CIRCLE
  5
11F
330
1F
100
AcDbEntity
  8
0
  6
Continuous
 62
     7
100
AcDbCircle
 10
-1245.9540813503
 20
-148.564199549
 30
0.0
 40
1.799999999999859
  0
CIRCLE
  5
120
330
1F
100
AcDbEntity
  8
0
  6
Continuous
 62
     7
100
AcDbCircle
 10
-1445.9540813503
 20
-148.564199549
 30
0.0
 40
1.80000000000006
  0
CIRCLE
  5
121
330
1F
100
AcDbEntity
  8
0
  6
Continuous
 62
     7
100
AcDbCircle
 10
-1495.9540813503
 20
-148.564199549
 30
0.0
 40
1.80000000000006
  0
CIRCLE
  5
122
330
1F
100
AcDbEntity
  8
0
  6
Continuous
 62
     7
100
AcDbCircle
 10
-1545.9540813503
 20
-148.564199549
 30
0.0
 40
1.800000000000076
  0
CIRCLE
  5
123
330
1F
100
AcDbEntity
  8
0
  6
Continuous
 62
     7
100
AcDbCircle
 10
-1545.9540813503
 20
-200.564199549
 30
0.0
 40
1.800000000000068
  0
CIRCLE
  5
124
330
1F
100
AcDbEntity
  8
0
  6
Continuous
 62
     7
100
AcDbCircle
 10
-1495.9540813503
 20
-200.564199549
 30
0.0
 40
1.800000000000068
  0
CIRCLE
  5
125
330
1F
100
AcDbEntity
  8
0
  6
Continuous
 62
     7
100
AcDbCircle
 10
-1445.9540813503
 20
-200.564199549
 30
0.0
 40
1.80000000000006
  0
CIRCLE
  5
126
330
1F
100
AcDbEntity
  8
0
  6
Continuous
 62
     7
100
AcDbCircle
 10
-1245.9540813503
 20
-200.564199549
 30
0.0
 40
1.799999999999851
  0
CIRCLE
  5
127
330
1F
100
AcDbEntity
  8
0
  6
Continuous
 62
     7
100
AcDbCircle
 10
-1295.9540813503
 20
-200.564199549
 30
0.0
 40
1.799999999999851
  0
CIRCLE
  5
128
330
1F
100
AcDbEntity
  8
0
  6
Continuous
 62
     7
100
AcDbCircle
 10
-1345.9540813503
 20
-200.564199549
 30
0.0
 40
1.799999999999851
  0
CIRCLE
  5
129
330
1F
100
AcDbEntity
  8
0
  6
Continuous
 62
     7
100
AcDbCircle
 10
-1395.9540813503
 20
-200.564199549
 30
0.0
 40
1.800000000000068
  0
ARC
  5
12A
330
1F
100
AcDbEntity
  8
0
  6
Continuous
 62
     7
100
AcDbCircle
 10
-1133.3650562947
 20
-254.4462178922
 30
0.0
 40
5.999999999999988
100
AcDbArc
 50
99.5940682269
 51
80.4059317731
  0
ARC
  5
12B
330
1F
100
AcDbEntity
  8
0
  6
Continuous
 62
     7
100
AcDbCircle
 10
-1133.3650562947
 20
-254.4462178922
 30
0.0
 40
8.00000000000011
100
AcDbArc
 50
213.3670129692
 51
326.6329870308
  0
CIRCLE
  5
12C
330
1F
100
AcDbEntity
  8
0
  6
Continuous
 62
     7
100
AcDbCircle
 10
-1143.3650562947
 20
-254.4462178922
 30
0.0
 40
1.299999999999989
  0
CIRCLE
  5
12D
330
1F
100
AcDbEntity
  8
0
  6
Continuous
 62
     7
100
AcDbCircle
 10
-1123.3650562947
 20
-254.4462178922
 30
0.0
 40
1.299999999999989
  0
ARC
  5
12E
330
1F
100
AcDbEntity
  8
0
  6
Continuous
 62
     7
100
AcDbCircle
 10
-1143.3650562947
 20
-254.4462178922
 30
0.0
 40
3.5
100
AcDbArc
 50
90.0
 51
270.0
  0
ARC
  5
12F
330
1F
100
AcDbEntity
  8
0
  6
Continuous
 62
     7
100
AcDbCircle
 10
-1123.3650562947
 20
-254.4462178922
 30
0.0
 40
3.5
100
AcDbArc
 50
270.0
 51
90.0
  0
ARC
  5
130
330
1F
100
AcDbEntity
  8
0
  6
Continuous
 62
     7
100
AcDbCircle
 10
-1133.3650562947
 20
-254.4462178922
 30
0.0
 40
8.000000000000094
100
AcDbArc
 50
33.3670129692
 51
47.1096962145
  0
ARC
  5
131
330
1F
100
AcDbEntity
  8
0
  6
Continuous
 62
     7
100
AcDbCircle
 10
-1133.3650562947
 20
-254.4462178922
 30
0.0
 40
8.000000000000094
100
AcDbArc
 50
132.3103105044
 51
146.6329870308
  0
ARC
  5
132
330
1F
100
AcDbEntity
  8
0
  6
Continuous
 62
     7
100
AcDbCircle
 10
-1125.0134097505
 20
-248.9462178922
 30
0.0
 40
2.0
100
AcDbArc
 50
213.3670129692
 51
270.0
  0
ARC
  5
133
330
1F
100
AcDbEntity
  8
0
  6
Continuous
 62
     7
100
AcDbCircle
 10
-1125.0134097505
 20
-259.9462178922
 30
0.0
 40
2.0
100
AcDbArc
 50
90.0
 51
146.6329870308
  0
ARC
  5
134
330
1F
100
AcDbEntity
  8
0
  6
Continuous
 62
     7
100
AcDbCircle
 10
-1141.7167028389
 20
-259.9462178922
 30
0.0
 40
2.0
100
AcDbArc
 50
33.3670129692
 51
90.0
  0
ARC
  5
135
330
1F
100
AcDbEntity
  8
0
  6
Continuous
 62
     7
100
AcDbCircle
 10
-1141.7167028389
 20
-248.9462178922
 30
0.0
 40
1.999999999999972
100
AcDbArc
 50
270.0
 51
326.6329870308
  0
ARC
  5
136
330
1F
100
AcDbEntity
  8
0
  6
Continuous
 62
     7
100
AcDbCircle
 10
-1066.8798197
 20
-312.8825054552
 30
0.0
 40
5.999999999999961
100
AcDbArc
 50
99.5940682269
 51
80.4059317731
  0
ARC
  5
137
330
1F
100
AcDbEntity
  8
0
  6
Continuous
 62
     7
100
AcDbCircle
 10
-1066.8798197
 20
-312.8825054552
 30
0.0
 40
8.00000000000011
100
AcDbArc
 50
213.3670129692
 51
326.6329870308
  0
CIRCLE
  5
138
330
1F
100
AcDbEntity
  8
0
  6
Continuous
 62
     7
100
AcDbCircle
 10
-1076.8798197
 20
-312.8825054552
 30
0.0
 40
1.299999999999981
  0
CIRCLE
  5
139
330
1F
100
AcDbEntity
  8
0
  6
Continuous
 62
     7
100
AcDbCircle
 10
-1056.8798197
 20
-312.8825054552
 30
0.0
 40
1.299999999999981
  0
ARC
  5
13A
330
1F
100
AcDbEntity
  8
0
  6
Continuous
 62
     7
100
AcDbCircle
 10
-1076.8798197
 20
-312.8825054552
 30
0.0
 40
3.5
100
AcDbArc
 50
90.0
 51
270.0
  0
ARC
  5
13B
330
1F
100
AcDbEntity
  8
0
  6
Continuous
 62
     7
100
AcDbCircle
 10
-1056.8798197
 20
-312.8825054552
 30
0.0
 40
3.5
100
AcDbArc
 50
270.0
 51
90.0
  0
ARC
  5
13C
330
1F
100
AcDbEntity
  8
0
  6
Continuous
 62
     7
100
AcDbCircle
 10
-1066.8798197
 20
-312.8825054552
 30
0.0
 40
8.00000000000008
100
AcDbArc
 50
33.3670129692
 51
47.1096962145
  0
ARC
  5
13D
330
1F
100
AcDbEntity
  8
0
  6
Continuous
 62
     7
100
AcDbCircle
 10
-1066.8798197
 20
-312.8825054552
 30
0.0
 40
8.000000000000131
100
AcDbArc
 50
132.3103105044
 51
146.6329870308
  0
ARC
  5
13E
330
1F
100
AcDbEntity
  8
0
  6
Continuous
 62
     7
100
AcDbCircle
 10
-1058.5281731558
 20
-307.3825054552
 30
0.0
 40
2.0
100
AcDbArc
 50
213.3670129692
 51
270.0
  0
ARC
  5
13F
330
1F
100
AcDbEntity
  8
0
  6
Continuous
 62
     7
100
AcDbCircle
 10
-1058.5281731558
 20
-318.3825054552
 30
0.0
 40
2.0
100
AcDbArc
 50
90.0
 51
146.6329870308
  0
ARC
  5
140
330
1F
100
AcDbEntity
  8
0
  6
Continuous
 62
     7
100
AcDbCircle
 10
-1075.2314662443
 20
-318.3825054552
 30
0.0
 40
2.0
100
AcDbArc
 50
33.3670129692
 51
90.0
  0
ARC
  5
141
330
1F
100
AcDbEntity
  8
0
  6
Continuous
 62
     7
100
AcDbCircle
 10
-1075.2314662443
 20
-307.3825054552
 30
0.0
 40
2.0
100
AcDbArc
 50
270.0
 51
326.6329870308
  0
ARC
  5
142
330
1F
100
AcDbEntity
  8
0
  6
Continuous
 62
     7
100
AcDbCircle
 10
-1068.555392079
 20
-263.2118322597
 30
0.0
 40
5.999999999999961
100
AcDbArc
 50
99.5940682269
 51
80.4059317731
  0
ARC
  5
143
330
1F
100
AcDbEntity
  8
0
  6
Continuous
 62
     7
100
AcDbCircle
 10
-1068.555392079
 20
-263.2118322597
 30
0.0
 40
8.00000000000011
100
AcDbArc
 50
213.3670129692
 51
326.6329870308
  0
CIRCLE
  5
144
330
1F
100
AcDbEntity
  8
0
  6
Continuous
 62
     7
100
AcDbCircle
 10
-1078.555392079
 20
-263.2118322597
 30
0.0
 40
1.299999999999981
  0
CIRCLE
  5
145
330
1F
100
AcDbEntity
  8
0
  6
Continuous
 62
     7
100
AcDbCircle
 10
-1058.555392079
 20
-263.2118322597
 30
0.0
 40
1.299999999999981
  0
ARC
  5
146
330
1F
100
AcDbEntity
  8
0
  6
Continuous
 62
     7
100
AcDbCircle
 10
-1078.555392079
 20
-263.2118322597
 30
0.0
 40
3.5
100
AcDbArc
 50
90.0
 51
270.0
  0
ARC
  5
147
330
1F
100
AcDbEntity
  8
0
  6
Continuous
 62
     7
100
AcDbCircle
 10
-1058.555392079
 20
-263.2118322597
 30
0.0
 40
3.5
100
AcDbArc
 50
270.0
 51
90.0
  0
ARC
  5
148
330
1F
100
AcDbEntity
  8
0
  6
Continuous
 62
     7
100
AcDbCircle
 10
-1068.555392079
 20
-263.2118322597
 30
0.0
 40
8.00000000000008
100
AcDbArc
 50
33.3670129692
 51
47.1096962145
  0
ARC
  5
149
330
1F
100
AcDbEntity
  8
0
  6
Continuous
 62
     7
100
AcDbCircle
 10
-1068.555392079
 20
-263.2118322597
 30
0.0
 40
8.00000000000008
100
AcDbArc
 50
132.3103105044
 51
146.6329870308
  0
ARC
  5
14A
330
1F
100
AcDbEntity
  8
0
  6
Continuous
 62
     7
100
AcDbCircle
 10
-1060.2037455348
 20
-257.7118322597
 30
0.0
 40
2.0
100
AcDbArc
 50
213.3670129692
 51
270.0
  0
ARC
  5
14B
330
1F
100
AcDbEntity
  8
0
  6
Continuous
 62
     7
100
AcDbCircle
 10
-1060.2037455348
 20
-268.7118322597
 30
0.0
 40
2.0
100
AcDbArc
 50
90.0
 51
146.6329870308
  0
ARC
  5
14C
330
1F
100
AcDbEntity
  8
0
  6
Continuous
 62
     7
100
AcDbCircle
 10
-1076.9070386233
 20
-268.7118322597
 30
0.0
 40
2.0
100
AcDbArc
 50
33.3670129692
 51
90.0
  0
ARC
  5
14D
330
1F
100
AcDbEntity
  8
0
  6
Continuous
 62
     7
100
AcDbCircle
 10
-1076.9070386233
 20
-257.7118322597
 30
0.0
 40
2.0
100
AcDbArc
 50
270.0
 51
326.6329870308
  0
ARC
  5
14E
330
1F
100
AcDbEntity
  8
0
  6
Continuous
 62
     7
100
AcDbCircle
 10
-1164.6670831957
 20
-254.7774562721
 30
0.0
 40
5.999999999999988
100
AcDbArc
 50
99.5940682269
 51
80.4059317731
  0
ARC
  5
14F
330
1F
100
AcDbEntity
  8
0
  6
Continuous
 62
     7
100
AcDbCircle
 10
-1164.6670831957
 20
-254.7774562721
 30
0.0
 40
8.00000000000011
100
AcDbArc
 50
213.3670129692
 51
326.6329870308
  0
CIRCLE
  5
150
330
1F
100
AcDbEntity
  8
0
  6
Continuous
 62
     7
100
AcDbCircle
 10
-1174.6670831957
 20
-254.7774562721
 30
0.0
 40
1.299999999999989
  0
CIRCLE
  5
151
330
1F
100
AcDbEntity
  8
0
  6
Continuous
 62
     7
100
AcDbCircle
 10
-1154.6670831957
 20
-254.7774562721
 30
0.0
 40
1.299999999999771
  0
ARC
  5
152
330
1F
100
AcDbEntity
  8
0
  6
Continuous
 62
     7
100
AcDbCircle
 10
-1174.6670831957
 20
-254.7774562721
 30
0.0
 40
3.5
100
AcDbArc
 50
90.0
 51
270.0
  0
ARC
  5
153
330
1F
100
AcDbEntity
  8
0
  6
Continuous
 62
     7
100
AcDbCircle
 10
-1154.6670831957
 20
-254.7774562721
 30
0.0
 40
3.5
100
AcDbArc
 50
270.0
 51
90.0
  0
ARC
  5
154
330
1F
100
AcDbEntity
  8
0
  6
Continuous
 62
     7
100
AcDbCircle
 10
-1164.6670831957
 20
-254.7774562721
 30
0.0
 40
7.999999999999905
100
AcDbArc
 50
33.3670129692
 51
47.1096962145
  0
ARC
  5
155
330
1F
100
AcDbEntity
  8
0
  6
Continuous
 62
     7
100
AcDbCircle
 10
-1164.6670831957
 20
-254.7774562721
 30
0.0
 40
8.000000000000151
100
AcDbArc
 50
132.3103105044
 51
146.6329870308
  0
ARC
  5
156
330
1F
100
AcDbEntity
  8
0
  6
Continuous
 62
     7
100
AcDbCircle
 10
-1156.3154366515
 20
-249.2774562721
 30
0.0
 40
2.0
100
AcDbArc
 50
213.3670129692
 51
270.0
  0
ARC
  5
157
330
1F
100
AcDbEntity
  8
0
  6
Continuous
 62
     7
100
AcDbCircle
 10
-1156.3154366515
 20
-260.2774562721
 30
0.0
 40
2.0
100
AcDbArc
 50
90.0
 51
146.6329870308
  0
ARC
  5
158
330
1F
100
AcDbEntity
  8
0
  6
Continuous
 62
     7
100
AcDbCircle
 10
-1173.01872974
 20
-260.2774562721
 30
0.0
 40
2.0
100
AcDbArc
 50
33.3670129692
 51
90.0
  0
ARC
  5
159
330
1F
100
AcDbEntity
  8
0
  6
Continuous
 62
     7
100
AcDbCircle
 10
-1173.01872974
 20
-249.2774562721
 30
0.0
 40
1.999999999999972
100
AcDbArc
 50
270.0
 51
326.6329870308
  0
ARC
  5
15A
330
1F
100
AcDbEntity
  8
0
  6
Continuous
 62
     7
100
AcDbCircle
 10
-1166.4208788177
 20
-141.8462471945
 30
0.0
 40
5.999999999999988
100
AcDbArc
 50
99.5940682269
 51
80.4059317731
  0
ARC
  5
15B
330
1F
100
AcDbEntity
  8
0
  6
Continuous
 62
     7
100
AcDbCircle
 10
-1166.4208788177
 20
-141.8462471945
 30
0.0
 40
8.00000000000011
100
AcDbArc
 50
213.3670129692
 51
326.6329870308
  0
CIRCLE
  5
15C
330
1F
100
AcDbEntity
  8
0
  6
Continuous
 62
     7
100
AcDbCircle
 10
-1176.4208788177
 20
-141.8462471945
 30
0.0
 40
1.299999999999997
  0
CIRCLE
  5
15D
330
1F
100
AcDbEntity
  8
0
  6
Continuous
 62
     7
100
AcDbCircle
 10
-1156.4208788177
 20
-141.8462471945
 30
0.0
 40
1.299999999999997
  0
ARC
  5
15E
330
1F
100
AcDbEntity
  8
0
  6
Continuous
 62
     7
100
AcDbCircle
 10
-1176.4208788177
 20
-141.8462471945
 30
0.0
 40
3.500000000000028
100
AcDbArc
 50
90.0
 51
270.0
  0
ARC
  5
15F
330
1F
100
AcDbEntity
  8
0
  6
Continuous
 62
     7
100
AcDbCircle
 10
-1156.4208788177
 20
-141.8462471945
 30
0.0
 40
3.500000000000028
100
AcDbArc
 50
270.0
 51
90.0
  0
ARC
  5
160
330
1F
100
AcDbEntity
  8
0
  6
Continuous
 62
     7
100
AcDbCircle
 10
-1166.4208788177
 20
-141.8462471945
 30
0.0
 40
8.00000000000008
100
AcDbArc
 50
33.3670129692
 51
47.1096962145
  0
ARC
  5
161
330
1F
100
AcDbEntity
  8
0
  6
Continuous
 62
     7
100
AcDbCircle
 10
-1166.4208788177
 20
-141.8462471945
 30
0.0
 40
8.000000000000151
100
AcDbArc
 50
132.3103105044
 51
146.6329870308
  0
ARC
  5
162
330
1F
100
AcDbEntity
  8
0
  6
Continuous
 62
     7
100
AcDbCircle
 10
-1158.0692322735
 20
-136.3462471945
 30
0.0
 40
2.0
100
AcDbArc
 50
213.3670129692
 51
270.0
  0
ARC
  5
163
330
1F
100
AcDbEntity
  8
0
  6
Continuous
 62
     7
100
AcDbCircle
 10
-1158.0692322735
 20
-147.3462471945
 30
0.0
 40
2.0
100
AcDbArc
 50
90.0
 51
146.6329870308
  0
ARC
  5
164
330
1F
100
AcDbEntity
  8
0
  6
Continuous
 62
     7
100
AcDbCircle
 10
-1174.772525362
 20
-147.3462471945
 30
0.0
 40
2.0
100
AcDbArc
 50
33.3670129692
 51
90.0
  0
ARC
  5
165
330
1F
100
AcDbEntity
  8
0
  6
Continuous
 62
     7
100
AcDbCircle
 10
-1174.772525362
 20
-136.3462471945
 30
0.0
 40
1.999999999999972
100
AcDbArc
 50
270.0
 51
326.6329870308
  0
ARC
  5
166
330
1F
100
AcDbEntity
  8
0
  6
Continuous
 62
     7
100
AcDbCircle
 10
-1101.7317910138
 20
-254.2805987023
 30
0.0
 40
5.999999999999988
100
AcDbArc
 50
99.5940682269
 51
80.4059317731
  0
ARC
  5
167
330
1F
100
AcDbEntity
  8
0
  6
Continuous
 62
     7
100
AcDbCircle
 10
-1101.7317910138
 20
-254.2805987023
 30
0.0
 40
8.000000000000094
100
AcDbArc
 50
213.3670129692
 51
326.6329870308
  0
CIRCLE
  5
168
330
1F
100
AcDbEntity
  8
0
  6
Continuous
 62
     7
100
AcDbCircle
 10
-1111.7317910138
 20
-254.2805987023
 30
0.0
 40
1.299999999999989
  0
CIRCLE
  5
169
330
1F
100
AcDbEntity
  8
0
  6
Continuous
 62
     7
100
AcDbCircle
 10
-1091.7317910138
 20
-254.2805987023
 30
0.0
 40
1.299999999999989
  0
ARC
  5
16A
330
1F
100
AcDbEntity
  8
0
  6
Continuous
 62
     7
100
AcDbCircle
 10
-1111.7317910138
 20
-254.2805987023
 30
0.0
 40
3.5
100
AcDbArc
 50
90.0
 51
270.0
  0
ARC
  5
16B
330
1F
100
AcDbEntity
  8
0
  6
Continuous
 62
     7
100
AcDbCircle
 10
-1091.7317910138
 20
-254.2805987023
 30
0.0
 40
3.5
100
AcDbArc
 50
270.0
 51
90.0
  0
ARC
  5
16C
330
1F
100
AcDbEntity
  8
0
  6
Continuous
 62
     7
100
AcDbCircle
 10
-1101.7317910138
 20
-254.2805987023
 30
0.0
 40
8.000000000000094
100
AcDbArc
 50
33.3670129692
 51
47.1096962145
  0
ARC
  5
16D
330
1F
100
AcDbEntity
  8
0
  6
Continuous
 62
     7
100
AcDbCircle
 10
-1101.7317910138
 20
-254.2805987023
 30
0.0
 40
8.000000000000094
100
AcDbArc
 50
132.3103105044
 51
146.6329870308
  0
ARC
  5
16E
330
1F
100
AcDbEntity
  8
0
  6
Continuous
 62
     7
100
AcDbCircle
 10
-1093.3801444695
 20
-248.7805987023
 30
0.0
 40
2.000000000000028
100
AcDbArc
 50
213.3670129692
 51
270.0
  0
ARC
  5
16F
330
1F
100
AcDbEntity
  8
0
  6
Continuous
 62
     7
100
AcDbCircle
 10
-1093.3801444695
 20
-259.7805987023
 30
0.0
 40
2.0
100
AcDbArc
 50
90.0
 51
146.6329870308
  0
ARC
  5
170
330
1F
100
AcDbEntity
  8
0
  6
Continuous
 62
     7
100
AcDbCircle
 10
-1110.083437558
 20
-259.7805987023
 30
0.0
 40
2.0
100
AcDbArc
 50
33.3670129692
 51
90.0
  0
ARC
  5
171
330
1F
100
AcDbEntity
  8
0
  6
Continuous
 62
     7
100
AcDbCircle
 10
-1110.083437558
 20
-248.7805987023
 30
0.0
 40
2.0
100
AcDbArc
 50
270.0
 51
326.6329870308
  0
ARC
  5
172
330
1F
100
AcDbEntity
  8
0
  6
Continuous
 62
     7
100
AcDbCircle
 10
-1123.0439425338
 20
-98.7825017863
 30
0.0
 40
6.000000000000003
100
AcDbArc
 50
99.5940682269
 51
80.4059317731
  0
ARC
  5
173
330
1F
100
AcDbEntity
  8
0
  6
Continuous
 62
     7
100
AcDbCircle
 10
-1123.0439425338
 20
-98.7825017863
 30
0.0
 40
8.000000000000087
100
AcDbArc
 50
213.3670129692
 51
326.6329870308
  0
CIRCLE
  5
174
330
1F
100
AcDbEntity
  8
0
  6
Continuous
 62
     7
100
AcDbCircle
 10
-1133.0439425338
 20
-98.7825017863
 30
0.0
 40
1.300000000000001
  0
CIRCLE
  5
175
330
1F
100
AcDbEntity
  8
0
  6
Continuous
 62
     7
100
AcDbCircle
 10
-1113.0439425338
 20
-98.7825017863
 30
0.0
 40
1.300000000000001
  0
ARC
  5
176
330
1F
100
AcDbEntity
  8
0
  6
Continuous
 62
     7
100
AcDbCircle
 10
-1133.0439425338
 20
-98.7825017863
 30
0.0
 40
3.5
100
AcDbArc
 50
90.0
 51
270.0
  0
ARC
  5
177
330
1F
100
AcDbEntity
  8
0
  6
Continuous
 62
     7
100
AcDbCircle
 10
-1113.0439425338
 20
-98.7825017863
 30
0.0
 40
3.5
100
AcDbArc
 50
270.0
 51
90.0
  0
ARC
  5
178
330
1F
100
AcDbEntity
  8
0
  6
Continuous
 62
     7
100
AcDbCircle
 10
-1123.0439425338
 20
-98.7825017863
 30
0.0
 40
8.000000000000087
100
AcDbArc
 50
33.3670129692
 51
47.1096962145
  0
ARC
  5
179
330
1F
100
AcDbEntity
  8
0
  6
Continuous
 62
     7
100
AcDbCircle
 10
-1123.0439425338
 20
-98.7825017863
 30
0.0
 40
8.000000000000162
100
AcDbArc
 50
132.3103105044
 51
146.6329870308
  0
ARC
  5
17A
330
1F
100
AcDbEntity
  8
0
  6
Continuous
 62
     7
100
AcDbCircle
 10
-1114.6922959896
 20
-93.2825017863
 30
0.0
 40
2.0
100
AcDbArc
 50
213.3670129692
 51
270.0
  0
ARC
  5
17B
330
1F
100
AcDbEntity
  8
0
  6
Continuous
 62
     7
100
AcDbCircle
 10
-1114.6922959896
 20
-104.2825017863
 30
0.0
 40
2.000000000000014
100
AcDbArc
 50
90.0
 51
146.6329870308
  0
ARC
  5
17C
330
1F
100
AcDbEntity
  8
0
  6
Continuous
 62
     7
100
AcDbCircle
 10
-1131.3955890781
 20
-104.2825017863
 30
0.0
 40
2.000000000000014
100
AcDbArc
 50
33.3670129692
 51
90.0
  0
ARC
  5
17D
330
1F
100
AcDbEntity
  8
0
  6
Continuous
 62
     7
100
AcDbCircle
 10
-1131.3955890781
 20
-93.2825017863
 30
0.0
 40
2.0
100
AcDbArc
 50
270.0
 51
326.6329870308
  0
ARC
  5
17E
330
1F
100
AcDbEntity
  8
0
  6
Continuous
 62
     7
100
AcDbCircle
 10
-1164.8549244392
 20
-101.7578151054
 30
0.0
 40
6.000000000000041
100
AcDbArc
 50
99.5940682269
 51
80.4059317731
  0
ARC
  5
17F
330
1F
100
AcDbEntity
  8
0
  6
Continuous
 62
     7
100
AcDbCircle
 10
-1164.8549244392
 20
-101.7578151054
 30
0.0
 40
8.000000000000087
100
AcDbArc
 50
213.3670129692
 51
326.6329870308
  0
CIRCLE
  5
180
330
1F
100
AcDbEntity
  8
0
  6
Continuous
 62
     7
100
AcDbCircle
 10
-1174.8549244392
 20
-101.7578151054
 30
0.0
 40
1.300000000000001
  0
CIRCLE
  5
181
330
1F
100
AcDbEntity
  8
0
  6
Continuous
 62
     7
100
AcDbCircle
 10
-1154.8549244392
 20
-101.7578151054
 30
0.0
 40
1.300000000000001
  0
ARC
  5
182
330
1F
100
AcDbEntity
  8
0
  6
Continuous
 62
     7
100
AcDbCircle
 10
-1174.8549244392
 20
-101.7578151054
 30
0.0
 40
3.5
100
AcDbArc
 50
90.0
 51
270.0
  0
ARC
  5
183
330
1F
100
AcDbEntity
  8
0
  6
Continuous
 62
     7
100
AcDbCircle
 10
-1154.8549244392
 20
-101.7578151054
 30
0.0
 40
3.5
100
AcDbArc
 50
270.0
 51
90.0
  0
ARC
  5
184
330
1F
100
AcDbEntity
  8
0
  6
Continuous
 62
     7
100
AcDbCircle
 10
-1164.8549244392
 20
-101.7578151054
 30
0.0
 40
8.000000000000094
100
AcDbArc
 50
33.3670129692
 51
47.1096962145
  0
ARC
  5
185
330
1F
100
AcDbEntity
  8
0
  6
Continuous
 62
     7
100
AcDbCircle
 10
-1164.8549244392
 20
-101.7578151054
 30
0.0
 40
8.000000000000094
100
AcDbArc
 50
132.3103105044
 51
146.6329870308
  0
ARC
  5
186
330
1F
100
AcDbEntity
  8
0
  6
Continuous
 62
     7
100
AcDbCircle
 10
-1156.503277895
 20
-96.2578151054
 30
0.0
 40
2.0
100
AcDbArc
 50
213.3670129692
 51
270.0
  0
ARC
  5
187
330
1F
100
AcDbEntity
  8
0
  6
Continuous
 62
     7
100
AcDbCircle
 10
-1156.503277895
 20
-107.2578151054
 30
0.0
 40
2.000000000000014
100
AcDbArc
 50
90.0
 51
146.6329870308
  0
ARC
  5
188
330
1F
100
AcDbEntity
  8
0
  6
Continuous
 62
     7
100
AcDbCircle
 10
-1173.2065709835
 20
-107.2578151054
 30
0.0
 40
2.000000000000014
100
AcDbArc
 50
33.3670129692
 51
90.0
  0
ARC
  5
189
330
1F
100
AcDbEntity
  8
0
  6
Continuous
 62
     7
100
AcDbCircle
 10
-1173.2065709835
 20
-96.2578151054
 30
0.0
 40
2.0
100
AcDbArc
 50
270.0
 51
326.6329870308
  0
ARC
  5
18A
330
1F
100
AcDbEntity
  8
0
  6
Continuous
 62
     7
100
AcDbCircle
 10
-1144.0277312054
 20
-123.2113900906
 30
0.0
 40
6.000000000000041
100
AcDbArc
 50
99.5940682269
 51
80.4059317731
  0
ARC
  5
18B
330
1F
100
AcDbEntity
  8
0
  6
Continuous
 62
     7
100
AcDbCircle
 10
-1144.0277312054
 20
-123.2113900906
 30
0.0
 40
8.00000000000008
100
AcDbArc
 50
213.3670129692
 51
326.6329870308
  0
CIRCLE
  5
18C
330
1F
100
AcDbEntity
  8
0
  6
Continuous
 62
     7
100
AcDbCircle
 10
-1154.0277312054
 20
-123.2113900906
 30
0.0
 40
1.300000000000001
  0
CIRCLE
  5
18D
330
1F
100
AcDbEntity
  8
0
  6
Continuous
 62
     7
100
AcDbCircle
 10
-1134.0277312054
 20
-123.2113900906
 30
0.0
 40
1.300000000000001
  0
ARC
  5
18E
330
1F
100
AcDbEntity
  8
0
  6
Continuous
 62
     7
100
AcDbCircle
 10
-1154.0277312054
 20
-123.2113900906
 30
0.0
 40
3.500000000000014
100
AcDbArc
 50
90.0
 51
270.0
  0
ARC
  5
18F
330
1F
100
AcDbEntity
  8
0
  6
Continuous
 62
     7
100
AcDbCircle
 10
-1134.0277312054
 20
-123.2113900906
 30
0.0
 40
3.500000000000014
100
AcDbArc
 50
270.0
 51
90.0
  0
ARC
  5
190
330
1F
100
AcDbEntity
  8
0
  6
Continuous
 62
     7
100
AcDbCircle
 10
-1144.0277312054
 20
-123.2113900906
 30
0.0
 40
8.000000000000094
100
AcDbArc
 50
33.3670129692
 51
47.1096962145
  0
ARC
  5
191
330
1F
100
AcDbEntity
  8
0
  6
Continuous
 62
     7
100
AcDbCircle
 10
-1144.0277312054
 20
-123.2113900906
 30
0.0
 40
8.000000000000094
100
AcDbArc
 50
132.3103105044
 51
146.6329870308
  0
ARC
  5
192
330
1F
100
AcDbEntity
  8
0
  6
Continuous
 62
     7
100
AcDbCircle
 10
-1135.6760846612
 20
-117.7113900906
 30
0.0
 40
2.0
100
AcDbArc
 50
213.3670129692
 51
270.0
  0
ARC
  5
193
330
1F
100
AcDbEntity
  8
0
  6
Continuous
 62
     7
100
AcDbCircle
 10
-1135.6760846612
 20
-128.7113900906
 30
0.0
 40
2.000000000000014
100
AcDbArc
 50
90.0
 51
146.6329870308
  0
ARC
  5
194
330
1F
100
AcDbEntity
  8
0
  6
Continuous
 62
     7
100
AcDbCircle
 10
-1152.3793777497
 20
-128.7113900906
 30
0.0
 40
1.999999999999986
100
AcDbArc
 50
33.3670129692
 51
90.0
  0
ARC
  5
195
330
1F
100
AcDbEntity
  8
0
  6
Continuous
 62
     7
100
AcDbCircle
 10
-1152.3793777497
 20
-117.7113900906
 30
0.0
 40
2.0
100
AcDbArc
 50
270.0
 51
326.6329870308
  0
ARC
  5
196
330
1F
100
AcDbEntity
  8
0
  6
Continuous
 62
     7
100
AcDbCircle
 10
-1051.823632766
 20
-285.5583143528
 30
0.0
 40
6.000000000000017
100
AcDbArc
 50
99.5940682269
 51
80.4059317731
  0
ARC
  5
197
330
1F
100
AcDbEntity
  8
0
  6
Continuous
 62
     7
100
AcDbCircle
 10
-1051.823632766
 20
-285.5583143528
 30
0.0
 40
8.00000000000008
100
AcDbArc
 50
213.3670129692
 51
326.6329870308
  0
CIRCLE
  5
198
330
1F
100
AcDbEntity
  8
0
  6
Continuous
 62
     7
100
AcDbCircle
 10
-1061.823632766
 20
-285.5583143528
 30
0.0
 40
1.299999999999997
  0
CIRCLE
  5
199
330
1F
100
AcDbEntity
  8
0
  6
Continuous
 62
     7
100
AcDbCircle
 10
-1041.823632766
 20
-285.5583143528
 30
0.0
 40
1.299999999999997
  0
ARC
  5
19A
330
1F
100
AcDbEntity
  8
0
  6
Continuous
 62
     7
100
AcDbCircle
 10
-1061.823632766
 20
-285.5583143528
 30
0.0
 40
3.5
100
AcDbArc
 50
90.0
 51
270.0
  0
ARC
  5
19B
330
1F
100
AcDbEntity
  8
0
  6
Continuous
 62
     7
100
AcDbCircle
 10
-1041.823632766
 20
-285.5583143528
 30
0.0
 40
3.5
100
AcDbArc
 50
270.0
 51
90.0
  0
ARC
  5
19C
330
1F
100
AcDbEntity
  8
0
  6
Continuous
 62
     7
100
AcDbCircle
 10
-1051.823632766
 20
-285.5583143528
 30
0.0
 40
8.00000000000011
100
AcDbArc
 50
33.3670129692
 51
47.1096962145
  0
ARC
  5
19D
330
1F
100
AcDbEntity
  8
0
  6
Continuous
 62
     7
100
AcDbCircle
 10
-1051.823632766
 20
-285.5583143528
 30
0.0
 40
8.00000000000011
100
AcDbArc
 50
132.3103105044
 51
146.6329870308
  0
ARC
  5
19E
330
1F
100
AcDbEntity
  8
0
  6
Continuous
 62
     7
100
AcDbCircle
 10
-1043.4719862218
 20
-280.0583143528
 30
0.0
 40
2.0
100
AcDbArc
 50
213.3670129692
 51
270.0
  0
ARC
  5
19F
330
1F
100
AcDbEntity
  8
0
  6
Continuous
 62
     7
100
AcDbCircle
 10
-1043.4719862218
 20
-291.0583143528
 30
0.0
 40
2.0
100
AcDbArc
 50
90.0
 51
146.6329870308
  0
ARC
  5
1A0
330
1F
100
AcDbEntity
  8
0
  6
Continuous
 62
     7
100
AcDbCircle
 10
-1060.1752793103
 20
-291.0583143528
 30
0.0
 40
2.0
100
AcDbArc
 50
33.3670129692
 51
90.0
  0
ARC
  5
1A1
330
1F
100
AcDbEntity
  8
0
  6
Continuous
 62
     7
100
AcDbCircle
 10
-1060.1752793103
 20
-280.0583143528
 30
0.0
 40
2.0
100
AcDbArc
 50
270.0
 51
326.6329870308
  0
CIRCLE
  5
1D8
330
1F
100
AcDbEntity
  8
0
  6
Continuous
 62
     7
100
AcDbCircle
 10
-1023.2877620298
 20
-276.7187460658
 30
0.0
 40
5.00000000000035
  0
CIRCLE
  5
1D9
330
1F
100
AcDbEntity
  8
0
  6
Continuous
 62
     7
100
AcDbCircle
 10
-985.2877620298
 20
-276.7187460658
 30
0.0
 40
4.999999999999806
  0
CIRCLE
  5
1DA
330
1F
100
AcDbEntity
  8
0
  6
Continuous
 62
     7
100
AcDbCircle
 10
-1004.2877620298
 20
-276.7187460658
 30
0.0
 40
11.00000000000021
  0
CIRCLE
  5
1DB
330
1F
100
AcDbEntity
  8
0
  6
Continuous
 62
     7
100
AcDbCircle
 10
-1004.2877620298
 20
-255.7187460658
 30
0.0
 40
2.000000000000158
  0
CIRCLE
  5
1DC
330
1F
100
AcDbEntity
  8
0
  6
Continuous
 62
     7
100
AcDbCircle
 10
-1023.2877620298
 20
-255.7187460658
 30
0.0
 40
1.984633096711257
  0
CIRCLE
  5
1DD
330
1F
100
AcDbEntity
  8
0
  6
Continuous
 62
     7
100
AcDbCircle
 10
-985.2877620298
 20
-255.7187460658
 30
0.0
 40
1.894356902879615
  0
CIRCLE
  5
1DE
330
1F
100
AcDbEntity
  8
0
  6
Continuous
 62
     7
100
AcDbCircle
 10
-1019.7877620298
 20
-261.2187460658
 30
0.0
 40
1.599999999999869
  0
CIRCLE
  5
1DF
330
1F
100
AcDbEntity
  8
0
  6
Continuous
 62
     7
100
AcDbCircle
 10
-988.7877620298
 20
-261.2187460658
 30
0.0
 40
1.600000000000304
  0
CIRCLE
  5
1E0
330
1F
100
AcDbEntity
  8
0
  6
Continuous
 62
     7
100
AcDbCircle
 10
-988.7877620298
 20
-292.2187460658
 30
0.0
 40
1.600000000000287
  0
CIRCLE
  5
1E1
330
1F
100
AcDbEntity
  8
0
  6
Continuous
 62
     7
100
AcDbCircle
 10
-1019.7877620298
 20
-292.2187460658
 30
0.0
 40
1.599999999999852
  0
ARC
  5
1E2
330
1F
100
AcDbEntity
  8
0
  6
Continuous
 62
     7
100
AcDbCircle
 10
-982.2877620298
 20
-293.7187460658
 30
0.0
 40
5.000000000000341
100
AcDbArc
 50
270.0
 51
0.0
  0
ARC
  5
1E3
330
1F
100
AcDbEntity
  8
0
  6
Continuous
 62
     7
100
AcDbCircle
 10
-1026.2877620298
 20
-293.7187460658
 30
0.0
 40
5.000000000000455
100
AcDbArc
 50
180.0
 51
270.0
  0
CIRCLE
  5
1E4
330
1F
100
AcDbEntity
  8
0
  6
Continuous
 62
     7
100
AcDbCircle
 10
-709.3006667266
 20
-508.5945615111
 30
0.0
 40
1.599999999999961
  0
CIRCLE
  5
1E5
330
1F
100
AcDbEntity
  8
0
  6
Continuous
 62
     7
100
AcDbCircle
 10
-659.3006667266
 20
-508.5945615111
 30
0.0
 40
1.599999999999961
  0
CIRCLE
  5
1E6
330
1F
100
AcDbEntity
  8
0
  6
Continuous
 62
     7
100
AcDbCircle
 10
-609.3006667266
 20
-508.5945615111
 30
0.0
 40
1.60000000000007
  0
CIRCLE
  5
1E7
330
1F
100
AcDbEntity
  8
0
  6
Continuous
 62
     7
100
AcDbCircle
 10
-559.3006667266
 20
-508.5945615111
 30
0.0
 40
1.599999999999961
  0
CIRCLE
  5
1E8
330
1F
100
AcDbEntity
  8
0
  6
Continuous
 62
     7
100
AcDbCircle
 10
-509.3006667266
 20
-508.5945615111
 30
0.0
 40
1.600000000000015
  0
CIRCLE
  5
1E9
330
1F
100
AcDbEntity
  8
0
  6
Continuous
 62
     7
100
AcDbCircle
 10
-459.3006667266
 20
-508.5945615111
 30
0.0
 40
1.599999999999961
  0
CIRCLE
  5
1EA
330
1F
100
AcDbEntity
  8
0
  6
Continuous
 62
     7
100
AcDbCircle
 10
-409.3006667266
 20
-508.5945615111
 30
0.0
 40
1.599999999999907
  0
CIRCLE
  5
1EB
330
1F
100
AcDbEntity
  8
0
  6
Continuous
 62
     7
100
AcDbCircle
 10
-659.3006667266
 20
-458.5945615111
 30
0.0
 40
1.599999999999869
  0
CIRCLE
  5
1EC
330
1F
100
AcDbEntity
  8
0
  6
Continuous
 62
     7
100
AcDbCircle
 10
-609.3006667266
 20
-458.5945615111
 30
0.0
 40
1.600000000000086
  0
CIRCLE
  5
1ED
330
1F
100
AcDbEntity
  8
0
  6
Continuous
 62
     7
100
AcDbCircle
 10
-559.3006667266
 20
-458.5945615111
 30
0.0
 40
1.599999999999978
  0
CIRCLE
  5
1EE
330
1F
100
AcDbEntity
  8
0
  6
Continuous
 62
     7
100
AcDbCircle
 10
-509.3006667266
 20
-458.5945615111
 30
0.0
 40
1.600000000000032
  0
CIRCLE
  5
1EF
330
1F
100
AcDbEntity
  8
0
  6
Continuous
 62
     7
100
AcDbCircle
 10
-459.3006667266
 20
-458.5945615111
 30
0.0
 40
1.600000000000032
  0
CIRCLE
  5
1F0
330
1F
100
AcDbEntity
  8
0
  6
Continuous
 62
     7
100
AcDbCircle
 10
-409.3006667266
 20
-458.5945615111
 30
0.0
 40
1.599999999999978
  0
CIRCLE
  5
1F1
330
1F
100
AcDbEntity
  8
0
  6
Continuous
 62
     7
100
AcDbCircle
 10
-659.3006667266
 20
-408.5945615111
 30
0.0
 40
1.599999999999994
  0
CIRCLE
  5
1F2
330
1F
100
AcDbEntity
  8
0
  6
Continuous
 62
     7
100
AcDbCircle
 10
-609.3006667266
 20
-408.5945615111
 30
0.0
 40
1.599999999999994
  0
CIRCLE
  5
1F3
330
1F
100
AcDbEntity
  8
0
  6
Continuous
 62
     7
100
AcDbCircle
 10
-559.3006667266
 20
-408.5945615111
 30
0.0
 40
1.599999999999994
  0
CIRCLE
  5
1F4
330
1F
100
AcDbEntity
  8
0
  6
Continuous
 62
     7
100
AcDbCircle
 10
-509.3006667266
 20
-408.5945615111
 30
0.0
 40
1.600000000000049
  0
CIRCLE
  5
1F5
330
1F
100
AcDbEntity
  8
0
  6
Continuous
 62
     7
100
AcDbCircle
 10
-459.3006667266
 20
-408.5945615111
 30
0.0
 40
1.600000000000049
  0
CIRCLE
  5
1F6
330
1F
100
AcDbEntity
  8
0
  6
Continuous
 62
     7
100
AcDbCircle
 10
-409.3006667266
 20
-408.5945615111
 30
0.0
 40
1.599999999999994
  0
CIRCLE
  5
1F7
330
1F
100
AcDbEntity
  8
0
  6
Continuous
 62
     7
100
AcDbCircle
 10
-659.3006667266
 20
-358.5945615111
 30
0.0
 40
1.599999999999961
  0
CIRCLE
  5
1F8
330
1F
100
AcDbEntity
  8
0
  6
Continuous
 62
     7
100
AcDbCircle
 10
-609.3006667266
 20
-358.5945615111
 30
0.0
 40
1.60000000000007
  0
CIRCLE
  5
1F9
330
1F
100
AcDbEntity
  8
0
  6
Continuous
 62
     7
100
AcDbCircle
 10
-559.3006667266
 20
-358.5945615111
 30
0.0
 40
1.599999999999852
  0
CIRCLE
  5
1FA
330
1F
100
AcDbEntity
  8
0
  6
Continuous
 62
     7
100
AcDbCircle
 10
-509.3006667266
 20
-358.5945615111
 30
0.0
 40
1.600000000000015
  0
CIRCLE
  5
1FB
330
1F
100
AcDbEntity
  8
0
  6
Continuous
 62
     7
100
AcDbCircle
 10
-459.3006667266
 20
-358.5945615111
 30
0.0
 40
1.599999999999961
  0
CIRCLE
  5
1FC
330
1F
100
AcDbEntity
  8
0
  6
Continuous
 62
     7
100
AcDbCircle
 10
-409.3006667266
 20
-358.5945615111
 30
0.0
 40
1.600000000000015
  0
CIRCLE
  5
1FD
330
1F
100
AcDbEntity
  8
0
  6
Continuous
 62
     7
100
AcDbCircle
 10
-659.3006667266
 20
-308.5945615111
 30
0.0
 40
1.599999999999961
  0
CIRCLE
  5
1FE
330
1F
100
AcDbEntity
  8
0
  6
Continuous
 62
     7
100
AcDbCircle
 10
-609.3006667266
 20
-308.5945615111
 30
0.0
 40
1.60000000000007
  0
CIRCLE
  5
1FF
330
1F
100
AcDbEntity
  8
0
  6
Continuous
 62
     7
100
AcDbCircle
 10
-559.3006667266
 20
-308.5945615111
 30
0.0
 40
1.599999999999961
  0
CIRCLE
  5
200
330
1F
100
AcDbEntity
  8
0
  6
Continuous
 62
     7
100
AcDbCircle
 10
-509.3006667266
 20
-308.5945615111
 30
0.0
 40
1.599999999999907
  0
CIRCLE
  5
201
330
1F
100
AcDbEntity
  8
0
  6
Continuous
 62
     7
100
AcDbCircle
 10
-459.3006667266
 20
-308.5945615111
 30
0.0
 40
1.600000000000015
  0
CIRCLE
  5
202
330
1F
100
AcDbEntity
  8
0
  6
Continuous
 62
     7
100
AcDbCircle
 10
-409.3006667266
 20
-308.5945615111
 30
0.0
 40
1.600000000000015
  0
CIRCLE
  5
203
330
1F
100
AcDbEntity
  8
0
  6
Continuous
 62
     7
100
AcDbCircle
 10
-659.3006667266
 20
-258.5945615111
 30
0.0
 40
1.599999999999978
  0
CIRCLE
  5
204
330
1F
100
AcDbEntity
  8
0
  6
Continuous
 62
     7
100
AcDbCircle
 10
-609.3006667266
 20
-258.5945615111
 30
0.0
 40
1.600000000000086
  0
CIRCLE
  5
205
330
1F
100
AcDbEntity
  8
0
  6
Continuous
 62
     7
100
AcDbCircle
 10
-559.3006667266
 20
-258.5945615111
 30
0.0
 40
1.599999999999978
  0
CIRCLE
  5
206
330
1F
100
AcDbEntity
  8
0
  6
Continuous
 62
     7
100
AcDbCircle
 10
-509.3006667266
 20
-258.5945615111
 30
0.0
 40
1.600000000000032
  0
CIRCLE
  5
207
330
1F
100
AcDbEntity
  8
0
  6
Continuous
 62
     7
100
AcDbCircle
 10
-459.3006667266
 20
-258.5945615111
 30
0.0
 40
1.599999999999978
  0
CIRCLE
  5
208
330
1F
100
AcDbEntity
  8
0
  6
Continuous
 62
     7
100
AcDbCircle
 10
-409.3006667266
 20
-258.5945615111
 30
0.0
 40
1.599999999999978
  0
CIRCLE
  5
209
330
1F
100
AcDbEntity
  8
0
  6
Continuous
 62
     7
100
AcDbCircle
 10
-659.3006667266
 20
-208.5945615111
 30
0.0
 40
1.599999999999861
  0
CIRCLE
  5
20A
330
1F
100
AcDbEntity
  8
0
  6
Continuous
 62
     7
100
AcDbCircle
 10
-609.3006667266
 20
-208.5945615111
 30
0.0
 40
1.600000000000078
  0
CIRCLE
  5
20B
330
1F
100
AcDbEntity
  8
0
  6
Continuous
 62
     7
100
AcDbCircle
 10
-559.3006667266
 20
-208.5945615111
 30
0.0
 40
1.599999999999969
  0
CIRCLE
  5
20C
330
1F
100
AcDbEntity
  8
0
  6
Continuous
 62
     7
100
AcDbCircle
 10
-509.3006667266
 20
-208.5945615111
 30
0.0
 40
1.600000000000024
  0
CIRCLE
  5
20D
330
1F
100
AcDbEntity
  8
0
  6
Continuous
 62
     7
100
AcDbCircle
 10
-459.3006667266
 20
-208.5945615111
 30
0.0
 40
1.600000000000024
  0
CIRCLE
  5
20E
330
1F
100
AcDbEntity
  8
0
  6
Continuous
 62
     7
100
AcDbCircle
 10
-409.3006667266
 20
-208.5945615111
 30
0.0
 40
1.600000000000024
  0
CIRCLE
  5
20F
330
1F
100
AcDbEntity
  8
0
  6
Continuous
 62
     7
100
AcDbCircle
 10
-659.3006667266
 20
-158.5945615111
 30
0.0
 40
1.599999999999969
  0
CIRCLE
  5
210
330
1F
100
AcDbEntity
  8
0
  6
Continuous
 62
     7
100
AcDbCircle
 10
-609.3006667266
 20
-158.5945615111
 30
0.0
 40
1.599999999999969
  0
CIRCLE
  5
211
330
1F
100
AcDbEntity
  8
0
  6
Continuous
 62
     7
100
AcDbCircle
 10
-559.3006667266
 20
-158.5945615111
 30
0.0
 40
1.599999999999861
  0
CIRCLE
  5
212
330
1F
100
AcDbEntity
  8
0
  6
Continuous
 62
     7
100
AcDbCircle
 10
-509.3006667266
 20
-158.5945615111
 30
0.0
 40
1.600000000000024
  0
CIRCLE
  5
213
330
1F
100
AcDbEntity
  8
0
  6
Continuous
 62
     7
100
AcDbCircle
 10
-459.3006667266
 20
-158.5945615111
 30
0.0
 40
1.599999999999969
  0
CIRCLE
  5
214
330
1F
100
AcDbEntity
  8
0
  6
Continuous
 62
     7
100
AcDbCircle
 10
-409.3006667266
 20
-158.5945615111
 30
0.0
 40
1.599999999999969
  0
CIRCLE
  5
215
330
1F
100
AcDbEntity
  8
0
  6
Continuous
 62
     7
100
AcDbCircle
 10
-659.3006667266
 20
-108.5945615111
 30
0.0
 40
1.599999999999969
  0
CIRCLE
  5
216
330
1F
100
AcDbEntity
  8
0
  6
Continuous
 62
     7
100
AcDbCircle
 10
-609.3006667266
 20
-108.5945615111
 30
0.0
 40
1.600000000000078
  0
CIRCLE
  5
217
330
1F
100
AcDbEntity
  8
0
  6
Continuous
 62
     7
100
AcDbCircle
 10
-559.3006667266
 20
-108.5945615111
 30
0.0
 40
1.599999999999969
  0
CIRCLE
  5
218
330
1F
100
AcDbEntity
  8
0
  6
Continuous
 62
     7
100
AcDbCircle
 10
-509.3006667266
 20
-108.5945615111
 30
0.0
 40
1.599999999999915
  0
CIRCLE
  5
219
330
1F
100
AcDbEntity
  8
0
  6
Continuous
 62
     7
100
AcDbCircle
 10
-459.3006667266
 20
-108.5945615111
 30
0.0
 40
1.600000000000024
  0
CIRCLE
  5
21A
330
1F
100
AcDbEntity
  8
0
  6
Continuous
 62
     7
100
AcDbCircle
 10
-409.3006667266
 20
-108.5945615111
 30
0.0
 40
1.600000000000024
  0
CIRCLE
  5
21B
330
1F
100
AcDbEntity
  8
0
  6
Continuous
 62
     7
100
AcDbCircle
 10
-659.3006667266
 20
-58.5945615111
 30
0.0
 40
1.600000000000078
  0
CIRCLE
  5
21C
330
1F
100
AcDbEntity
  8
0
  6
Continuous
 62
     7
100
AcDbCircle
 10
-609.3006667266
 20
-58.5945615111
 30
0.0
 40
1.599999999999969
  0
CIRCLE
  5
21D
330
1F
100
AcDbEntity
  8
0
  6
Continuous
 62
     7
100
AcDbCircle
 10
-559.3006667266
 20
-58.5945615111
 30
0.0
 40
1.599999999999969
  0
CIRCLE
  5
21E
330
1F
100
AcDbEntity
  8
0
  6
Continuous
 62
     7
100
AcDbCircle
 10
-509.3006667266
 20
-58.5945615111
 30
0.0
 40
1.599999999999861
  0
CIRCLE
  5
21F
330
1F
100
AcDbEntity
  8
0
  6
Continuous
 62
     7
100
AcDbCircle
 10
-459.3006667266
 20
-58.5945615111
 30
0.0
 40
1.600000000000024
  0
CIRCLE
  5
220
330
1F
100
AcDbEntity
  8
0
  6
Continuous
 62
     7
100
AcDbCircle
 10
-409.3006667266
 20
-58.5945615111
 30
0.0
 40
1.599999999999969
  0
CIRCLE
  5
221
330
1F
100
AcDbEntity
  8
0
  6
Continuous
 62
     7
100
AcDbCircle
 10
-709.3006667266
 20
-458.5945615111
 30
0.0
 40
1.600000000000086
  0
CIRCLE
  5
222
330
1F
100
AcDbEntity
  8
0
  6
Continuous
 62
     7
100
AcDbCircle
 10
-709.3006667266
 20
-408.5945615111
 30
0.0
 40
1.600000000000103
  0
CIRCLE
  5
223
330
1F
100
AcDbEntity
  8
0
  6
Continuous
 62
     7
100
AcDbCircle
 10
-709.3006667266
 20
-358.5945615111
 30
0.0
 40
1.60000000000007
  0
CIRCLE
  5
224
330
1F
100
AcDbEntity
  8
0
  6
Continuous
 62
     7
100
AcDbCircle
 10
-709.3006667266
 20
-308.5945615111
 30
0.0
 40
1.599999999999961
  0
CIRCLE
  5
225
330
1F
100
AcDbEntity
  8
0
  6
Continuous
 62
     7
100
AcDbCircle
 10
-709.3006667266
 20
-258.5945615111
 30
0.0
 40
1.599999999999869
  0
CIRCLE
  5
226
330
1F
100
AcDbEntity
  8
0
  6
Continuous
 62
     7
100
AcDbCircle
 10
-709.3006667266
 20
-208.5945615111
 30
0.0
 40
1.599999999999969
  0
CIRCLE
  5
227
330
1F
100
AcDbEntity
  8
0
  6
Continuous
 62
     7
100
AcDbCircle
 10
-709.3006667266
 20
-158.5945615111
 30
0.0
 40
1.599999999999969
  0
CIRCLE
  5
228
330
1F
100
AcDbEntity
  8
0
  6
Continuous
 62
     7
100
AcDbCircle
 10
-709.3006667266
 20
-108.5945615111
 30
0.0
 40
1.599999999999969
  0
CIRCLE
  5
229
330
1F
100
AcDbEntity
  8
0
  6
Continuous
 62
     7
100
AcDbCircle
 10
-709.3006667266
 20
-58.5945615111
 30
0.0
 40
1.599999999999969
  0
CIRCLE
  5
22A
330
1F
100
AcDbEntity
  8
0
  6
Continuous
 62
     7
100
AcDbCircle
 10
-922.2763907051
 20
-194.5689003346
 30
0.0
 40
4.999999999999814
  0
CIRCLE
  5
22B
330
1F
100
AcDbEntity
  8
0
  6
Continuous
 62
     7
100
AcDbCircle
 10
-960.2763907051
 20
-194.5689003346
 30
0.0
 40
5.000000000000015
  0
CIRCLE
  5
22C
330
1F
100
AcDbEntity
  8
0
  6
Continuous
 62
     7
100
AcDbCircle
 10
-941.2763907051
 20
-194.5689003346
 30
0.0
 40
10.99999999999996
  0
ARC
  5
22D
330
1F
100
AcDbEntity
  8
0
  6
Continuous
 62
     7
100
AcDbCircle
 10
-963.2763907051
 20
-177.5689003346
 30
0.0
 40
5.0
100
AcDbArc
 50
90.0
 51
180.0
  0
ARC
  5
22E
330
1F
100
AcDbEntity
  8
0
  6
Continuous
 62
     7
100
AcDbCircle
 10
-919.2763907051
 20
-177.5689003346
 30
0.0
 40
5.0
100
AcDbArc
 50
0.0
 51
90.0
  0
CIRCLE
  5
22F
330
1F
100
AcDbEntity
  8
0
  6
Continuous
 62
     7
100
AcDbCircle
 10
-954.5084055895
 20
-222.3075584515
 30
0.0
 40
2.000000000000049
  0
CIRCLE
  5
230
330
1F
100
AcDbEntity
  8
0
  6
Continuous
 62
     7
100
AcDbCircle
 10
-928.5084055895
 20
-222.3075584515
 30
0.0
 40
2.000000000000049
  0
CIRCLE
  5
231
330
1F
100
AcDbEntity
  8
0
  6
Continuous
 62
     7
100
AcDbCircle
 10
-928.5084055895
 20
-252.8075584515
 30
0.0
 40
2.000000000000049
  0
CIRCLE
  5
232
330
1F
100
AcDbEntity
  8
0
  6
Continuous
 62
     7
100
AcDbCircle
 10
-954.5084055895
 20
-252.8075584515
 30
0.0
 40
2.000000000000049
  0
CIRCLE
  5
233
330
1F
100
AcDbEntity
  8
0
  6
Continuous
 62
     7
100
AcDbCircle
 10
-928.5084055895
 20
-294.2475584515
 30
0.0
 40
2.000000000000049
  0
CIRCLE
  5
234
330
1F
100
AcDbEntity
  8
0
  6
Continuous
 62
     7
100
AcDbCircle
 10
-954.5084055895
 20
-294.2475584515
 30
0.0
 40
2.000000000000049
  0
CIRCLE
  5
235
330
1F
100
AcDbEntity
  8
0
  6
Continuous
 62
     7
100
AcDbCircle
 10
-954.5084055895
 20
-324.7475584515
 30
0.0
 40
2.000000000000049
  0
CIRCLE
  5
236
330
1F
100
AcDbEntity
  8
0
  6
Continuous
 62
     7
100
AcDbCircle
 10
-928.5084055895
 20
-324.7475584515
 30
0.0
 40
2.000000000000049
  0
ARC
  5
237
330
1F
100
AcDbEntity
  8
0
  6
Continuous
 62
     7
100
AcDbCircle
 10
-1047.2725397995
 20
-101.2731012743
 30
0.0
 40
30.00000000000032
100
AcDbArc
 50
312.7688011892
 51
0.0
  0
ARC
  5
238
330
1F
100
AcDbEntity
  8
0
  6
Continuous
 62
     7
100
AcDbCircle
 10
-1109.2725397995
 20
-72.8933049459
 30
0.0
 40
30.00000000000004
100
AcDbArc
 50
314.246803843
 51
0.0
  0
ARC
  5
239
330
1F
100
AcDbEntity
  8
0
  6
Continuous
 62
     7
100
AcDbCircle
 10
-1059.2725397995
 20
-194.1058562871
 30
0.0
 40
30.00000000000013
100
AcDbArc
 50
132.7688011892
 51
180.0
  0
ARC
  5
23A
330
1F
100
AcDbEntity
  8
0
  6
Continuous
 62
     7
100
AcDbCircle
 10
-1139.2725397995
 20
-185.8737569946
 30
0.0
 40
30.00000000000205
100
AcDbArc
 50
134.246803843
 51
180.0
  0
ARC
  5
23B
330
1F
100
AcDbEntity
  8
0
  6
Continuous
 62
     7
100
AcDbCircle
 10
-1037.2725397995
 20
-45.5513639553
 30
0.0
 40
19.99999999999996
100
AcDbArc
 50
0.0
 51
90.0
  0
ARC
  5
23C
330
1F
100
AcDbEntity
  8
0
  6
Continuous
 62
     7
100
AcDbCircle
 10
-1059.2725397995
 20
-45.5513639553
 30
0.0
 40
20.00000000000023
100
AcDbArc
 50
90.0
 51
180.0
  0
ARC
  5
23D
330
1F
100
AcDbEntity
  8
0
  6
Continuous
 62
     7
100
AcDbCircle
 10
-1094.2725397995
 20
-228.2156979852
 30
0.0
 40
5.000000000000227
100
AcDbArc
 50
270.0
 51
0.0
  0
ARC
  5
23E
330
1F
100
AcDbEntity
  8
0
  6
Continuous
 62
     7
100
AcDbCircle
 10
-1164.2725397995
 20
-228.2156979852
 30
0.0
 40
5.0
100
AcDbArc
 50
180.0
 51
270.0
  0
CIRCLE
  5
23F
330
1F
100
AcDbEntity
  8
0
  6
Continuous
 62
     7
100
AcDbCircle
 10
-1162.2725397995
 20
-195.9656979852
 30
0.0
 40
2.099999999999932
  0
CIRCLE
  5
240
330
1F
100
AcDbEntity
  8
0
  6
Continuous
 62
     7
100
AcDbCircle
 10
-1136.2725397995
 20
-195.9656979852
 30
0.0
 40
2.099999999999932
  0
CIRCLE
  5
241
330
1F
100
AcDbEntity
  8
0
  6
Continuous
 62
     7
100
AcDbCircle
 10
-1136.2725397995
 20
-226.4656979852
 30
0.0
 40
2.09999999999994
  0
CIRCLE
  5
242
330
1F
100
AcDbEntity
  8
0
  6
Continuous
 62
     7
100
AcDbCircle
 10
-1162.2725397995
 20
-226.4656979852
 30
0.0
 40
2.09999999999994
  0
CIRCLE
  5
243
330
1F
100
AcDbEntity
  8
0
  6
Continuous
 62
     7
100
AcDbCircle
 10
-1096.2725397995
 20
-226.4656979852
 30
0.0
 40
2.09999999999994
  0
CIRCLE
  5
244
330
1F
100
AcDbEntity
  8
0
  6
Continuous
 62
     7
100
AcDbCircle
 10
-1122.2725397995
 20
-226.4656979852
 30
0.0
 40
2.100000000000375
  0
CIRCLE
  5
245
330
1F
100
AcDbEntity
  8
0
  6
Continuous
 62
     7
100
AcDbCircle
 10
-1122.2725397995
 20
-195.9656979852
 30
0.0
 40
2.100000000000366
  0
CIRCLE
  5
246
330
1F
100
AcDbEntity
  8
0
  6
Continuous
 62
     7
100
AcDbCircle
 10
-1096.2725397995
 20
-195.9656979852
 30
0.0
 40
2.099999999999932
  0
CIRCLE
  5
247
330
1F
100
AcDbEntity
  8
0
  6
Continuous
 62
     7
100
AcDbCircle
 10
-1048.2725397995
 20
-39.5513639553
 30
0.0
 40
5.999999999999912
  0
CIRCLE
  5
248
330
1F
100
AcDbEntity
  8
0
  6
Continuous
 62
     7
100
AcDbCircle
 10
-1048.2725397995
 20
-111.4913639553
 30
0.0
 40
5.999999999999927
  0
CIRCLE
  5
249
330
1F
100
AcDbEntity
  8
0
  6
Continuous
 62
     7
100
AcDbCircle
 10
-1048.2725397995
 20
-75.5213639553
 30
0.0
 40
10.99999999999972
  0
CIRCLE
  5
24A
330
1F
100
AcDbEntity
  8
0
  6
Continuous
 62
     7
100
AcDbCircle
 10
-1021.2725397995
 20
-101.2731012743
 30
0.0
 40
2.000000000000158
  0
CIRCLE
  5
24B
330
1F
100
AcDbEntity
  8
0
  6
Continuous
 62
     7
100
AcDbCircle
 10
-1021.2620873911
 20
-50.3713820318
 30
0.0
 40
2.000000000000048
  0
CIRCLE
  5
24C
330
1F
100
AcDbEntity
  8
0
  6
Continuous
 62
     7
100
AcDbCircle
 10
-1058.2725397995
 20
-39.5513639553
 30
0.0
 40
1.599999999999861
  0
CIRCLE
  5
24D
330
1F
100
AcDbEntity
  8
0
  6
Continuous
 62
     7
100
AcDbCircle
 10
-1058.2725397995
 20
-111.4913639553
 30
0.0
 40
1.600000000000295
  0
CIRCLE
  5
24E
330
1F
100
AcDbEntity
  8
0
  6
Continuous
 62
     7
100
AcDbCircle
 10
-1038.2725397995
 20
-39.5513639553
 30
0.0
 40
1.599999999999861
  0
CIRCLE
  5
24F
330
1F
100
AcDbEntity
  8
0
  6
Continuous
 62
     7
100
AcDbCircle
 10
-1038.2725397995
 20
-111.4913639553
 30
0.0
 40
1.599999999999861
  0
CIRCLE
  5
250
330
1F
100
AcDbEntity
  8
0
  6
Continuous
 62
     7
100
AcDbCircle
 10
-1021.2673135953
 20
-75.8222416531
 30
0.0
 40
1.999999999999702
  0
ARC
  5
251
330
1F
100
AcDbEntity
  8
0
  6
Continuous
 62
     7
100
AcDbCircle
 10
-956.1789406454
 20
-111.2789363576
 30
0.0
 40
30.0
100
AcDbArc
 50
312.7688011892
 51
0.0
  0
ARC
  5
252
330
1F
100
AcDbEntity
  8
0
  6
Continuous
 62
     7
100
AcDbCircle
 10
-1018.1789406454
 20
-82.9089379101
 30
0.0
 40
30.00000000000011
100
AcDbArc
 50
314.246803843
 51
0.0
  0
ARC
  5
253
330
1F
100
AcDbEntity
  8
0
  6
Continuous
 62
     7
100
AcDbCircle
 10
-968.1789406454
 20
-204.1116913704
 30
0.0
 40
30.0
100
AcDbArc
 50
132.7688011892
 51
180.0
  0
ARC
  5
254
330
1F
100
AcDbEntity
  8
0
  6
Continuous
 62
     7
100
AcDbCircle
 10
-1048.1789406454
 20
-195.8893899588
 30
0.0
 40
30.00000000000045
100
AcDbArc
 50
134.246803843
 51
180.0
  0
ARC
  5
255
330
1F
100
AcDbEntity
  8
0
  6
Continuous
 62
     7
100
AcDbCircle
 10
-946.1789406454
 20
-55.5669969195
 30
0.0
 40
20.00000000000002
100
AcDbArc
 50
0.0
 51
90.0
  0
ARC
  5
256
330
1F
100
AcDbEntity
  8
0
  6
Continuous
 62
     7
100
AcDbCircle
 10
-968.1789406454
 20
-55.5669969195
 30
0.0
 40
20.00000000000001
100
AcDbArc
 50
90.0
 51
180.0
  0
ARC
  5
257
330
1F
100
AcDbEntity
  8
0
  6
Continuous
 62
     7
100
AcDbCircle
 10
-1003.1789406454
 20
-238.2313309493
 30
0.0
 40
5.000000000000114
100
AcDbArc
 50
270.0
 51
0.0
  0
ARC
  5
258
330
1F
100
AcDbEntity
  8
0
  6
Continuous
 62
     7
100
AcDbCircle
 10
-1073.1789406454
 20
-238.2313309493
 30
0.0
 40
5.000000000000227
100
AcDbArc
 50
180.0
 51
270.0
  0
CIRCLE
  5
259
330
1F
100
AcDbEntity
  8
0
  6
Continuous
 62
     7
100
AcDbCircle
 10
-1071.1789406454
 20
-205.9813309493
 30
0.0
 40
2.099999999999923
  0
CIRCLE
  5
25A
330
1F
100
AcDbEntity
  8
0
  6
Continuous
 62
     7
100
AcDbCircle
 10
-1045.1789406454
 20
-205.9813309493
 30
0.0
 40
2.099999999999923
  0
CIRCLE
  5
25B
330
1F
100
AcDbEntity
  8
0
  6
Continuous
 62
     7
100
AcDbCircle
 10
-1045.1789406454
 20
-236.4813309493
 30
0.0
 40
2.09999999999994
  0
CIRCLE
  5
25C
330
1F
100
AcDbEntity
  8
0
  6
Continuous
 62
     7
100
AcDbCircle
 10
-1071.1789406454
 20
-236.4813309493
 30
0.0
 40
2.09999999999994
  0
CIRCLE
  5
25D
330
1F
100
AcDbEntity
  8
0
  6
Continuous
 62
     7
100
AcDbCircle
 10
-1005.1789406454
 20
-236.4813309493
 30
0.0
 40
2.100000000000157
  0
CIRCLE
  5
25E
330
1F
100
AcDbEntity
  8
0
  6
Continuous
 62
     7
100
AcDbCircle
 10
-1031.1789406454
 20
-236.4813309493
 30
0.0
 40
2.09999999999994
  0
CIRCLE
  5
25F
330
1F
100
AcDbEntity
  8
0
  6
Continuous
 62
     7
100
AcDbCircle
 10
-1031.1789406454
 20
-205.9813309493
 30
0.0
 40
2.099999999999923
  0
CIRCLE
  5
260
330
1F
100
AcDbEntity
  8
0
  6
Continuous
 62
     7
100
AcDbCircle
 10
-1005.1789406454
 20
-205.9813309493
 30
0.0
 40
2.100000000000141
  0
CIRCLE
  5
261
330
1F
100
AcDbEntity
  8
0
  6
Continuous
 62
     7
100
AcDbCircle
 10
-957.1789406454
 20
-49.5669969195
 30
0.0
 40
5.999999999999923
  0
CIRCLE
  5
262
330
1F
100
AcDbEntity
  8
0
  6
Continuous
 62
     7
100
AcDbCircle
 10
-957.1789406454
 20
-121.5069969195
 30
0.0
 40
6.000000000000136
  0
CIRCLE
  5
263
330
1F
100
AcDbEntity
  8
0
  6
Continuous
 62
     7
100
AcDbCircle
 10
-957.1789406454
 20
-85.5369969195
 30
0.0
 40
10.99999999999993
  0
CIRCLE
  5
264
330
1F
100
AcDbEntity
  8
0
  6
Continuous
 62
     7
100
AcDbCircle
 10
-972.6789406454
 20
-70.0369969195
 30
0.0
 40
1.599999999999973
  0
CIRCLE
  5
265
330
1F
100
AcDbEntity
  8
0
  6
Continuous
 62
     7
100
AcDbCircle
 10
-941.6789406454
 20
-70.0369969195
 30
0.0
 40
1.599999999999865
  0
CIRCLE
  5
266
330
1F
100
AcDbEntity
  8
0
  6
Continuous
 62
     7
100
AcDbCircle
 10
-941.6789406454
 20
-101.0369969195
 30
0.0
 40
1.600000000000103
  0
CIRCLE
  5
267
330
1F
100
AcDbEntity
  8
0
  6
Continuous
 62
     7
100
AcDbCircle
 10
-972.6789406454
 20
-101.0369969195
 30
0.0
 40
1.599999999999978
  0
CIRCLE
  5
268
330
1F
100
AcDbEntity
  8
0
  6
Continuous
 62
     7
100
AcDbCircle
 10
-930.1789406454
 20
-111.2789363576
 30
0.0
 40
1.999999999999937
  0
CIRCLE
  5
269
330
1F
100
AcDbEntity
  8
0
  6
Continuous
 62
     7
100
AcDbCircle
 10
-930.1684976916
 20
-60.3870447093
 30
0.0
 40
2.000000000000049
  0
CIRCLE
  5
26A
330
1F
100
AcDbEntity
  8
0
  6
Continuous
 62
     7
100
AcDbCircle
 10
-967.1789406454
 20
-49.5669969195
 30
0.0
 40
1.600000000000082
  0
CIRCLE
  5
26B
330
1F
100
AcDbEntity
  8
0
  6
Continuous
 62
     7
100
AcDbCircle
 10
-967.1789406454
 20
-121.5069969195
 30
0.0
 40
1.600000000000078
  0
CIRCLE
  5
26C
330
1F
100
AcDbEntity
  8
0
  6
Continuous
 62
     7
100
AcDbCircle
 10
-947.1789406454
 20
-49.5669969195
 30
0.0
 40
1.599999999999865
  0
CIRCLE
  5
26D
330
1F
100
AcDbEntity
  8
0
  6
Continuous
 62
     7
100
AcDbCircle
 10
-947.1789406454
 20
-121.5069969195
 30
0.0
 40
1.600000000000078
  0
CIRCLE
  5
26E
330
1F
100
AcDbEntity
  8
0
  6
Continuous
 62
     7
100
AcDbCircle
 10
-930.1737191685
 20
-85.8329905334
 30
0.0
 40
2.000000000000049
  0
LINE
  5
26F
330
1F
100
AcDbEntity
  8
0
  6
CENTERX2
 62
     7
100
AcDbLine
 10
-1594.4355792178
 20
-17.1678348998
 30
0.0
 11
-814.4355792178
 21
-17.1678348998
 31
0.0
  0
LINE
  5
270
330
1F
100
AcDbEntity
  8
0
  6
CENTERX2
 62
     7
100
AcDbLine
 10
-1594.4355792178
 20
-17.1678348998
 30
0.0
 11
-1594.4355792178
 21
-377.1678348998
 31
0.0
  0
LINE
  5
271
330
1F
100
AcDbEntity
  8
0
  6
CENTERX2
 62
     7
100
AcDbLine
 10
-1594.4355792178
 20
-377.1678348998
 30
0.0
 11
-814.4355792178
 21
-377.1678348998
 31
0.0
  0
LINE
  5
272
330
1F
100
AcDbEntity
  8
0
  6
CENTERX2
 62
     7
100
AcDbLine
 10
-814.4355792178
 20
-17.1678348998
 30
0.0
 11
-814.4355792178
 21
-377.1678348998
 31
0.0
  0
LINE
  5
2E1
330
1F
100
AcDbEntity
  8
0
  6
Continuous
 62
     7
100
AcDbLine
 10
-1587.9540813503
 20
-134.997443859
 30
0.0
 11
-1185.9540813503
 21
-134.997443859
 31
0.0
  0
LINE
  5
2E2
330
1F
100
AcDbEntity
  8
0
  6
Continuous
 62
     7
100
AcDbLine
 10
-1587.9540813503
 20
-134.997443859
 30
0.0
 11
-1587.9540813503
 21
-84.997443859
 31
0.0
  0
LINE
  5
2E3
330
1F
100
AcDbEntity
  8
0
  6
Continuous
 62
     7
100
AcDbLine
 10
-1587.9540813503
 20
-84.997443859
 30
0.0
 11
-1185.9540813503
 21
-84.997443859
 31
0.0
  0
LINE
  5
2E4
330
1F
100
AcDbEntity
  8
0
  6
Continuous
 62
     7
100
AcDbLine
 10
-1185.9540813503
 20
-134.997443859
 30
0.0
 11
-1185.9540813503
 21
-84.997443859
 31
0.0
  0
LINE
  5
2E5
330
1F
100
AcDbEntity
  8
0
  6
Continuous
 62
     7
100
AcDbLine
 10
-827.1000682756
 20
-358.5276374013
 30
0.0
 11
-827.1000682756
 21
-22.5276374013
 31
0.0
  0
LINE
  5
2E6
330
1F
100
AcDbEntity
  8
0
  6
Continuous
 62
     7
100
AcDbLine
 10
-827.1000682756
 20
-358.5276374013
 30
0.0
 11
-905.1000682756
 21
-358.5276374013
 31
0.0
  0
LINE
  5
2E7
330
1F
100
AcDbEntity
  8
0
  6
Continuous
 62
     7
100
AcDbLine
 10
-905.1000682756
 20
-358.5276374013
 30
0.0
 11
-905.1000682756
 21
-22.5276374013
 31
0.0
  0
LINE
  5
2E8
330
1F
100
AcDbEntity
  8
0
  6
Continuous
 62
     7
100
AcDbLine
 10
-827.1000682756
 20
-22.5276374013
 30
0.0
 11
-905.1000682756
 21
-22.5276374013
 31
0.0
  0
LINE
  5
2E9
330
1F
100
AcDbEntity
  8
0
  6
Continuous
 62
     7
100
AcDbLine
 10
-1587.9540813503
 20
-263.5655486985
 30
0.0
 11
-1185.9540813503
 21
-263.5655486985
 31
0.0
  0
LINE
  5
2EA
330
1F
100
AcDbEntity
  8
0
  6
Continuous
 62
     7
100
AcDbLine
 10
-1587.9540813503
 20
-263.5655486985
 30
0.0
 11
-1587.9540813503
 21
-213.5655486985
 31
0.0
  0
LINE
  5
2EB
330
1F
100
AcDbEntity
  8
0
  6
Continuous
 62
     7
100
AcDbLine
 10
-1587.9540813503
 20
-213.5655486985
 30
0.0
 11
-1185.9540813503
 21
-213.5655486985
 31
0.0
  0
LINE
  5
2EC
330
1F
100
AcDbEntity
  8
0
  6
Continuous
 62
     7
100
AcDbLine
 10
-1185.9540813503
 20
-263.5655486985
 30
0.0
 11
-1185.9540813503
 21
-213.5655486985
 31
0.0
  0
LINE
  5
2ED
330
1F
100
AcDbEntity
  8
0
  6
Continuous
 62
     7
100
AcDbLine
 10
-1587.9540813503
 20
-28.2799133873
 30
0.0
 11
-1087.9540813503
 21
-28.2799133873
 31
0.0
  0
LINE
  5
2EE
330
1F
100
AcDbEntity
  8
0
  6
Continuous
 62
     7
100
AcDbLine
 10
-1587.9540813503
 20
-28.2799133873
 30
0.0
 11
-1587.9540813503
 21
-78.2799133873
 31
0.0
  0
LINE
  5
2EF
330
1F
100
AcDbEntity
  8
0
  6
Continuous
 62
     7
100
AcDbLine
 10
-1587.9540813503
 20
-78.2799133873
 30
0.0
 11
-1087.9540813503
 21
-78.2799133873
 31
0.0
  0
LINE
  5
2F0
330
1F
100
AcDbEntity
  8
0
  6
Continuous
 62
     7
100
AcDbLine
 10
-1087.9540813503
 20
-28.2799133873
 30
0.0
 11
-1087.9540813503
 21
-78.2799133873
 31
0.0
  0
LINE
  5
2F1
330
1F
100
AcDbEntity
  8
0
  6
Continuous
 62
     7
100
AcDbLine
 10
-1587.9540813503
 20
-270.34501485
 30
0.0
 11
-1087.9540813503
 21
-270.34501485
 31
0.0
  0
LINE
  5
2F2
330
1F
100
AcDbEntity
  8
0
  6
Continuous
 62
     7
100
AcDbLine
 10
-1587.9540813503
 20
-270.34501485
 30
0.0
 11
-1587.9540813503
 21
-320.34501485
 31
0.0
  0
LINE
  5
2F3
330
1F
100
AcDbEntity
  8
0
  6
Continuous
 62
     7
100
AcDbLine
 10
-1587.9540813503
 20
-320.34501485
 30
0.0
 11
-1087.9540813503
 21
-320.34501485
 31
0.0
  0
LINE
  5
2F4
330
1F
100
AcDbEntity
  8
0
  6
Continuous
 62
     7
100
AcDbLine
 10
-1087.9540813503
 20
-270.34501485
 30
0.0
 11
-1087.9540813503
 21
-320.34501485
 31
0.0
  0
LINE
  5
2F5
330
1F
100
AcDbEntity
  8
0
  6
Continuous
 62
     7
100
AcDbLine
 10
-1587.9540813503
 20
-206.564199549
 30
0.0
 11
-1203.9540813503
 21
-206.564199549
 31
0.0
  0
LINE
  5
2F6
330
1F
100
AcDbEntity
  8
0
  6
Continuous
 62
     7
100
AcDbLine
 10
-1587.9540813503
 20
-206.564199549
 30
0.0
 11
-1587.9540813503
 21
-142.564199549
 31
0.0
  0
LINE
  5
2F7
330
1F
100
AcDbEntity
  8
0
  6
Continuous
 62
     7
100
AcDbLine
 10
-1587.9540813503
 20
-142.564199549
 30
0.0
 11
-1203.9540813503
 21
-142.564199549
 31
0.0
  0
LINE
  5
2F8
330
1F
100
AcDbEntity
  8
0
  6
Continuous
 62
     7
100
AcDbLine
 10
-1203.9540813503
 20
-206.564199549
 30
0.0
 11
-1203.9540813503
 21
-142.564199549
 31
0.0
  0
LINE
  5
2F9
330
1F
100
AcDbEntity
  8
0
  6
Continuous
 62
     7
100
AcDbLine
 10
-1143.3650562947
 20
-250.9462178922
 30
0.0
 11
-1141.7167028389
 21
-250.9462178922
 31
0.0
  0
LINE
  5
2FA
330
1F
100
AcDbEntity
  8
0
  6
Continuous
 62
     7
100
AcDbLine
 10
-1143.3650562947
 20
-257.9462178922
 30
0.0
 11
-1141.7167028389
 21
-257.9462178922
 31
0.0
  0
LINE
  5
2FB
330
1F
100
AcDbEntity
  8
0
  6
Continuous
 62
     7
100
AcDbLine
 10
-1125.0134097505
 20
-250.9462178922
 30
0.0
 11
-1123.3650562947
 21
-250.9462178922
 31
0.0
  0
LINE
  5
2FC
330
1F
100
AcDbEntity
  8
0
  6
Continuous
 62
     7
100
AcDbLine
 10
-1125.0134097505
 20
-257.9462178922
 30
0.0
 11
-1123.3650562947
 21
-257.9462178922
 31
0.0
  0
LINE
  5
2FD
330
1F
100
AcDbEntity
  8
0
  6
Continuous
 62
     7
100
AcDbLine
 10
-1134.3650562947
 20
-241.5301381091
 30
0.0
 11
-1134.3650562947
 21
-248.5301381091
 31
0.0
  0
LINE
  5
2FE
330
1F
100
AcDbEntity
  8
0
  6
Continuous
 62
     7
100
AcDbLine
 10
-1138.7502211018
 20
-248.5301381091
 30
0.0
 11
-1138.8098314174
 21
-248.5301381091
 31
0.0
  0
LINE
  5
2FF
330
1F
100
AcDbEntity
  8
0
  6
Continuous
 62
     7
100
AcDbLine
 10
-1132.3650562947
 20
-241.5301381091
 30
0.0
 11
-1132.3650562947
 21
-248.5301381091
 31
0.0
  0
LINE
  5
300
330
1F
100
AcDbEntity
  8
0
  6
Continuous
 62
     7
100
AcDbLine
 10
-1132.3650562947
 20
-241.5301381091
 30
0.0
 11
-1127.920281172
 21
-241.5301381091
 31
0.0
  0
LINE
  5
301
330
1F
100
AcDbEntity
  8
0
  6
Continuous
 62
     7
100
AcDbLine
 10
-1134.3650562947
 20
-241.5301381091
 30
0.0
 11
-1138.8098314174
 21
-241.5301381091
 31
0.0
  0
LINE
  5
302
330
1F
100
AcDbEntity
  8
0
  6
Continuous
 62
     7
100
AcDbLine
 10
-1138.8098314174
 20
-248.5301381091
 30
0.0
 11
-1138.8098314174
 21
-241.5301381091
 31
0.0
  0
LINE
  5
303
330
1F
100
AcDbEntity
  8
0
  6
Continuous
 62
     7
100
AcDbLine
 10
-1127.920281172
 20
-241.5301381091
 30
0.0
 11
-1127.920281172
 21
-248.584953194
 31
0.0
  0
LINE
  5
304
330
1F
100
AcDbEntity
  8
0
  6
Continuous
 62
     7
100
AcDbLine
 10
-1076.8798197
 20
-309.3825054552
 30
0.0
 11
-1075.2314662443
 21
-309.3825054552
 31
0.0
  0
LINE
  5
305
330
1F
100
AcDbEntity
  8
0
  6
Continuous
 62
     7
100
AcDbLine
 10
-1076.8798197
 20
-316.3825054552
 30
0.0
 11
-1075.2314662443
 21
-316.3825054552
 31
0.0
  0
LINE
  5
306
330
1F
100
AcDbEntity
  8
0
  6
Continuous
 62
     7
100
AcDbLine
 10
-1058.5281731558
 20
-309.3825054552
 30
0.0
 11
-1056.8798197
 21
-309.3825054552
 31
0.0
  0
LINE
  5
307
330
1F
100
AcDbEntity
  8
0
  6
Continuous
 62
     7
100
AcDbLine
 10
-1058.5281731558
 20
-316.3825054552
 30
0.0
 11
-1056.8798197
 21
-316.3825054552
 31
0.0
  0
LINE
  5
308
330
1F
100
AcDbEntity
  8
0
  6
Continuous
 62
     7
100
AcDbLine
 10
-1067.8798197
 20
-299.9664256721
 30
0.0
 11
-1067.8798197
 21
-306.9664256721
 31
0.0
  0
LINE
  5
309
330
1F
100
AcDbEntity
  8
0
  6
Continuous
 62
     7
100
AcDbLine
 10
-1072.2649845072
 20
-306.9664256721
 30
0.0
 11
-1072.3245948228
 21
-306.9664256721
 31
0.0
  0
LINE
  5
30A
330
1F
100
AcDbEntity
  8
0
  6
Continuous
 62
     7
100
AcDbLine
 10
-1065.8798197
 20
-299.9664256721
 30
0.0
 11
-1065.8798197
 21
-306.9664256721
 31
0.0
  0
LINE
  5
30B
330
1F
100
AcDbEntity
  8
0
  6
Continuous
 62
     7
100
AcDbLine
 10
-1065.8798197
 20
-299.9664256721
 30
0.0
 11
-1061.4350445773
 21
-299.9664256721
 31
0.0
  0
LINE
  5
30C
330
1F
100
AcDbEntity
  8
0
  6
Continuous
 62
     7
100
AcDbLine
 10
-1067.8798197
 20
-299.9664256721
 30
0.0
 11
-1072.3245948228
 21
-299.9664256721
 31
0.0
  0
LINE
  5
30D
330
1F
100
AcDbEntity
  8
0
  6
Continuous
 62
     7
100
AcDbLine
 10
-1072.3245948228
 20
-306.9664256721
 30
0.0
 11
-1072.3245948228
 21
-299.9664256721
 31
0.0
  0
LINE
  5
30E
330
1F
100
AcDbEntity
  8
0
  6
Continuous
 62
     7
100
AcDbLine
 10
-1061.4350445773
 20
-299.9664256721
 30
0.0
 11
-1061.4350445773
 21
-307.0212407569
 31
0.0
  0
LINE
  5
30F
330
1F
100
AcDbEntity
  8
0
  6
Continuous
 62
     7
100
AcDbLine
 10
-1078.555392079
 20
-259.7118322597
 30
0.0
 11
-1076.9070386233
 21
-259.7118322597
 31
0.0
  0
LINE
  5
310
330
1F
100
AcDbEntity
  8
0
  6
Continuous
 62
     7
100
AcDbLine
 10
-1078.555392079
 20
-266.7118322597
 30
0.0
 11
-1076.9070386233
 21
-266.7118322597
 31
0.0
  0
LINE
  5
311
330
1F
100
AcDbEntity
  8
0
  6
Continuous
 62
     7
100
AcDbLine
 10
-1060.2037455348
 20
-259.7118322597
 30
0.0
 11
-1058.555392079
 21
-259.7118322597
 31
0.0
  0
LINE
  5
312
330
1F
100
AcDbEntity
  8
0
  6
Continuous
 62
     7
100
AcDbLine
 10
-1060.2037455348
 20
-266.7118322597
 30
0.0
 11
-1058.555392079
 21
-266.7118322597
 31
0.0
  0
LINE
  5
313
330
1F
100
AcDbEntity
  8
0
  6
Continuous
 62
     7
100
AcDbLine
 10
-1069.555392079
 20
-250.2957524766
 30
0.0
 11
-1069.555392079
 21
-257.2957524766
 31
0.0
  0
LINE
  5
314
330
1F
100
AcDbEntity
  8
0
  6
Continuous
 62
     7
100
AcDbLine
 10
-1073.9405568862
 20
-257.2957524766
 30
0.0
 11
-1074.0001672018
 21
-257.2957524766
 31
0.0
  0
LINE
  5
315
330
1F
100
AcDbEntity
  8
0
  6
Continuous
 62
     7
100
AcDbLine
 10
-1067.555392079
 20
-250.2957524766
 30
0.0
 11
-1067.555392079
 21
-257.2957524766
 31
0.0
  0
LINE
  5
316
330
1F
100
AcDbEntity
  8
0
  6
Continuous
 62
     7
100
AcDbLine
 10
-1067.555392079
 20
-250.2957524766
 30
0.0
 11
-1063.1106169563
 21
-250.2957524766
 31
0.0
  0
LINE
  5
317
330
1F
100
AcDbEntity
  8
0
  6
Continuous
 62
     7
100
AcDbLine
 10
-1069.555392079
 20
-250.2957524766
 30
0.0
 11
-1074.0001672018
 21
-250.2957524766
 31
0.0
  0
LINE
  5
318
330
1F
100
AcDbEntity
  8
0
  6
Continuous
 62
     7
100
AcDbLine
 10
-1074.0001672018
 20
-257.2957524766
 30
0.0
 11
-1074.0001672018
 21
-250.2957524766
 31
0.0
  0
LINE
  5
319
330
1F
100
AcDbEntity
  8
0
  6
Continuous
 62
     7
100
AcDbLine
 10
-1063.1106169563
 20
-250.2957524766
 30
0.0
 11
-1063.1106169563
 21
-257.3505675614
 31
0.0
  0
LINE
  5
31A
330
1F
100
AcDbEntity
  8
0
  6
Continuous
 62
     7
100
AcDbLine
 10
-1174.6670831957
 20
-251.2774562721
 30
0.0
 11
-1173.01872974
 21
-251.2774562721
 31
0.0
  0
LINE
  5
31B
330
1F
100
AcDbEntity
  8
0
  6
Continuous
 62
     7
100
AcDbLine
 10
-1174.6670831957
 20
-258.2774562721
 30
0.0
 11
-1173.01872974
 21
-258.2774562721
 31
0.0
  0
LINE
  5
31C
330
1F
100
AcDbEntity
  8
0
  6
Continuous
 62
     7
100
AcDbLine
 10
-1156.3154366515
 20
-251.2774562721
 30
0.0
 11
-1154.6670831957
 21
-251.2774562721
 31
0.0
  0
LINE
  5
31D
330
1F
100
AcDbEntity
  8
0
  6
Continuous
 62
     7
100
AcDbLine
 10
-1156.3154366515
 20
-258.2774562721
 30
0.0
 11
-1154.6670831957
 21
-258.2774562721
 31
0.0
  0
LINE
  5
31E
330
1F
100
AcDbEntity
  8
0
  6
Continuous
 62
     7
100
AcDbLine
 10
-1165.6670831957
 20
-241.861376489
 30
0.0
 11
-1165.6670831957
 21
-248.861376489
 31
0.0
  0
LINE
  5
31F
330
1F
100
AcDbEntity
  8
0
  6
Continuous
 62
     7
100
AcDbLine
 10
-1170.0522480029
 20
-248.861376489
 30
0.0
 11
-1170.1118583185
 21
-248.861376489
 31
0.0
  0
LINE
  5
320
330
1F
100
AcDbEntity
  8
0
  6
Continuous
 62
     7
100
AcDbLine
 10
-1163.6670831957
 20
-241.861376489
 30
0.0
 11
-1163.6670831957
 21
-248.861376489
 31
0.0
  0
LINE
  5
321
330
1F
100
AcDbEntity
  8
0
  6
Continuous
 62
     7
100
AcDbLine
 10
-1163.6670831957
 20
-241.861376489
 30
0.0
 11
-1159.222308073
 21
-241.861376489
 31
0.0
  0
LINE
  5
322
330
1F
100
AcDbEntity
  8
0
  6
Continuous
 62
     7
100
AcDbLine
 10
-1165.6670831957
 20
-241.861376489
 30
0.0
 11
-1170.1118583185
 21
-241.861376489
 31
0.0
  0
LINE
  5
323
330
1F
100
AcDbEntity
  8
0
  6
Continuous
 62
     7
100
AcDbLine
 10
-1170.1118583185
 20
-248.861376489
 30
0.0
 11
-1170.1118583185
 21
-241.861376489
 31
0.0
  0
LINE
  5
324
330
1F
100
AcDbEntity
  8
0
  6
Continuous
 62
     7
100
AcDbLine
 10
-1159.222308073
 20
-241.861376489
 30
0.0
 11
-1159.222308073
 21
-248.9161915739
 31
0.0
  0
LINE
  5
325
330
1F
100
AcDbEntity
  8
0
  6
Continuous
 62
     7
100
AcDbLine
 10
-1176.4208788177
 20
-138.3462471945
 30
0.0
 11
-1174.772525362
 21
-138.3462471945
 31
0.0
  0
LINE
  5
326
330
1F
100
AcDbEntity
  8
0
  6
Continuous
 62
     7
100
AcDbLine
 10
-1176.4208788177
 20
-145.3462471945
 30
0.0
 11
-1174.772525362
 21
-145.3462471945
 31
0.0
  0
LINE
  5
327
330
1F
100
AcDbEntity
  8
0
  6
Continuous
 62
     7
100
AcDbLine
 10
-1158.0692322735
 20
-138.3462471945
 30
0.0
 11
-1156.4208788177
 21
-138.3462471945
 31
0.0
  0
LINE
  5
328
330
1F
100
AcDbEntity
  8
0
  6
Continuous
 62
     7
100
AcDbLine
 10
-1158.0692322735
 20
-145.3462471945
 30
0.0
 11
-1156.4208788177
 21
-145.3462471945
 31
0.0
  0
LINE
  5
329
330
1F
100
AcDbEntity
  8
0
  6
Continuous
 62
     7
100
AcDbLine
 10
-1167.4208788177
 20
-128.9301674114
 30
0.0
 11
-1167.4208788177
 21
-135.9301674114
 31
0.0
  0
LINE
  5
32A
330
1F
100
AcDbEntity
  8
0
  6
Continuous
 62
     7
100
AcDbLine
 10
-1171.8060436248
 20
-135.9301674114
 30
0.0
 11
-1171.8656539404
 21
-135.9301674114
 31
0.0
  0
LINE
  5
32B
330
1F
100
AcDbEntity
  8
0
  6
Continuous
 62
     7
100
AcDbLine
 10
-1165.4208788177
 20
-128.9301674114
 30
0.0
 11
-1165.4208788177
 21
-135.9301674114
 31
0.0
  0
LINE
  5
32C
330
1F
100
AcDbEntity
  8
0
  6
Continuous
 62
     7
100
AcDbLine
 10
-1165.4208788177
 20
-128.9301674114
 30
0.0
 11
-1160.976103695
 21
-128.9301674114
 31
0.0
  0
LINE
  5
32D
330
1F
100
AcDbEntity
  8
0
  6
Continuous
 62
     7
100
AcDbLine
 10
-1167.4208788177
 20
-128.9301674114
 30
0.0
 11
-1171.8656539404
 21
-128.9301674114
 31
0.0
  0
LINE
  5
32E
330
1F
100
AcDbEntity
  8
0
  6
Continuous
 62
     7
100
AcDbLine
 10
-1171.8656539404
 20
-135.9301674114
 30
0.0
 11
-1171.8656539404
 21
-128.9301674114
 31
0.0
  0
LINE
  5
32F
330
1F
100
AcDbEntity
  8
0
  6
Continuous
 62
     7
100
AcDbLine
 10
-1160.976103695
 20
-128.9301674114
 30
0.0
 11
-1160.976103695
 21
-135.9849824962
 31
0.0
  0
LINE
  5
330
330
1F
100
AcDbEntity
  8
0
  6
Continuous
 62
     7
100
AcDbLine
 10
-1111.7317910138
 20
-250.7805987023
 30
0.0
 11
-1110.083437558
 21
-250.7805987023
 31
0.0
  0
LINE
  5
331
330
1F
100
AcDbEntity
  8
0
  6
Continuous
 62
     7
100
AcDbLine
 10
-1111.7317910138
 20
-257.7805987023
 30
0.0
 11
-1110.083437558
 21
-257.7805987023
 31
0.0
  0
LINE
  5
332
330
1F
100
AcDbEntity
  8
0
  6
Continuous
 62
     7
100
AcDbLine
 10
-1093.3801444695
 20
-250.7805987023
 30
0.0
 11
-1091.7317910138
 21
-250.7805987023
 31
0.0
  0
LINE
  5
333
330
1F
100
AcDbEntity
  8
0
  6
Continuous
 62
     7
100
AcDbLine
 10
-1093.3801444695
 20
-257.7805987023
 30
0.0
 11
-1091.7317910138
 21
-257.7805987023
 31
0.0
  0
LINE
  5
334
330
1F
100
AcDbEntity
  8
0
  6
Continuous
 62
     7
100
AcDbLine
 10
-1102.7317910138
 20
-241.3645189192
 30
0.0
 11
-1102.7317910138
 21
-248.3645189192
 31
0.0
  0
LINE
  5
335
330
1F
100
AcDbEntity
  8
0
  6
Continuous
 62
     7
100
AcDbLine
 10
-1107.1169558209
 20
-248.3645189192
 30
0.0
 11
-1107.1765661365
 21
-248.3645189192
 31
0.0
  0
LINE
  5
336
330
1F
100
AcDbEntity
  8
0
  6
Continuous
 62
     7
100
AcDbLine
 10
-1100.7317910138
 20
-241.3645189192
 30
0.0
 11
-1100.7317910138
 21
-248.3645189192
 31
0.0
  0
LINE
  5
337
330
1F
100
AcDbEntity
  8
0
  6
Continuous
 62
     7
100
AcDbLine
 10
-1100.7317910138
 20
-241.3645189192
 30
0.0
 11
-1096.287015891
 21
-241.3645189192
 31
0.0
  0
LINE
  5
338
330
1F
100
AcDbEntity
  8
0
  6
Continuous
 62
     7
100
AcDbLine
 10
-1102.7317910138
 20
-241.3645189192
 30
0.0
 11
-1107.1765661365
 21
-241.3645189192
 31
0.0
  0
LINE
  5
339
330
1F
100
AcDbEntity
  8
0
  6
Continuous
 62
     7
100
AcDbLine
 10
-1107.1765661365
 20
-248.3645189192
 30
0.0
 11
-1107.1765661365
 21
-241.3645189192
 31
0.0
  0
LINE
  5
33A
330
1F
100
AcDbEntity
  8
0
  6
Continuous
 62
     7
100
AcDbLine
 10
-1096.287015891
 20
-241.3645189192
 30
0.0
 11
-1096.287015891
 21
-248.419334004
 31
0.0
  0
LINE
  5
33B
330
1F
100
AcDbEntity
  8
0
  6
Continuous
 62
     7
100
AcDbLine
 10
-1133.0439425338
 20
-95.2825017863
 30
0.0
 11
-1131.3955890781
 21
-95.2825017863
 31
0.0
  0
LINE
  5
33C
330
1F
100
AcDbEntity
  8
0
  6
Continuous
 62
     7
100
AcDbLine
 10
-1133.0439425338
 20
-102.2825017863
 30
0.0
 11
-1131.3955890781
 21
-102.2825017863
 31
0.0
  0
LINE
  5
33D
330
1F
100
AcDbEntity
  8
0
  6
Continuous
 62
     7
100
AcDbLine
 10
-1114.6922959896
 20
-95.2825017863
 30
0.0
 11
-1113.0439425338
 21
-95.2825017863
 31
0.0
  0
LINE
  5
33E
330
1F
100
AcDbEntity
  8
0
  6
Continuous
 62
     7
100
AcDbLine
 10
-1114.6922959896
 20
-102.2825017863
 30
0.0
 11
-1113.0439425338
 21
-102.2825017863
 31
0.0
  0
LINE
  5
33F
330
1F
100
AcDbEntity
  8
0
  6
Continuous
 62
     7
100
AcDbLine
 10
-1124.0439425338
 20
-85.8664220032
 30
0.0
 11
-1124.0439425338
 21
-92.8664220032
 31
0.0
  0
LINE
  5
340
330
1F
100
AcDbEntity
  8
0
  6
Continuous
 62
     7
100
AcDbLine
 10
-1128.429107341
 20
-92.8664220032
 30
0.0
 11
-1128.4887176566
 21
-92.8664220032
 31
0.0
  0
LINE
  5
341
330
1F
100
AcDbEntity
  8
0
  6
Continuous
 62
     7
100
AcDbLine
 10
-1122.0439425338
 20
-85.8664220032
 30
0.0
 11
-1122.0439425338
 21
-92.8664220032
 31
0.0
  0
LINE
  5
342
330
1F
100
AcDbEntity
  8
0
  6
Continuous
 62
     7
100
AcDbLine
 10
-1122.0439425338
 20
-85.8664220032
 30
0.0
 11
-1117.5991674111
 21
-85.8664220032
 31
0.0
  0
LINE
  5
343
330
1F
100
AcDbEntity
  8
0
  6
Continuous
 62
     7
100
AcDbLine
 10
-1124.0439425338
 20
-85.8664220032
 30
0.0
 11
-1128.4887176566
 21
-85.8664220032
 31
0.0
  0
LINE
  5
344
330
1F
100
AcDbEntity
  8
0
  6
Continuous
 62
     7
100
AcDbLine
 10
-1128.4887176566
 20
-92.8664220032
 30
0.0
 11
-1128.4887176566
 21
-85.8664220032
 31
0.0
  0
LINE
  5
345
330
1F
100
AcDbEntity
  8
0
  6
Continuous
 62
     7
100
AcDbLine
 10
-1117.5991674111
 20
-85.8664220032
 30
0.0
 11
-1117.5991674111
 21
-92.921237088
 31
0.0
  0
LINE
  5
346
330
1F
100
AcDbEntity
  8
0
  6
Continuous
 62
     7
100
AcDbLine
 10
-1174.8549244392
 20
-98.2578151054
 30
0.0
 11
-1173.2065709835
 21
-98.2578151054
 31
0.0
  0
LINE
  5
347
330
1F
100
AcDbEntity
  8
0
  6
Continuous
 62
     7
100
AcDbLine
 10
-1174.8549244392
 20
-105.2578151054
 30
0.0
 11
-1173.2065709835
 21
-105.2578151054
 31
0.0
  0
LINE
  5
348
330
1F
100
AcDbEntity
  8
0
  6
Continuous
 62
     7
100
AcDbLine
 10
-1156.503277895
 20
-98.2578151054
 30
0.0
 11
-1154.8549244392
 21
-98.2578151054
 31
0.0
  0
LINE
  5
349
330
1F
100
AcDbEntity
  8
0
  6
Continuous
 62
     7
100
AcDbLine
 10
-1156.503277895
 20
-105.2578151054
 30
0.0
 11
-1154.8549244392
 21
-105.2578151054
 31
0.0
  0
LINE
  5
34A
330
1F
100
AcDbEntity
  8
0
  6
Continuous
 62
     7
100
AcDbLine
 10
-1165.8549244392
 20
-88.8417353223
 30
0.0
 11
-1165.8549244392
 21
-95.8417353223
 31
0.0
  0
LINE
  5
34B
330
1F
100
AcDbEntity
  8
0
  6
Continuous
 62
     7
100
AcDbLine
 10
-1170.2400892464
 20
-95.8417353223
 30
0.0
 11
-1170.299699562
 21
-95.8417353223
 31
0.0
  0
LINE
  5
34C
330
1F
100
AcDbEntity
  8
0
  6
Continuous
 62
     7
100
AcDbLine
 10
-1163.8549244392
 20
-88.8417353223
 30
0.0
 11
-1163.8549244392
 21
-95.8417353223
 31
0.0
  0
LINE
  5
34D
330
1F
100
AcDbEntity
  8
0
  6
Continuous
 62
     7
100
AcDbLine
 10
-1163.8549244392
 20
-88.8417353223
 30
0.0
 11
-1159.4101493165
 21
-88.8417353223
 31
0.0
  0
LINE
  5
34E
330
1F
100
AcDbEntity
  8
0
  6
Continuous
 62
     7
100
AcDbLine
 10
-1165.8549244392
 20
-88.8417353223
 30
0.0
 11
-1170.299699562
 21
-88.8417353223
 31
0.0
  0
LINE
  5
34F
330
1F
100
AcDbEntity
  8
0
  6
Continuous
 62
     7
100
AcDbLine
 10
-1170.299699562
 20
-95.8417353223
 30
0.0
 11
-1170.299699562
 21
-88.8417353223
 31
0.0
  0
LINE
  5
350
330
1F
100
AcDbEntity
  8
0
  6
Continuous
 62
     7
100
AcDbLine
 10
-1159.4101493165
 20
-88.8417353223
 30
0.0
 11
-1159.4101493165
 21
-95.8965504071
 31
0.0
  0
LINE
  5
351
330
1F
100
AcDbEntity
  8
0
  6
Continuous
 62
     7
100
AcDbLine
 10
-1154.0277312054
 20
-119.7113900906
 30
0.0
 11
-1152.3793777497
 21
-119.7113900906
 31
0.0
  0
LINE
  5
352
330
1F
100
AcDbEntity
  8
0
  6
Continuous
 62
     7
100
AcDbLine
 10
-1154.0277312054
 20
-126.7113900906
 30
0.0
 11
-1152.3793777497
 21
-126.7113900906
 31
0.0
  0
LINE
  5
353
330
1F
100
AcDbEntity
  8
0
  6
Continuous
 62
     7
100
AcDbLine
 10
-1135.6760846612
 20
-119.7113900906
 30
0.0
 11
-1134.0277312054
 21
-119.7113900906
 31
0.0
  0
LINE
  5
354
330
1F
100
AcDbEntity
  8
0
  6
Continuous
 62
     7
100
AcDbLine
 10
-1135.6760846612
 20
-126.7113900906
 30
0.0
 11
-1134.0277312054
 21
-126.7113900906
 31
0.0
  0
LINE
  5
355
330
1F
100
AcDbEntity
  8
0
  6
Continuous
 62
     7
100
AcDbLine
 10
-1145.0277312054
 20
-110.2953103075
 30
0.0
 11
-1145.0277312054
 21
-117.2953103075
 31
0.0
  0
LINE
  5
356
330
1F
100
AcDbEntity
  8
0
  6
Continuous
 62
     7
100
AcDbLine
 10
-1149.4128960126
 20
-117.2953103075
 30
0.0
 11
-1149.4725063282
 21
-117.2953103075
 31
0.0
  0
LINE
  5
357
330
1F
100
AcDbEntity
  8
0
  6
Continuous
 62
     7
100
AcDbLine
 10
-1143.0277312054
 20
-110.2953103075
 30
0.0
 11
-1143.0277312054
 21
-117.2953103075
 31
0.0
  0
LINE
  5
358
330
1F
100
AcDbEntity
  8
0
  6
Continuous
 62
     7
100
AcDbLine
 10
-1143.0277312054
 20
-110.2953103075
 30
0.0
 11
-1138.5829560827
 21
-110.2953103075
 31
0.0
  0
LINE
  5
359
330
1F
100
AcDbEntity
  8
0
  6
Continuous
 62
     7
100
AcDbLine
 10
-1145.0277312054
 20
-110.2953103075
 30
0.0
 11
-1149.4725063282
 21
-110.2953103075
 31
0.0
  0
LINE
  5
35A
330
1F
100
AcDbEntity
  8
0
  6
Continuous
 62
     7
100
AcDbLine
 10
-1149.4725063282
 20
-117.2953103075
 30
0.0
 11
-1149.4725063282
 21
-110.2953103075
 31
0.0
  0
LINE
  5
35B
330
1F
100
AcDbEntity
  8
0
  6
Continuous
 62
     7
100
AcDbLine
 10
-1138.5829560827
 20
-110.2953103075
 30
0.0
 11
-1138.5829560827
 21
-117.3501253923
 31
0.0
  0
LINE
  5
35C
330
1F
100
AcDbEntity
  8
0
  6
Continuous
 62
     7
100
AcDbLine
 10
-1061.823632766
 20
-282.0583143528
 30
0.0
 11
-1060.1752793103
 21
-282.0583143528
 31
0.0
  0
LINE
  5
35D
330
1F
100
AcDbEntity
  8
0
  6
Continuous
 62
     7
100
AcDbLine
 10
-1061.823632766
 20
-289.0583143528
 30
0.0
 11
-1060.1752793103
 21
-289.0583143528
 31
0.0
  0
LINE
  5
35E
330
1F
100
AcDbEntity
  8
0
  6
Continuous
 62
     7
100
AcDbLine
 10
-1043.4719862218
 20
-282.0583143528
 30
0.0
 11
-1041.823632766
 21
-282.0583143528
 31
0.0
  0
LINE
  5
35F
330
1F
100
AcDbEntity
  8
0
  6
Continuous
 62
     7
100
AcDbLine
 10
-1043.4719862218
 20
-289.0583143528
 30
0.0
 11
-1041.823632766
 21
-289.0583143528
 31
0.0
  0
LINE
  5
360
330
1F
100
AcDbEntity
  8
0
  6
Continuous
 62
     7
100
AcDbLine
 10
-1052.823632766
 20
-272.6422345697
 30
0.0
 11
-1052.823632766
 21
-279.6422345697
 31
0.0
  0
LINE
  5
361
330
1F
100
AcDbEntity
  8
0
  6
Continuous
 62
     7
100
AcDbLine
 10
-1057.2087975732
 20
-279.6422345697
 30
0.0
 11
-1057.2684078888
 21
-279.6422345697
 31
0.0
  0
LINE
  5
362
330
1F
100
AcDbEntity
  8
0
  6
Continuous
 62
     7
100
AcDbLine
 10
-1050.823632766
 20
-272.6422345697
 30
0.0
 11
-1050.823632766
 21
-279.6422345697
 31
0.0
  0
LINE
  5
363
330
1F
100
AcDbEntity
  8
0
  6
Continuous
 62
     7
100
AcDbLine
 10
-1050.823632766
 20
-272.6422345697
 30
0.0
 11
-1046.3788576433
 21
-272.6422345697
 31
0.0
  0
LINE
  5
364
330
1F
100
AcDbEntity
  8
0
  6
Continuous
 62
     7
100
AcDbLine
 10
-1052.823632766
 20
-272.6422345697
 30
0.0
 11
-1057.2684078888
 21
-272.6422345697
 31
0.0
  0
LINE
  5
365
330
1F
100
AcDbEntity
  8
0
  6
Continuous
 62
     7
100
AcDbLine
 10
-1057.2684078888
 20
-279.6422345697
 30
0.0
 11
-1057.2684078888
 21
-272.6422345697
 31
0.0
  0
LINE
  5
366
330
1F
100
AcDbEntity
  8
0
  6
Continuous
 62
     7
100
AcDbLine
 10
-1046.3788576433
 20
-272.6422345697
 30
0.0
 11
-1046.3788576433
 21
-279.6970496545
 31
0.0
  0
LINE
  5
377
330
1F
100
AcDbEntity
  8
0
  6
Continuous
 62
     7
100
AcDbLine
 10
-1026.2877620298
 20
-298.7187460658
 30
0.0
 11
-982.2877620298
 21
-298.7187460658
 31
0.0
  0
LINE
  5
378
330
1F
100
AcDbEntity
  8
0
  6
Continuous
 62
     7
100
AcDbLine
 10
-1031.2877620298
 20
-293.7187460658
 30
0.0
 11
-1031.2877620298
 21
-251.7187460658
 31
0.0
  0
LINE
  5
379
330
1F
100
AcDbEntity
  8
0
  6
Continuous
 62
     7
100
AcDbLine
 10
-1031.2877620298
 20
-251.7187460658
 30
0.0
 11
-977.2877620298
 21
-251.7187460658
 31
0.0
  0
LINE
  5
37A
330
1F
100
AcDbEntity
  8
0
  6
Continuous
 62
     7
100
AcDbLine
 10
-977.2877620298
 20
-293.7187460658
 30
0.0
 11
-977.2877620298
 21
-251.7187460658
 31
0.0
  0
LINE
  5
37B
330
1F
100
AcDbEntity
  8
0
  6
Continuous
 62
     7
100
AcDbLine
 10
-724.3006667266
 20
-41.8488358683
 30
0.0
 11
-394.3006667266
 21
-41.8488358683
 31
0.0
  0
LINE
  5
37C
330
1F
100
AcDbEntity
  8
0
  6
Continuous
 62
     7
100
AcDbLine
 10
-724.3006667266
 20
-41.8488358683
 30
0.0
 11
-724.3006667266
 21
-525.8488358683
 31
0.0
  0
LINE
  5
37D
330
1F
100
AcDbEntity
  8
0
  6
Continuous
 62
     7
100
AcDbLine
 10
-724.3006667266
 20
-525.8488358683
 30
0.0
 11
-394.3006667266
 21
-525.8488358683
 31
0.0
  0
LINE
  5
37E
330
1F
100
AcDbEntity
  8
0
  6
Continuous
 62
     7
100
AcDbLine
 10
-394.3006667266
 20
-41.8488358683
 30
0.0
 11
-394.3006667266
 21
-525.8488358683
 31
0.0
  0
LINE
  5
37F
330
1F
100
AcDbEntity
  8
0
  6
Continuous
 62
     7
100
AcDbLine
 10
-919.2763907051
 20
-172.5689003346
 30
0.0
 11
-963.2763907051
 21
-172.5689003346
 31
0.0
  0
LINE
  5
380
330
1F
100
AcDbEntity
  8
0
  6
Continuous
 62
     7
100
AcDbLine
 10
-914.2763907051
 20
-177.5689003346
 30
0.0
 11
-914.2763907051
 21
-211.5689003346
 31
0.0
  0
LINE
  5
381
330
1F
100
AcDbEntity
  8
0
  6
Continuous
 62
     7
100
AcDbLine
 10
-914.2763907051
 20
-211.5689003346
 30
0.0
 11
-968.2763907051
 21
-211.5689003346
 31
0.0
  0
LINE
  5
382
330
1F
100
AcDbEntity
  8
0
  6
Continuous
 62
     7
100
AcDbLine
 10
-968.2763907051
 20
-177.5689003346
 30
0.0
 11
-968.2763907051
 21
-211.5689003346
 31
0.0
  0
LINE
  5
383
330
1F
100
AcDbEntity
  8
0
  6
Continuous
 62
     7
100
AcDbLine
 10
-968.5084055895
 20
-330.4475584515
 30
0.0
 11
-914.5084055895
 21
-330.4475584515
 31
0.0
  0
LINE
  5
384
330
1F
100
AcDbEntity
  8
0
  6
Continuous
 62
     7
100
AcDbLine
 10
-968.5084055895
 20
-330.4475584515
 30
0.0
 11
-968.5084055895
 21
-218.4475584515
 31
0.0
  0
LINE
  5
385
330
1F
100
AcDbEntity
  8
0
  6
Continuous
 62
     7
100
AcDbLine
 10
-968.5084055895
 20
-218.4475584515
 30
0.0
 11
-914.5084055895
 21
-218.4475584515
 31
0.0
  0
LINE
  5
386
330
1F
100
AcDbEntity
  8
0
  6
Continuous
 62
     7
100
AcDbLine
 10
-914.5084055895
 20
-330.4475584515
 30
0.0
 11
-914.5084055895
 21
-218.4475584515
 31
0.0
  0
LINE
  5
387
330
1F
100
AcDbEntity
  8
0
  6
Continuous
 62
     7
100
AcDbLine
 10
-1164.2725397995
 20
-233.2156979852
 30
0.0
 11
-1094.2725397995
 21
-233.2156979852
 31
0.0
  0
LINE
  5
388
330
1F
100
AcDbEntity
  8
0
  6
Continuous
 62
     7
100
AcDbLine
 10
-1169.2725397995
 20
-228.2156979852
 30
0.0
 11
-1169.2725397995
 21
-185.8737569946
 31
0.0
  0
LINE
  5
389
330
1F
100
AcDbEntity
  8
0
  6
Continuous
 62
     7
100
AcDbLine
 10
-1089.2725397995
 20
-228.2156979852
 30
0.0
 11
-1089.2725397995
 21
-194.1058562871
 31
0.0
  0
LINE
  5
38A
330
1F
100
AcDbEntity
  8
0
  6
Continuous
 62
     7
100
AcDbLine
 10
-1059.2725397995
 20
-25.5513639553
 30
0.0
 11
-1037.2725397995
 21
-25.5513639553
 31
0.0
  0
LINE
  5
38B
330
1F
100
AcDbEntity
  8
0
  6
Continuous
 62
     7
100
AcDbLine
 10
-1079.2725397995
 20
-45.5513639553
 30
0.0
 11
-1079.2725397995
 21
-72.8933049459
 31
0.0
  0
LINE
  5
38C
330
1F
100
AcDbEntity
  8
0
  6
Continuous
 62
     7
100
AcDbLine
 10
-1017.2725397995
 20
-45.5513639553
 30
0.0
 11
-1017.2725397995
 21
-101.2731012743
 31
0.0
  0
LINE
  5
38D
330
1F
100
AcDbEntity
  8
0
  6
Continuous
 62
     7
100
AcDbLine
 10
-1088.3400247709
 20
-94.3835309703
 30
0.0
 11
-1160.2050548281
 21
-164.3835309703
 31
0.0
  0
LINE
  5
38E
330
1F
100
AcDbEntity
  8
0
  6
Continuous
 62
     7
100
AcDbLine
 10
-1026.9012896539
 20
-123.2960930671
 30
0.0
 11
-1079.6437899451
 21
-172.0828644943
 31
0.0
  0
LINE
  5
38F
330
1F
100
AcDbEntity
  8
0
  6
Continuous
 62
     7
100
AcDbLine
 10
-1073.1789406454
 20
-243.2313309493
 30
0.0
 11
-1003.1789406454
 21
-243.2313309493
 31
0.0
  0
LINE
  5
390
330
1F
100
AcDbEntity
  8
0
  6
Continuous
 62
     7
100
AcDbLine
 10
-1078.1789406454
 20
-238.2313309493
 30
0.0
 11
-1078.1789406454
 21
-195.8893899588
 31
0.0
  0
LINE
  5
391
330
1F
100
AcDbEntity
  8
0
  6
Continuous
 62
     7
100
AcDbLine
 10
-998.1789406454
 20
-238.2313309493
 30
0.0
 11
-998.1789406454
 21
-204.1116913704
 31
0.0
  0
LINE
  5
392
330
1F
100
AcDbEntity
  8
0
  6
Continuous
 62
     7
100
AcDbLine
 10
-968.1789406454
 20
-35.5669969195
 30
0.0
 11
-946.1789406454
 21
-35.5669969195
 31
0.0
  0
LINE
  5
393
330
1F
100
AcDbEntity
  8
0
  6
Continuous
 62
     7
100
AcDbLine
 10
-988.1789406454
 20
-55.5669969195
 30
0.0
 11
-988.1789406454
 21
-82.9089379101
 31
0.0
  0
LINE
  5
394
330
1F
100
AcDbEntity
  8
0
  6
Continuous
 62
     7
100
AcDbLine
 10
-926.1789406454
 20
-55.5669969195
 30
0.0
 11
-926.1789406454
 21
-111.2789363576
 31
0.0
  0
LINE
  5
395
330
1F
100
AcDbEntity
  8
0
  6
Continuous
 62
     7
100
AcDbLine
 10
-997.2464256168
 20
-104.3991639344
 30
0.0
 11
-1069.111455674
 21
-174.3991639344
 31
0.0
  0
LINE
  5
396
330
1F
100
AcDbEntity
  8
0
  6
Continuous
 62
     7
100
AcDbLine
 10
-935.8076904998
 20
-133.3019281504
 30
0.0
 11
-988.550190791
 21
-182.0886995776
 31
0.0
  0
POINT
  5
3A1
330
1F
100
AcDbEntity
  8
0
  6
Continuous
 62
     7
100
AcDbPoint
 10
-866.1000682756
 20
-190.5276374013
 30
0.0
  0
POINT
  5
3A2
330
1F
100
AcDbEntity
  8
0
  6
Continuous
 62
     7
100
AcDbPoint
 10
-866.1000682756
 20
-190.5276374013
 30
0.0
  0
POINT
  5
3A3
330
1F
100
AcDbEntity
  8
0
  6
Continuous
 62
     7
100
AcDbPoint
 10
-1133.3650562947
 20
-254.4462178922
 30
0.0
  0
POINT
  5
3A4
330
1F
100
AcDbEntity
  8
0
  6
Continuous
 62
     7
100
AcDbPoint
 10
-1066.8798197
 20
-312.8825054552
 30
0.0
  0
POINT
  5
3A5
330
1F
100
AcDbEntity
  8
0
  6
Continuous
 62
     7
100
AcDbPoint
 10
-1068.555392079
 20
-263.2118322597
 30
0.0
  0
POINT
  5
3A6
330
1F
100
AcDbEntity
  8
0
  6
Continuous
 62
     7
100
AcDbPoint
 10
-1164.6670831957
 20
-254.7774562721
 30
0.0
  0
POINT
  5
3A7
330
1F
100
AcDbEntity
  8
0
  6
Continuous
 62
     7
100
AcDbPoint
 10
-1166.4208788177
 20
-141.8462471945
 30
0.0
  0
POINT
  5
3A8
330
1F
100
AcDbEntity
  8
0
  6
Continuous
 62
     7
100
AcDbPoint
 10
-1101.7317910138
 20
-254.2805987023
 30
0.0
  0
POINT
  5
3A9
330
1F
100
AcDbEntity
  8
0
  6
Continuous
 62
     7
100
AcDbPoint
 10
-1123.0439425338
 20
-98.7825017863
 30
0.0
  0
POINT
  5
3AA
330
1F
100
AcDbEntity
  8
0
  6
Continuous
 62
     7
100
AcDbPoint
 10
-1164.8549244392
 20
-101.7578151054
 30
0.0
  0
POINT
  5
3AB
330
1F
100
AcDbEntity
  8
0
  6
Continuous
 62
     7
100
AcDbPoint
 10
-1144.0277312054
 20
-123.2113900906
 30
0.0
  0
POINT
  5
3AC
330
1F
100
AcDbEntity
  8
0
  6
Continuous
 62
     7
100
AcDbPoint
 10
-1051.823632766
 20
-285.5583143528
 30
0.0
  0
POINT
  5
3AD
330
1F
100
AcDbEntity
  8
0
  6
Continuous
 62
     7
100
AcDbPoint
 10
-1149.2725397995
 20
-211.2156979852
 30
0.0
  0
ENDSEC
  0
SECTION
  2
OBJECTS
  0
DICTIONARY
  5
C
330
0
100
AcDbDictionary
281
     1
  3
ACAD_GROUP
350
D
  3
ACAD_LAYOUT
350
1A
  3
ACAD_MLINESTYLE
350
17
  3
ACAD_PLOTSETTINGS
350
19
  3
ACAD_PLOTSTYLENAME
350
E
  3
ACAD_SCALELIST
350
47
  0
DICTIONARY
  5
D
102
{ACAD_REACTORS
330
C
102
}
330
C
100
AcDbDictionary
281
     1
  0
DICTIONARY
  5
1A
102
{ACAD_REACTORS
330
C
102
}
330
C
100
AcDbDictionary
281
     1
  3
Layout1
350
1E
  3
Layout2
350
26
  3
Model
350
22
  0
DICTIONARY
  5
17
102
{ACAD_REACTORS
330
C
102
}
330
C
100
AcDbDictionary
281
     1
  3
Standard
350
18
  0
DICTIONARY
  5
19
102
{ACAD_REACTORS
330
C
102
}
330
C
100
AcDbDictionary
281
     1
  0
ACDBDICTIONARYWDFLT
  5
E
102
{ACAD_REACTORS
330
C
102
}
330
C
100
AcDbDictionary
281
     1
  3
Normal
350
F
100
AcDbDictionaryWithDefault
340
F
  0
DICTIONARY
  5
47
102
{ACAD_REACTORS
330
C
102
}
330
C
100
AcDbDictionary
281
     1
  3
A0
350
48
  3
A1
350
49
  3
A2
350
4A
  3
A3
350
4B
  3
A4
350
4C
  3
A5
350
4D
  3
A6
350
4E
  3
A7
350
4F
  3
A8
350
50
  3
A9
350
51
  3
B0
350
52
  3
B1
350
53
  3
B2
350
54
  3
B3
350
55
  3
B4
350
56
  3
B5
350
57
  3
B6
350
58
  3
B7
350
59
  3
B8
350
5A
  3
B9
350
5B
  3
C0
350
5C
  3
C1
350
5D
  3
C2
350
5E
  3
C3
350
5F
  3
C4
350
60
  3
C5
350
61
  3
C6
350
62
  3
C7
350
63
  3
C8
350
64
  3
C9
350
65
  3
D0
350
66
  3
D1
350
67
  3
D2
350
68
  0
LAYOUT
  5
1E
102
{ACAD_REACTORS
330
1A
102
}
330
1A
100
AcDbPlotSettings
  1

  2
none_device
  4

  6

 40
0.0
 41
0.0
 42
0.0
 43
0.0
 44
0.0
 45
0.0
 46
0.0
 47
0.0
 48
0.0
 49
0.0
140
0.0
141
0.0
142
1.0
143
1.0
 70
   688
 72
     1
 73
     0
 74
     5
  7

 75
    16
147
1.0
148
0.0
149
0.0
100
AcDbLayout
  1
Layout1
 70
     1
 71
     1
 10
0.0
 20
0.0
 11
420.0
 21
297.0
 12
0.0
 22
0.0
 32
0.0
 14
1.0000000000E+20
 24
1.0000000000E+20
 34
1.0000000000E+20
 15
-1.0000000000E+20
 25
-1.0000000000E+20
 35
-1.0000000000E+20
146
0.0
 13
0.0
 23
0.0
 33
0.0
 16
1.0
 26
0.0
 36
0.0
 17
0.0
 27
1.0
 37
0.0
 76
     0
330
1B
  0
LAYOUT
  5
26
102
{ACAD_REACTORS
330
1A
102
}
330
1A
100
AcDbPlotSettings
  1

  2
none_device
  4

  6

 40
0.0
 41
0.0
 42
0.0
 43
0.0
 44
0.0
 45
0.0
 46
0.0
 47
0.0
 48
0.0
 49
0.0
140
0.0
141
0.0
142
1.0
143
1.0
 70
   688
 72
     1
 73
     0
 74
     5
  7

 75
    16
147
1.0
148
0.0
149
0.0
100
AcDbLayout
  1
Layout2
 70
     1
 71
     2
 10
0.0
 20
0.0
 11
0.0
 21
0.0
 12
0.0
 22
0.0
 32
0.0
 14
0.0
 24
0.0
 34
0.0
 15
0.0
 25
0.0
 35
0.0
146
0.0
 13
0.0
 23
0.0
 33
0.0
 16
1.0
 26
0.0
 36
0.0
 17
0.0
 27
1.0
 37
0.0
 76
     0
330
23
  0
LAYOUT
  5
22
102
{ACAD_REACTORS
330
1A
102
}
330
1A
100
AcDbPlotSettings
  1

  2
none_device
  4
ANSI_A_(11.00_x_8.50_Inches)
  6

 40
6.35
 41
19.05
 42
6.35000508
 43
19.05000254
 44
279.4
 45
215.9
 46
362.5310554895
 47
151.4769922293
 48
0.0
 49
0.0
140
0.0
141
0.0
142
0.0090739798
143
1.0
 70
  1696
 72
     0
 73
     0
 74
     0
  7

 75
     0
147
0.0179189148
148
-1300.4909072572
149
0.0
100
AcDbLayout
  1
Model
 70
     1
 71
     0
 10
0.0
 20
0.0
 11
420.0
 21
297.0
 12
0.0
 22
0.0
 32
0.0
 14
-1594.4355792178
 24
-525.8488358683
 34
0.0
 15
-394.3006667266
 25
-17.1678348998
 35
0.0
146
0.0
 13
0.0
 23
0.0
 33
0.0
 16
1.0
 26
0.0
 36
0.0
 17
0.0
 27
1.0
 37
0.0
 76
     0
330
1F
331
29
  0
MLINESTYLE
  5
18
102
{ACAD_REACTORS
330
17
102
}
330
17
100
AcDbMlineStyle
  2
Standard
 70
     0
  3

 62
   256
 51
90.0
 52
90.0
 71
     2
 49
0.5
 62
   256
  6
BYLAYER
 49
-0.5
 62
   256
  6
BYLAYER
  0
ACDBPLACEHOLDER
  5
F
102
{ACAD_REACTORS
330
E
102
}
330
E
  0
SCALE
  5
48
102
{ACAD_REACTORS
330
47
102
}
330
47
100
AcDbScale
 70
     0
300
1:1
140
1.0
141
1.0
290
     1
  0
SCALE
  5
49
102
{ACAD_REACTORS
330
47
102
}
330
47
100
AcDbScale
 70
     0
300
1:2
140
1.0
141
2.0
290
     0
  0
SCALE
  5
4A
102
{ACAD_REACTORS
330
47
102
}
330
47
100
AcDbScale
 70
     0
300
1:4
140
1.0
141
4.0
290
     0
  0
SCALE
  5
4B
102
{ACAD_REACTORS
330
47
102
}
330
47
100
AcDbScale
 70
     0
300
1:5
140
1.0
141
5.0
290
     0
  0
SCALE
  5
4C
102
{ACAD_REACTORS
330
47
102
}
330
47
100
AcDbScale
 70
     0
300
1:8
140
1.0
141
8.0
290
     0
  0
SCALE
  5
4D
102
{ACAD_REACTORS
330
47
102
}
330
47
100
AcDbScale
 70
     0
300
1:10
140
1.0
141
10.0
290
     0
  0
SCALE
  5
4E
102
{ACAD_REACTORS
330
47
102
}
330
47
100
AcDbScale
 70
     0
300
1:16
140
1.0
141
16.0
290
     0
  0
SCALE
  5
4F
102
{ACAD_REACTORS
330
47
102
}
330
47
100
AcDbScale
 70
     0
300
1:20
140
1.0
141
20.0
290
     0
  0
SCALE
  5
50
102
{ACAD_REACTORS
330
47
102
}
330
47
100
AcDbScale
 70
     0
300
1:30
140
1.0
141
30.0
290
     0
  0
SCALE
  5
51
102
{ACAD_REACTORS
330
47
102
}
330
47
100
AcDbScale
 70
     0
300
1:40
140
1.0
141
40.0
290
     0
  0
SCALE
  5
52
102
{ACAD_REACTORS
330
47
102
}
330
47
100
AcDbScale
 70
     0
300
1:50
140
1.0
141
50.0
290
     0
  0
SCALE
  5
53
102
{ACAD_REACTORS
330
47
102
}
330
47
100
AcDbScale
 70
     0
300
1:100
140
1.0
141
100.0
290
     0
  0
SCALE
  5
54
102
{ACAD_REACTORS
330
47
102
}
330
47
100
AcDbScale
 70
     0
300
2:1
140
2.0
141
1.0
290
     0
  0
SCALE
  5
55
102
{ACAD_REACTORS
330
47
102
}
330
47
100
AcDbScale
 70
     0
300
4:1
140
4.0
141
1.0
290
     0
  0
SCALE
  5
56
102
{ACAD_REACTORS
330
47
102
}
330
47
100
AcDbScale
 70
     0
300
8:1
140
8.0
141
1.0
290
     0
  0
SCALE
  5
57
102
{ACAD_REACTORS
330
47
102
}
330
47
100
AcDbScale
 70
     0
300
10:1
140
10.0
141
1.0
290
     0
  0
SCALE
  5
58
102
{ACAD_REACTORS
330
47
102
}
330
47
100
AcDbScale
 70
     0
300
100:1
140
100.0
141
1.0
290
     0
  0
SCALE
  5
59
102
{ACAD_REACTORS
330
47
102
}
330
47
100
AcDbScale
 70
     0
300
1/128" = 1'-0"
140
0.0078125
141
12.0
290
     0
  0
SCALE
  5
5A
102
{ACAD_REACTORS
330
47
102
}
330
47
100
AcDbScale
 70
     0
300
1/64" = 1'-0"
140
0.015625
141
12.0
290
     0
  0
SCALE
  5
5B
102
{ACAD_REACTORS
330
47
102
}
330
47
100
AcDbScale
 70
     0
300
1/32" = 1'-0"
140
0.03125
141
12.0
290
     0
  0
SCALE
  5
5C
102
{ACAD_REACTORS
330
47
102
}
330
47
100
AcDbScale
 70
     0
300
1/16" = 1'-0"
140
0.0625
141
12.0
290
     0
  0
SCALE
  5
5D
102
{ACAD_REACTORS
330
47
102
}
330
47
100
AcDbScale
 70
     0
300
3/32" = 1'-0"
140
0.09375
141
12.0
290
     0
  0
SCALE
  5
5E
102
{ACAD_REACTORS
330
47
102
}
330
47
100
AcDbScale
 70
     0
300
1/8" = 1'-0"
140
0.125
141
12.0
290
     0
  0
SCALE
  5
5F
102
{ACAD_REACTORS
330
47
102
}
330
47
100
AcDbScale
 70
     0
300
3/16" = 1'-0"
140
0.1875
141
12.0
290
     0
  0
SCALE
  5
60
102
{ACAD_REACTORS
330
47
102
}
330
47
100
AcDbScale
 70
     0
300
1/4" = 1'-0"
140
0.25
141
12.0
290
     0
  0
SCALE
  5
61
102
{ACAD_REACTORS
330
47
102
}
330
47
100
AcDbScale
 70
     0
300
3/8" = 1'-0"
140
0.375
141
12.0
290
     0
  0
SCALE
  5
62
102
{ACAD_REACTORS
330
47
102
}
330
47
100
AcDbScale
 70
     0
300
1/2" = 1'-0"
140
0.5
141
12.0
290
     0
  0
SCALE
  5
63
102
{ACAD_REACTORS
330
47
102
}
330
47
100
AcDbScale
 70
     0
300
3/4" = 1'-0"
140
0.75
141
12.0
290
     0
  0
SCALE
  5
64
102
{ACAD_REACTORS
330
47
102
}
330
47
100
AcDbScale
 70
     0
300
1" = 1'-0"
140
1.0
141
12.0
290
     0
  0
SCALE
  5
65
102
{ACAD_REACTORS
330
47
102
}
330
47
100
AcDbScale
 70
     0
300
1-1/2" = 1'-0"
140
1.5
141
12.0
290
     0
  0
SCALE
  5
66
102
{ACAD_REACTORS
330
47
102
}
330
47
100
AcDbScale
 70
     0
300
3" = 1'-0"
140
3.0
141
12.0
290
     0
  0
SCALE
  5
67
102
{ACAD_REACTORS
330
47
102
}
330
47
100
AcDbScale
 70
     0
300
6" = 1'-0"
140
6.0
141
12.0
290
     0
  0
SCALE
  5
68
102
{ACAD_REACTORS
330
47
102
}
330
47
100
AcDbScale
 70
     0
300
1'-0" = 1'-0"
140
12.0
141
12.0
290
     0
  0
ENDSEC
  0
EOF
