  0
SECTION
  2
HEADER
  9
$ACADVER
  1
AC1015
  9
$ACADMAINTVER
 70
     6
  9
$DWGCODEPAGE
  3
ANSI_1251
  9
$INSBASE
 10
0.0
 20
0.0
 30
0.0
  9
$EXTMIN
 10
-1396.4527834376
 20
394.0596514354
 30
0.0
  9
$EXTMAX
 10
-196.4527834376
 20
594.287019816
 30
0.0
  9
$LIMMIN
 10
0.0
 20
0.0
  9
$LIMMAX
 10
420.0
 20
297.0
  9
$ORTHOMODE
 70
     0
  9
$REGENMODE
 70
     1
  9
$FILLMODE
 70
     1
  9
$QTEXTMODE
 70
     0
  9
$MIRRTEXT
 70
     1
  9
$LTSCALE
 40
1.0
  9
$ATTMODE
 70
     1
  9
$TEXTSIZE
 40
3.5
  9
$TRACEWID
 40
1.0
  9
$TEXTSTYLE
  7
Standard
  9
$CLAYER
  8
0
  9
$CELTYPE
  6
ByLayer
  9
$CECOLOR
 62
   256
  9
$CELTSCALE
 40
1.0
  9
$DISPSILH
 70
     0
  9
$DIMSCALE
 40
1.0
  9
$DIMASZ
 40
3.302
  9
$DIMEXO
 40
1.0
  9
$DIMDLI
 40
3.75
  9
$DIMRND
 40
0.0
  9
$DIMDLE
 40
0.0
  9
$DIMEXE
 40
1.0
  9
$DIMTP
 40
0.0
  9
$DIMTM
 40
0.0
  9
$DIMTXT
 40
3.5
  9
$DIMCEN
 40
2.5
  9
$DIMTSZ
 40
0.0
  9
$DIMTOL
 70
     0
  9
$DIMLIM
 70
     0
  9
$DIMTIH
 70
     1
  9
$DIMTOH
 70
     1
  9
$DIMSE1
 70
     0
  9
$DIMSE2
 70
     0
  9
$DIMTAD
 70
     1
  9
$DIMZIN
 70
     0
  9
$DIMBLK
  1

  9
$DIMASO
 70
     1
  9
$DIMSHO
 70
     1
  9
$DIMPOST
  1

  9
$DIMAPOST
  1

  9
$DIMALT
 70
     0
  9
$DIMALTD
 70
     3
  9
$DIMALTF
 40
0.0393700787
  9
$DIMLFAC
 40
1.0
  9
$DIMTOFL
 70
     1
  9
$DIMTVP
 40
0.0
  9
$DIMTIX
 70
     0
  9
$DIMSOXD
 70
     0
  9
$DIMSAH
 70
     0
  9
$DIMBLK1
  1

  9
$DIMBLK2
  1

  9
$DIMSTYLE
  2
ISO-25
  9
$DIMCLRD
 70
     0
  9
$DIMCLRE
 70
     0
  9
$DIMCLRT
 70
     0
  9
$DIMTFAC
 40
1.0
  9
$DIMGAP
 40
1.524
  9
$DIMJUST
 70
     0
  9
$DIMSD1
 70
     0
  9
$DIMSD2
 70
     0
  9
$DIMTOLJ
 70
     0
  9
$DIMTZIN
 70
     0
  9
$DIMALTZ
 70
     0
  9
$DIMALTTZ
 70
     0
  9
$DIMUPT
 70
     0
  9
$DIMDEC
 70
     2
  9
$DIMTDEC
 70
     2
  9
$DIMALTU
 70
     2
  9
$DIMALTTD
 70
     3
  9
$DIMTXSTY
  7
Standard
  9
$DIMAUNIT
 70
     0
  9
$DIMADEC
 70
     2
  9
$DIMALTRND
 40
0.0
  9
$DIMAZIN
 70
     0
  9
$DIMDSEP
 70
    44
  9
$DIMATFIT
 70
     3
  9
$DIMFRAC
 70
     0
  9
$DIMLDRBLK
  1

  9
$DIMLUNIT
 70
     2
  9
$DIMLWD
 70
    -2
  9
$DIMLWE
 70
    -2
  9
$DIMTMOVE
 70
     0
  9
$LUNITS
 70
     2
  9
$LUPREC
 70
     2
  9
$SKETCHINC
 40
1.0
  9
$FILLETRAD
 40
10.0
  9
$AUNITS
 70
     0
  9
$AUPREC
 70
     2
  9
$MENU
  1
.
  9
$ELEVATION
 40
0.0
  9
$PELEVATION
 40
0.0
  9
$THICKNESS
 40
0.0
  9
$LIMCHECK
 70
     0
  9
$CHAMFERA
 40
0.0
  9
$CHAMFERB
 40
0.0
  9
$CHAMFERC
 40
0.0
  9
$CHAMFERD
 40
0.0
  9
$SKPOLY
 70
     0
  9
$TDCREATE
 40
2459282.619288461
  9
$TDUCREATE
 40
2459282.494288461
  9
$TDUPDATE
 40
2459282.619321794
  9
$TDUUPDATE
 40
2459282.494321794
  9
$TDINDWG
 40
0.0000000116
  9
$TDUSRTIMER
 40
0.0000000116
  9
$USRTIMER
 70
     1
  9
$ANGBASE
 50
0.0
  9
$ANGDIR
 70
     0
  9
$PDMODE
 70
     0
  9
$PDSIZE
 40
-1.0
  9
$PLINEWID
 40
0.0
  9
$SPLFRAME
 70
     0
  9
$SPLINETYPE
 70
     6
  9
$SPLINESEGS
 70
     8
  9
$HANDSEED
  5
1DA
  9
$SURFTAB1
 70
     6
  9
$SURFTAB2
 70
     6
  9
$SURFTYPE
 70
     6
  9
$SURFU
 70
     6
  9
$SURFV
 70
     6
  9
$UCSBASE
  2

  9
$UCSNAME
  2

  9
$UCSORG
 10
0.0
 20
0.0
 30
0.0
  9
$UCSXDIR
 10
1.0
 20
0.0
 30
0.0
  9
$UCSYDIR
 10
0.0
 20
1.0
 30
0.0
  9
$UCSORTHOREF
  2

  9
$UCSORTHOVIEW
 70
     0
  9
$UCSORGTOP
 10
0.0
 20
0.0
 30
0.0
  9
$UCSORGBOTTOM
 10
0.0
 20
0.0
 30
0.0
  9
$UCSORGLEFT
 10
0.0
 20
0.0
 30
0.0
  9
$UCSORGRIGHT
 10
0.0
 20
0.0
 30
0.0
  9
$UCSORGFRONT
 10
0.0
 20
0.0
 30
0.0
  9
$UCSORGBACK
 10
0.0
 20
0.0
 30
0.0
  9
$PUCSBASE
  2

  9
$PUCSNAME
  2

  9
$PUCSORG
 10
0.0
 20
0.0
 30
0.0
  9
$PUCSXDIR
 10
1.0
 20
0.0
 30
0.0
  9
$PUCSYDIR
 10
0.0
 20
1.0
 30
0.0
  9
$PUCSORTHOREF
  2

  9
$PUCSORTHOVIEW
 70
     0
  9
$PUCSORGTOP
 10
0.0
 20
0.0
 30
0.0
  9
$PUCSORGBOTTOM
 10
0.0
 20
0.0
 30
0.0
  9
$PUCSORGLEFT
 10
0.0
 20
0.0
 30
0.0
  9
$PUCSORGRIGHT
 10
0.0
 20
0.0
 30
0.0
  9
$PUCSORGFRONT
 10
0.0
 20
0.0
 30
0.0
  9
$PUCSORGBACK
 10
0.0
 20
0.0
 30
0.0
  9
$USERI1
 70
     0
  9
$USERI2
 70
     0
  9
$USERI3
 70
     0
  9
$USERI4
 70
     0
  9
$USERI5
 70
     0
  9
$USERR1
 40
0.0
  9
$USERR2
 40
0.0
  9
$USERR3
 40
0.0
  9
$USERR4
 40
0.0
  9
$USERR5
 40
0.0
  9
$WORLDVIEW
 70
     1
  9
$SHADEDGE
 70
     3
  9
$SHADEDIF
 70
    70
  9
$TILEMODE
 70
     1
  9
$MAXACTVP
 70
    64
  9
$PINSBASE
 10
0.0
 20
0.0
 30
0.0
  9
$PLIMCHECK
 70
     0
  9
$PEXTMIN
 10
1.0000000000E+20
 20
1.0000000000E+20
 30
1.0000000000E+20
  9
$PEXTMAX
 10
-1.0000000000E+20
 20
-1.0000000000E+20
 30
-1.0000000000E+20
  9
$PLIMMIN
 10
0.0
 20
0.0
  9
$PLIMMAX
 10
420.0
 20
297.0
  9
$UNITMODE
 70
     0
  9
$VISRETAIN
 70
     1
  9
$PLINEGEN
 70
     0
  9
$PSLTSCALE
 70
     1
  9
$TREEDEPTH
 70
  3020
  9
$CMLSTYLE
  2
Standard
  9
$CMLJUST
 70
     0
  9
$CMLSCALE
 40
20.0
  9
$PROXYGRAPHICS
 70
     1
  9
$MEASUREMENT
 70
     1
  9
$CELWEIGHT
370
    -1
  9
$ENDCAPS
280
     0
  9
$JOINSTYLE
280
     0
  9
$LWDISPLAY
290
     1
  9
$INSUNITS
 70
     4
  9
$HYPERLINKBASE
  1

  9
$STYLESHEET
  1

  9
$XEDIT
290
     1
  9
$CEPSNTYPE
380
     0
  9
$PSTYLEMODE
290
     1
  9
$FINGERPRINTGUID
  2
{B324752D-D14B-41B0-8D7C-8B5482DC4B99}
  9
$VERSIONGUID
  2
{FAEB1C32-E019-11D5-929B-00C0DF256EC4}
  9
$EXTNAMES
290
     1
  9
$PSVPSCALE
 40
0.0
  9
$OLESTARTUP
290
     0
  0
ENDSEC
  0
SECTION
  2
CLASSES
  0
CLASS
  1
ACDBDICTIONARYWDFLT
  2
AcDbDictionaryWithDefault
  3
ObjectDBX Classes
 90
        0
280
     0
281
     0
  0
CLASS
  1
VISUALSTYLE
  2
AcDbVisualStyle
  3
ObjectDBX Classes
 90
     4095
280
     0
281
     0
  0
CLASS
  1
MATERIAL
  2
AcDbMaterial
  3
ObjectDBX Classes
 90
     1153
280
     0
281
     0
  0
CLASS
  1
SCALE
  2
AcDbScale
  3
ObjectDBX Classes
 90
     1153
280
     0
281
     0
  0
CLASS
  1
SUN
  2
AcDbSun
  3
SCENEOE
 90
     1153
280
     0
281
     0
  0
CLASS
  1
ACDBPLACEHOLDER
  2
AcDbPlaceHolder
  3
ObjectDBX Classes
 90
        0
280
     0
281
     0
  0
CLASS
  1
LAYOUT
  2
AcDbLayout
  3
ObjectDBX Classes
 90
        0
280
     0
281
     0
  0
ENDSEC
  0
SECTION
  2
TABLES
  0
TABLE
  2
VPORT
  5
8
330
0
100
AcDbSymbolTable
 70
     1
  0
VPORT
  5
29
330
8
100
AcDbSymbolTableRecord
100
AcDbViewportTableRecord
  2
*Active
 70
     0
 10
0.0
 20
0.0
 11
1.0
 21
1.0
 12
-796.4527834376
 22
494.1733356257
 13
0.0
 23
0.0
 14
10.0
 24
10.0
 15
10.0
 25
10.0
 16
0.0
 26
0.0
 36
1.0
 17
0.0
 27
0.0
 37
0.0
 40
204.2319157481
 41
5.9931866942
 42
50.0
 43
0.0
 44
0.0
 50
0.0
 51
0.0
 71
     0
 72
   100
 73
     1
 74
     3
 75
     0
 76
     0
 77
     0
 78
     0
281
     0
 65
     1
110
0.0
120
0.0
130
0.0
111
1.0
121
0.0
131
0.0
112
0.0
122
1.0
132
0.0
 79
     0
146
0.0
  0
ENDTAB
  0
TABLE
  2
LTYPE
  5
5
330
0
100
AcDbSymbolTable
 70
     6
  0
LTYPE
  5
14
330
5
100
AcDbSymbolTableRecord
100
AcDbLinetypeTableRecord
  2
ByBlock
 70
     0
  3

 72
    65
 73
     0
 40
0.0
  0
LTYPE
  5
15
330
5
100
AcDbSymbolTableRecord
100
AcDbLinetypeTableRecord
  2
ByLayer
 70
     0
  3

 72
    65
 73
     0
 40
0.0
  0
LTYPE
  5
16
330
5
100
AcDbSymbolTableRecord
100
AcDbLinetypeTableRecord
  2
Continuous
 70
     0
  3
Solid line
 72
    65
 73
     0
 40
0.0
  0
LTYPE
  5
6A
330
5
100
AcDbSymbolTableRecord
100
AcDbLinetypeTableRecord
  2
HIDDEN
 70
     0
  3
Hidden __ __ __ __ __ __ __ __ __ __ __ __ __ __
 72
    65
 73
     2
 40
1.905
 49
1.27
 74
     0
 49
-0.635
 74
     0
  0
LTYPE
  5
6B
330
5
100
AcDbSymbolTableRecord
100
AcDbLinetypeTableRecord
  2
PHANTOM
 70
     0
  3
Phantom ______  __  __  ______  __  __  ______
 72
    65
 73
     6
 40
12.7
 49
6.35
 74
     0
 49
-1.27
 74
     0
 49
1.27
 74
     0
 49
-1.27
 74
     0
 49
1.27
 74
     0
 49
-1.27
 74
     0
  0
LTYPE
  5
6C
330
5
100
AcDbSymbolTableRecord
100
AcDbLinetypeTableRecord
  2
CENTER
 70
     0
  3
Center ____ _ ____ _ ____ _ ____ _ ____ _ ____
 72
    65
 73
     4
 40
10.16
 49
6.35
 74
     0
 49
-1.27
 74
     0
 49
1.27
 74
     0
 49
-1.27
 74
     0
  0
LTYPE
  5
6D
330
5
100
AcDbSymbolTableRecord
100
AcDbLinetypeTableRecord
  2
CENTERX2
 70
     0
  3
Center (2x) ________  __  ________  __  _____
 72
    65
 73
     4
 40
20.32
 49
12.7
 74
     0
 49
-2.54
 74
     0
 49
2.54
 74
     0
 49
-2.54
 74
     0
  0
LTYPE
  5
6E
330
5
100
AcDbSymbolTableRecord
100
AcDbLinetypeTableRecord
  2
DOT2
 70
     0
  3
Dot (.5x) ........................................
 72
    65
 73
     2
 40
0.635
 49
0.0
 74
     0
 49
-0.635
 74
     0
  0
ENDTAB
  0
TABLE
  2
LAYER
  5
2
330
0
100
AcDbSymbolTable
 70
     1
  0
LAYER
  5
10
330
2
100
AcDbSymbolTableRecord
100
AcDbLayerTableRecord
  2
0
 70
     0
 62
     7
  6
Continuous
370
    -3
390
F
  0
ENDTAB
  0
TABLE
  2
STYLE
  5
3
330
0
100
AcDbSymbolTable
 70
     1
  0
STYLE
  5
11
330
3
100
AcDbSymbolTableRecord
100
AcDbTextStyleTableRecord
  2
Standard
 70
     0
 40
0.0
 41
1.0
 50
0.0
 71
     0
 42
3.5
  3
txt
  4

  0
ENDTAB
  0
TABLE
  2
VIEW
  5
6
330
0
100
AcDbSymbolTable
 70
     0
  0
ENDTAB
  0
TABLE
  2
UCS
  5
7
330
0
100
AcDbSymbolTable
 70
     0
  0
ENDTAB
  0
TABLE
  2
APPID
  5
9
330
0
100
AcDbSymbolTable
 70
     1
  0
APPID
  5
12
330
9
100
AcDbSymbolTableRecord
100
AcDbRegAppTableRecord
  2
ACAD
 70
     0
  0
ENDTAB
  0
TABLE
  2
DIMSTYLE
  5
A
330
0
100
AcDbSymbolTable
 70
     1
100
AcDbDimStyleTable
  0
DIMSTYLE
105
27
330
A
100
AcDbSymbolTableRecord
100
AcDbDimStyleTableRecord
  2
ISO-25
 70
     0
 41
2.5
 42
0.625
 43
3.75
 44
1.25
 73
     0
 74
     0
 77
     1
 78
     8
140
2.5
141
2.5
143
0.0393700787
147
0.625
171
     3
172
     1
178
     0
271
     2
272
     2
274
     3
278
    44
283
     0
284
     8
340
11
  0
ENDTAB
  0
TABLE
  2
BLOCK_RECORD
  5
1
330
0
100
AcDbSymbolTable
 70
     1
  0
BLOCK_RECORD
  5
1F
330
1
100
AcDbSymbolTableRecord
100
AcDbBlockTableRecord
  2
*Model_Space
340
22
  0
BLOCK_RECORD
  5
1B
330
1
100
AcDbSymbolTableRecord
100
AcDbBlockTableRecord
  2
*Paper_Space
340
1E
  0
BLOCK_RECORD
  5
23
330
1
100
AcDbSymbolTableRecord
100
AcDbBlockTableRecord
  2
*Paper_Space0
340
26
  0
ENDTAB
  0
ENDSEC
  0
SECTION
  2
BLOCKS
  0
BLOCK
  5
20
330
1F
100
AcDbEntity
  8
0
100
AcDbBlockBegin
  2
*Model_Space
 70
     0
 10
0.0
 20
0.0
 30
0.0
  3
*Model_Space
  1
*Model_Space
  0
ENDBLK
  5
21
330
1F
100
AcDbEntity
  8
0
100
AcDbBlockEnd
  0
BLOCK
  5
1C
330
1B
100
AcDbEntity
 67
     1
  8
0
100
AcDbBlockBegin
  2
*Paper_Space
 70
     0
 10
0.0
 20
0.0
 30
0.0
  3
*Paper_Space
  1
*Paper_Space
  0
ENDBLK
  5
1D
330
1B
100
AcDbEntity
 67
     1
  8
0
100
AcDbBlockEnd
  0
BLOCK
  5
24
330
23
100
AcDbEntity
  8
0
100
AcDbBlockBegin
  2
*Paper_Space0
 70
     0
 10
0.0
 20
0.0
 30
0.0
  3
*Paper_Space0
  1
*Paper_Space0
  0
ENDBLK
  5
25
330
23
100
AcDbEntity
  8
0
100
AcDbBlockEnd
  0
ENDSEC
  0
SECTION
  2
ENTITIES
  0
CIRCLE
  5
6F
330
1F
100
AcDbEntity
  8
0
  6
Continuous
 62
     7
100
AcDbCircle
 10
-451.3875406845
 20
462.8256684617
 30
0.0
 40
1.80000000000003
  0
CIRCLE
  5
70
330
1F
100
AcDbEntity
  8
0
  6
Continuous
 62
     7
100
AcDbCircle
 10
-401.3875406845
 20
462.8256684617
 30
0.0
 40
1.80000000000003
  0
CIRCLE
  5
71
330
1F
100
AcDbEntity
  8
0
  6
Continuous
 62
     7
100
AcDbCircle
 10
-351.3875406845
 20
462.8256684617
 30
0.0
 40
1.80000000000003
  0
CIRCLE
  5
72
330
1F
100
AcDbEntity
  8
0
  6
Continuous
 62
     7
100
AcDbCircle
 10
-301.3875406845
 20
462.8256684617
 30
0.0
 40
1.80000000000003
  0
CIRCLE
  5
73
330
1F
100
AcDbEntity
  8
0
  6
Continuous
 62
     7
100
AcDbCircle
 10
-501.3875406845
 20
462.8256684617
 30
0.0
 40
1.800000000000085
  0
CIRCLE
  5
74
330
1F
100
AcDbEntity
  8
0
  6
Continuous
 62
     7
100
AcDbCircle
 10
-551.3875406845
 20
462.8256684617
 30
0.0
 40
1.799999999999959
  0
CIRCLE
  5
75
330
1F
100
AcDbEntity
  8
0
  6
Continuous
 62
     7
100
AcDbCircle
 10
-601.3875406845
 20
462.8256684617
 30
0.0
 40
1.800000000000068
  0
CIRCLE
  5
76
330
1F
100
AcDbEntity
  8
0
  6
Continuous
 62
     7
100
AcDbCircle
 10
-601.3875406845
 20
418.8256684617
 30
0.0
 40
1.800000000000068
  0
CIRCLE
  5
77
330
1F
100
AcDbEntity
  8
0
  6
Continuous
 62
     7
100
AcDbCircle
 10
-551.3875406845
 20
418.8256684617
 30
0.0
 40
1.799999999999959
  0
CIRCLE
  5
78
330
1F
100
AcDbEntity
  8
0
  6
Continuous
 62
     7
100
AcDbCircle
 10
-501.3875406845
 20
418.8256684617
 30
0.0
 40
1.800000000000122
  0
CIRCLE
  5
79
330
1F
100
AcDbEntity
  8
0
  6
Continuous
 62
     7
100
AcDbCircle
 10
-301.3875406845
 20
418.8256684617
 30
0.0
 40
1.800000000000014
  0
CIRCLE
  5
7A
330
1F
100
AcDbEntity
  8
0
  6
Continuous
 62
     7
100
AcDbCircle
 10
-351.3875406845
 20
418.8256684617
 30
0.0
 40
1.800000000000014
  0
CIRCLE
  5
7B
330
1F
100
AcDbEntity
  8
0
  6
Continuous
 62
     7
100
AcDbCircle
 10
-401.3875406845
 20
418.8256684617
 30
0.0
 40
1.800000000000014
  0
CIRCLE
  5
7C
330
1F
100
AcDbEntity
  8
0
  6
Continuous
 62
     7
100
AcDbCircle
 10
-451.3875406845
 20
418.8256684617
 30
0.0
 40
1.800000000000014
  0
ARC
  5
7D
330
1F
100
AcDbEntity
  8
0
  6
Continuous
 62
     7
100
AcDbCircle
 10
-830.7615540318
 20
548.4948048137
 30
0.0
 40
29.99999999999997
100
AcDbArc
 50
29.5622265524
 51
76.7934253632
  0
ARC
  5
7E
330
1F
100
AcDbEntity
  8
0
  6
Continuous
 62
     7
100
AcDbCircle
 10
-876.2431106939
 20
495.4836362303
 30
0.0
 40
30.00000000000002
100
AcDbArc
 50
34.010682188
 51
76.7934253632
  0
ARC
  5
7F
330
1F
100
AcDbEntity
  8
0
  6
Continuous
 62
     7
100
AcDbCircle
 10
-743.1255263823
 20
515.603361229
 30
0.0
 40
30.00000000000008
100
AcDbArc
 50
209.5622265524
 51
256.7934253632
  0
ARC
  5
80
330
1F
100
AcDbEntity
  8
0
  6
Continuous
 62
     7
100
AcDbCircle
 10
-765.5373686688
 20
438.6894632309
 30
0.0
 40
30.00000000000002
100
AcDbArc
 50
214.010682188
 51
256.7934253632
  0
ARC
  5
81
330
1F
100
AcDbEntity
  8
0
  6
Continuous
 62
     7
100
AcDbCircle
 10
-887.2950519414
 20
572.0331189448
 30
0.0
 40
20.00000000000004
100
AcDbArc
 50
76.7934253632
 51
166.7934253632
  0
ARC
  5
82
330
1F
100
AcDbEntity
  8
0
  6
Continuous
 62
     7
100
AcDbCircle
 10
-892.3212288305
 20
550.6149596896
 30
0.0
 40
20.00000000000009
100
AcDbArc
 50
166.7934253632
 51
256.7934253632
  0
ARC
  5
83
330
1F
100
AcDbEntity
  8
0
  6
Continuous
 62
     7
100
AcDbCircle
 10
-713.1520144732
 20
472.618706858
 30
0.0
 40
4.999999999999954
100
AcDbArc
 50
346.7934253632
 51
76.7934253632
  0
ARC
  5
84
330
1F
100
AcDbEntity
  8
0
  6
Continuous
 62
     7
100
AcDbCircle
 10
-729.1443954841
 20
404.4700183189
 30
0.0
 40
5.000000000000064
100
AcDbArc
 50
256.7934253632
 51
346.7934253632
  0
CIRCLE
  5
85
330
1F
100
AcDbEntity
  8
0
  6
Continuous
 62
     7
100
AcDbCircle
 10
-759.7269252088
 20
414.2147028003
 30
0.0
 40
2.099999999999963
  0
CIRCLE
  5
86
330
1F
100
AcDbEntity
  8
0
  6
Continuous
 62
     7
100
AcDbCircle
 10
-754.015360562
 20
438.5535201357
 30
0.0
 40
2.100000000000028
  0
CIRCLE
  5
87
330
1F
100
AcDbEntity
  8
0
  6
Continuous
 62
     7
100
AcDbCircle
 10
-724.8087797595
 20
431.6996425596
 30
0.0
 40
2.100000000000013
  0
CIRCLE
  5
88
330
1F
100
AcDbEntity
  8
0
  6
Continuous
 62
     7
100
AcDbCircle
 10
-730.5203444063
 20
407.3608252242
 30
0.0
 40
2.099999999999956
  0
CIRCLE
  5
89
330
1F
100
AcDbEntity
  8
0
  6
Continuous
 62
     7
100
AcDbCircle
 10
-715.6702763247
 20
470.6417502962
 30
0.0
 40
2.10000000000002
  0
CIRCLE
  5
8A
330
1F
100
AcDbEntity
  8
0
  6
Continuous
 62
     7
100
AcDbCircle
 10
-721.3818409715
 20
446.3029329608
 30
0.0
 40
2.10000000000002
  0
CIRCLE
  5
8B
330
1F
100
AcDbEntity
  8
0
  6
Continuous
 62
     7
100
AcDbCircle
 10
-750.5884217739
 20
453.156810537
 30
0.0
 40
2.10000000000002
  0
CIRCLE
  5
8C
330
1F
100
AcDbEntity
  8
0
  6
Continuous
 62
     7
100
AcDbCircle
 10
-744.8768571272
 20
477.4956278724
 30
0.0
 40
2.099999999999971
  0
CIRCLE
  5
8D
330
1F
100
AcDbEntity
  8
0
  6
Continuous
 62
     7
100
AcDbCircle
 10
-895.6494565465
 20
562.6948148324
 30
0.0
 40
5.999999999999997
  0
CIRCLE
  5
8E
330
1F
100
AcDbEntity
  8
0
  6
Continuous
 62
     7
100
AcDbCircle
 10
-825.6120757821
 20
546.2592164049
 30
0.0
 40
5.999999999999997
  0
CIRCLE
  5
8F
330
1F
100
AcDbEntity
  8
0
  6
Continuous
 62
     7
100
AcDbCircle
 10
-860.6307661643
 20
554.4770156186
 30
0.0
 40
11.00000000000005
  0
CIRCLE
  5
90
330
1F
100
AcDbEntity
  8
0
  6
Continuous
 62
     7
100
AcDbCircle
 10
-879.2620029932
 20
542.9281189517
 30
0.0
 40
1.599999999999939
  0
CIRCLE
  5
91
330
1F
100
AcDbEntity
  8
0
  6
Continuous
 62
     7
100
AcDbCircle
 10
-872.1796628312
 20
573.1082524476
 30
0.0
 40
1.600000000000052
  0
CIRCLE
  5
92
330
1F
100
AcDbEntity
  8
0
  6
Continuous
 62
     7
100
AcDbCircle
 10
-841.9995293353
 20
566.0259122856
 30
0.0
 40
1.600000000000045
  0
CIRCLE
  5
93
330
1F
100
AcDbEntity
  8
0
  6
Continuous
 62
     7
100
AcDbCircle
 10
-849.0818694973
 20
535.8457787897
 30
0.0
 40
1.600000000000045
  0
CIRCLE
  5
94
330
1F
100
AcDbEntity
  8
0
  6
Continuous
 62
     7
100
AcDbCircle
 10
-824.8215267992
 20
573.8071748425
 30
0.0
 40
2.000000000000007
  0
CIRCLE
  5
95
330
1F
100
AcDbEntity
  8
0
  6
Continuous
 62
     7
100
AcDbCircle
 10
-874.4126784359
 20
585.2413989312
 30
0.0
 40
1.999999999999999
  0
CIRCLE
  5
96
330
1F
100
AcDbEntity
  8
0
  6
Continuous
 62
     7
100
AcDbCircle
 10
-897.9340824052
 20
552.9592878983
 30
0.0
 40
1.600000000000037
  0
CIRCLE
  5
97
330
1F
100
AcDbEntity
  8
0
  6
Continuous
 62
     7
100
AcDbCircle
 10
-827.8967016408
 20
536.5236894707
 30
0.0
 40
1.600000000000037
  0
CIRCLE
  5
98
330
1F
100
AcDbEntity
  8
0
  6
Continuous
 62
     7
100
AcDbCircle
 10
-893.3648306877
 20
572.4303417666
 30
0.0
 40
1.600000000000045
  0
CIRCLE
  5
99
330
1F
100
AcDbEntity
  8
0
  6
Continuous
 62
     7
100
AcDbCircle
 10
-823.3274499234
 20
555.994743339
 30
0.0
 40
1.600000000000045
  0
ARC
  5
9A
330
1F
100
AcDbEntity
  8
0
  6
Continuous
 62
     7
100
AcDbCircle
 10
-968.2959951962
 20
552.035429012
 30
0.0
 40
29.99999999999992
100
AcDbArc
 50
32.7856907085
 51
80.0168895193
  0
ARC
  5
9B
330
1F
100
AcDbEntity
  8
0
  6
Continuous
 62
     7
100
AcDbCircle
 10
-1010.7343929344
 20
496.5523848416
 30
0.0
 40
30.00000000000013
100
AcDbArc
 50
37.2341463441
 51
80.0168895193
  0
ARC
  5
9C
330
1F
100
AcDbEntity
  8
0
  6
Continuous
 62
     7
100
AcDbCircle
 10
-878.9491248599
 20
524.1238334938
 30
0.0
 40
30.00000000000004
100
AcDbArc
 50
212.7856907085
 51
260.0168895193
  0
ARC
  5
9D
330
1F
100
AcDbEntity
  8
0
  6
Continuous
 62
     7
100
AcDbCircle
 10
-897.0102488999
 20
446.0730973306
 30
0.0
 40
30.00000000000002
100
AcDbArc
 50
217.2341463441
 51
260.0168895193
  0
ARC
  5
9E
330
1F
100
AcDbEntity
  8
0
  6
Continuous
 62
     7
100
AcDbCircle
 10
-1026.0732551771
 20
572.3592975494
 30
0.0
 40
20.00000000000002
100
AcDbArc
 50
80.0168895193
 51
170.0168895193
  0
ARC
  5
9F
330
1F
100
AcDbEntity
  8
0
  6
Continuous
 62
     7
100
AcDbCircle
 10
-1029.8871283334
 20
550.692401797
 30
0.0
 40
20.00000000000002
100
AcDbArc
 50
170.0168895193
 51
260.0168895193
  0
ARC
  5
A0
330
1F
100
AcDbEntity
  8
0
  6
Continuous
 62
     7
100
AcDbCircle
 10
-846.6156323128
 20
482.8943076087
 30
0.0
 40
5.000000000000061
100
AcDbArc
 50
350.0168895193
 51
80.0168895193
  0
ARC
  5
A1
330
1F
100
AcDbEntity
  8
0
  6
Continuous
 62
     7
100
AcDbCircle
 10
-858.7506832647
 20
413.95418476
 30
0.0
 40
5.000000000000117
100
AcDbArc
 50
260.0168895193
 51
350.0168895193
  0
CIRCLE
  5
A2
330
1F
100
AcDbEntity
  8
0
  6
Continuous
 62
     7
100
AcDbCircle
 10
-889.8327733187
 20
421.9637838683
 30
0.0
 40
2.100000000000082
  0
CIRCLE
  5
A3
330
1F
100
AcDbEntity
  8
0
  6
Continuous
 62
     7
100
AcDbCircle
 10
-885.4988265502
 20
446.5852563143
 30
0.0
 40
2.100000000000026
  0
CIRCLE
  5
A4
330
1F
100
AcDbEntity
  8
0
  6
Continuous
 62
     7
100
AcDbCircle
 10
-855.953059615
 20
441.384520192
 30
0.0
 40
2.099999999999969
  0
CIRCLE
  5
A5
330
1F
100
AcDbEntity
  8
0
  6
Continuous
 62
     7
100
AcDbCircle
 10
-860.2870063835
 20
416.7630477461
 30
0.0
 40
2.099999999999969
  0
CIRCLE
  5
A6
330
1F
100
AcDbEntity
  8
0
  6
Continuous
 62
     7
100
AcDbCircle
 10
-849.0187447853
 20
480.7788761056
 30
0.0
 40
2.099999999999969
  0
CIRCLE
  5
A7
330
1F
100
AcDbEntity
  8
0
  6
Continuous
 62
     7
100
AcDbCircle
 10
-853.3526915539
 20
456.1574036596
 30
0.0
 40
2.099999999999969
  0
CIRCLE
  5
A8
330
1F
100
AcDbEntity
  8
0
  6
Continuous
 62
     7
100
AcDbCircle
 10
-882.898458489
 20
461.3581397819
 30
0.0
 40
2.100000000000026
  0
CIRCLE
  5
A9
330
1F
100
AcDbEntity
  8
0
  6
Continuous
 62
     7
100
AcDbCircle
 10
-878.5645117205
 20
485.9796122278
 30
0.0
 40
2.099999999999969
  0
CIRCLE
  5
AA
330
1F
100
AcDbEntity
  8
0
  6
Continuous
 62
     7
100
AcDbCircle
 10
-1033.8893451423
 20
562.5659968976
 30
0.0
 40
6.000000000000034
  0
CIRCLE
  5
AB
330
1F
100
AcDbEntity
  8
0
  6
Continuous
 62
     7
100
AcDbCircle
 10
-963.0385960318
 20
550.0946316765
 30
0.0
 40
5.999999999999907
  0
CIRCLE
  5
AC
330
1F
100
AcDbEntity
  8
0
  6
Continuous
 62
     7
100
AcDbCircle
 10
-998.463970587
 20
556.3303142871
 30
0.0
 40
11.00000000000007
  0
CIRCLE
  5
AD
330
1F
100
AcDbEntity
  8
0
  6
Continuous
 62
     7
100
AcDbCircle
 10
-963.788690557
 20
577.6417603558
 30
0.0
 40
1.99999999999996
  0
CIRCLE
  5
AE
330
1F
100
AcDbEntity
  8
0
  6
Continuous
 62
     7
100
AcDbCircle
 10
-1013.9540034376
 20
586.2711031298
 30
0.0
 40
1.999999999999974
  0
CIRCLE
  5
AF
330
1F
100
AcDbEntity
  8
0
  6
Continuous
 62
     7
100
AcDbCircle
 10
-1035.6229238497
 20
552.7174079193
 30
0.0
 40
1.59999999999999
  0
CIRCLE
  5
B0
330
1F
100
AcDbEntity
  8
0
  6
Continuous
 62
     7
100
AcDbCircle
 10
-964.7721747392
 20
540.2460426981
 30
0.0
 40
1.600000000000089
  0
CIRCLE
  5
B1
330
1F
100
AcDbEntity
  8
0
  6
Continuous
 62
     7
100
AcDbCircle
 10
-1032.1557664349
 20
572.414585876
 30
0.0
 40
1.599999999999962
  0
CIRCLE
  5
B2
330
1F
100
AcDbEntity
  8
0
  6
Continuous
 62
     7
100
AcDbCircle
 10
-961.3050173244
 20
559.9432206548
 30
0.0
 40
1.599999999999976
  0
CIRCLE
  5
B3
330
1F
100
AcDbEntity
  8
0
  6
Continuous
 62
     7
100
AcDbCircle
 10
-1373.4527834376
 20
419.287019816
 30
0.0
 40
5.999999999999898
  0
CIRCLE
  5
B4
330
1F
100
AcDbEntity
  8
0
  6
Continuous
 62
     7
100
AcDbCircle
 10
-1027.4527834376
 20
419.287019816
 30
0.0
 40
1.799999999999834
  0
CIRCLE
  5
B5
330
1F
100
AcDbEntity
  8
0
  6
Continuous
 62
     7
100
AcDbCircle
 10
-1195.4527834376
 20
419.287019816
 30
0.0
 40
10.99999999999994
  0
CIRCLE
  5
B6
330
1F
100
AcDbEntity
  8
0
  6
Continuous
 62
     7
100
AcDbCircle
 10
-1383.4527834376
 20
419.287019816
 30
0.0
 40
1.800000000000051
  0
CIRCLE
  5
B7
330
1F
100
AcDbEntity
  8
0
  6
Continuous
 62
     7
100
AcDbCircle
 10
-1363.4527834376
 20
419.287019816
 30
0.0
 40
1.800000000000051
  0
CIRCLE
  5
B8
330
1F
100
AcDbEntity
  8
0
  6
Continuous
 62
     7
100
AcDbCircle
 10
-1007.4527834376
 20
419.287019816
 30
0.0
 40
1.800000000000051
  0
CIRCLE
  5
B9
330
1F
100
AcDbEntity
  8
0
  6
Continuous
 62
     7
100
AcDbCircle
 10
-1017.4527834376
 20
419.287019816
 30
0.0
 40
6.000000000000132
  0
CIRCLE
  5
BA
330
1F
100
AcDbEntity
  8
0
  6
Continuous
 62
     7
100
AcDbCircle
 10
-1195.4527834376
 20
439.287019816
 30
0.0
 40
2.099999999999923
  0
CIRCLE
  5
BB
330
1F
100
AcDbEntity
  8
0
  6
Continuous
 62
     7
100
AcDbCircle
 10
-1235.4527834376
 20
439.287019816
 30
0.0
 40
2.100000000000141
  0
CIRCLE
  5
BC
330
1F
100
AcDbEntity
  8
0
  6
Continuous
 62
     7
100
AcDbCircle
 10
-1275.4527834376
 20
439.287019816
 30
0.0
 40
2.100000000000141
  0
CIRCLE
  5
BD
330
1F
100
AcDbEntity
  8
0
  6
Continuous
 62
     7
100
AcDbCircle
 10
-1315.4527834376
 20
439.287019816
 30
0.0
 40
2.099999999999923
  0
CIRCLE
  5
BE
330
1F
100
AcDbEntity
  8
0
  6
Continuous
 62
     7
100
AcDbCircle
 10
-1355.4527834376
 20
439.287019816
 30
0.0
 40
2.099999999999906
  0
CIRCLE
  5
BF
330
1F
100
AcDbEntity
  8
0
  6
Continuous
 62
     7
100
AcDbCircle
 10
-1155.4527834376
 20
439.287019816
 30
0.0
 40
2.099999999999923
  0
CIRCLE
  5
C0
330
1F
100
AcDbEntity
  8
0
  6
Continuous
 62
     7
100
AcDbCircle
 10
-1115.4527834376
 20
439.287019816
 30
0.0
 40
2.09999999999994
  0
CIRCLE
  5
C1
330
1F
100
AcDbEntity
  8
0
  6
Continuous
 62
     7
100
AcDbCircle
 10
-1075.4527834376
 20
439.287019816
 30
0.0
 40
2.100000000000157
  0
CIRCLE
  5
C2
330
1F
100
AcDbEntity
  8
0
  6
Continuous
 62
     7
100
AcDbCircle
 10
-1035.4527834376
 20
439.287019816
 30
0.0
 40
2.09999999999994
  0
CIRCLE
  5
C3
330
1F
100
AcDbEntity
  8
0
  6
Continuous
 62
     7
100
AcDbCircle
 10
-1373.4527834376
 20
480.5658584097
 30
0.0
 40
6.000000000000383
  0
CIRCLE
  5
C4
330
1F
100
AcDbEntity
  8
0
  6
Continuous
 62
     7
100
AcDbCircle
 10
-1027.4527834376
 20
480.5658584097
 30
0.0
 40
1.799999999999851
  0
CIRCLE
  5
C5
330
1F
100
AcDbEntity
  8
0
  6
Continuous
 62
     7
100
AcDbCircle
 10
-1195.4527834376
 20
480.5658584097
 30
0.0
 40
10.99999999999994
  0
CIRCLE
  5
C6
330
1F
100
AcDbEntity
  8
0
  6
Continuous
 62
     7
100
AcDbCircle
 10
-1383.4527834376
 20
480.5658584097
 30
0.0
 40
1.800000000000068
  0
CIRCLE
  5
C7
330
1F
100
AcDbEntity
  8
0
  6
Continuous
 62
     7
100
AcDbCircle
 10
-1363.4527834376
 20
480.5658584097
 30
0.0
 40
1.800000000000068
  0
CIRCLE
  5
C8
330
1F
100
AcDbEntity
  8
0
  6
Continuous
 62
     7
100
AcDbCircle
 10
-1007.4527834376
 20
480.5658584097
 30
0.0
 40
1.800000000000068
  0
CIRCLE
  5
C9
330
1F
100
AcDbEntity
  8
0
  6
Continuous
 62
     7
100
AcDbCircle
 10
-1017.4527834376
 20
480.5658584097
 30
0.0
 40
6.000000000000148
  0
CIRCLE
  5
CA
330
1F
100
AcDbEntity
  8
0
  6
Continuous
 62
     7
100
AcDbCircle
 10
-1210.9527834376
 20
496.0658584097
 30
0.0
 40
1.600000000000086
  0
CIRCLE
  5
CB
330
1F
100
AcDbEntity
  8
0
  6
Continuous
 62
     7
100
AcDbCircle
 10
-1179.9527834376
 20
496.0658584097
 30
0.0
 40
1.599999999999869
  0
CIRCLE
  5
CC
330
1F
100
AcDbEntity
  8
0
  6
Continuous
 62
     7
100
AcDbCircle
 10
-1210.9527834376
 20
465.0658584097
 30
0.0
 40
1.600000000000086
  0
CIRCLE
  5
CD
330
1F
100
AcDbEntity
  8
0
  6
Continuous
 62
     7
100
AcDbCircle
 10
-1179.9527834376
 20
465.0658584097
 30
0.0
 40
1.599999999999869
  0
CIRCLE
  5
CE
330
1F
100
AcDbEntity
  8
0
  6
Continuous
 62
     7
100
AcDbCircle
 10
-1195.4527834376
 20
500.5658584097
 30
0.0
 40
2.099999999999906
  0
CIRCLE
  5
CF
330
1F
100
AcDbEntity
  8
0
  6
Continuous
 62
     7
100
AcDbCircle
 10
-1155.4527834376
 20
500.5658584097
 30
0.0
 40
2.099999999999906
  0
CIRCLE
  5
D0
330
1F
100
AcDbEntity
  8
0
  6
Continuous
 62
     7
100
AcDbCircle
 10
-1115.4527834376
 20
500.5658584097
 30
0.0
 40
2.099999999999906
  0
CIRCLE
  5
D1
330
1F
100
AcDbEntity
  8
0
  6
Continuous
 62
     7
100
AcDbCircle
 10
-1075.4527834376
 20
500.5658584097
 30
0.0
 40
2.100000000000124
  0
CIRCLE
  5
D2
330
1F
100
AcDbEntity
  8
0
  6
Continuous
 62
     7
100
AcDbCircle
 10
-1035.4527834376
 20
500.5658584097
 30
0.0
 40
2.099999999999906
  0
CIRCLE
  5
D3
330
1F
100
AcDbEntity
  8
0
  6
Continuous
 62
     7
100
AcDbCircle
 10
-1235.4527834376
 20
500.5658584097
 30
0.0
 40
2.100000000000124
  0
CIRCLE
  5
D4
330
1F
100
AcDbEntity
  8
0
  6
Continuous
 62
     7
100
AcDbCircle
 10
-1275.4527834376
 20
500.5658584097
 30
0.0
 40
2.100000000000124
  0
CIRCLE
  5
D5
330
1F
100
AcDbEntity
  8
0
  6
Continuous
 62
     7
100
AcDbCircle
 10
-1315.4527834376
 20
500.5658584097
 30
0.0
 40
2.099999999999906
  0
CIRCLE
  5
D6
330
1F
100
AcDbEntity
  8
0
  6
Continuous
 62
     7
100
AcDbCircle
 10
-1355.4527834376
 20
500.5658584097
 30
0.0
 40
2.099999999999906
  0
CIRCLE
  5
D7
330
1F
100
AcDbEntity
  8
0
  6
Continuous
 62
     7
100
AcDbCircle
 10
-1253.4527834376
 20
580.287019816
 30
0.0
 40
2.100000000000157
  0
CIRCLE
  5
D8
330
1F
100
AcDbEntity
  8
0
  6
Continuous
 62
     7
100
AcDbCircle
 10
-1203.4527834376
 20
580.287019816
 30
0.0
 40
2.09999999999994
  0
CIRCLE
  5
D9
330
1F
100
AcDbEntity
  8
0
  6
Continuous
 62
     7
100
AcDbCircle
 10
-1203.4527834376
 20
530.287019816
 30
0.0
 40
2.099999999999906
  0
CIRCLE
  5
DA
330
1F
100
AcDbEntity
  8
0
  6
Continuous
 62
     7
100
AcDbCircle
 10
-1253.4527834376
 20
530.287019816
 30
0.0
 40
2.100000000000124
  0
ARC
  5
DB
330
1F
100
AcDbEntity
  8
0
  6
Continuous
 62
     7
100
AcDbCircle
 10
-665.7116945397
 20
410.6289664331
 30
0.0
 40
5.999999999999961
100
AcDbArc
 50
99.5940682269
 51
80.4059317731
  0
ARC
  5
DC
330
1F
100
AcDbEntity
  8
0
  6
Continuous
 62
     7
100
AcDbCircle
 10
-665.7116945397
 20
410.6289664331
 30
0.0
 40
8.000000000000016
100
AcDbArc
 50
213.3670129692
 51
326.6329870308
  0
CIRCLE
  5
DD
330
1F
100
AcDbEntity
  8
0
  6
Continuous
 62
     7
100
AcDbCircle
 10
-675.7116945397
 20
410.6289664331
 30
0.0
 40
1.299999999999981
  0
CIRCLE
  5
DE
330
1F
100
AcDbEntity
  8
0
  6
Continuous
 62
     7
100
AcDbCircle
 10
-655.7116945397
 20
410.6289664331
 30
0.0
 40
1.299999999999981
  0
ARC
  5
DF
330
1F
100
AcDbEntity
  8
0
  6
Continuous
 62
     7
100
AcDbCircle
 10
-675.7116945397
 20
410.6289664331
 30
0.0
 40
3.5
100
AcDbArc
 50
90.0
 51
270.0
  0
ARC
  5
E0
330
1F
100
AcDbEntity
  8
0
  6
Continuous
 62
     7
100
AcDbCircle
 10
-655.7116945397
 20
410.6289664331
 30
0.0
 40
3.5
100
AcDbArc
 50
270.0
 51
90.0
  0
ARC
  5
E1
330
1F
100
AcDbEntity
  8
0
  6
Continuous
 62
     7
100
AcDbCircle
 10
-665.7116945397
 20
410.6289664331
 30
0.0
 40
7.999999999999987
100
AcDbArc
 50
33.3670129692
 51
47.1096962145
  0
ARC
  5
E2
330
1F
100
AcDbEntity
  8
0
  6
Continuous
 62
     7
100
AcDbCircle
 10
-665.7116945397
 20
410.6289664331
 30
0.0
 40
7.999999999999984
100
AcDbArc
 50
132.3103105044
 51
146.6329870308
  0
ARC
  5
E3
330
1F
100
AcDbEntity
  8
0
  6
Continuous
 62
     7
100
AcDbCircle
 10
-657.3600479955
 20
416.1289664331
 30
0.0
 40
2.000000000000083
100
AcDbArc
 50
213.3670129692
 51
270.0
  0
ARC
  5
E4
330
1F
100
AcDbEntity
  8
0
  6
Continuous
 62
     7
100
AcDbCircle
 10
-657.3600479955
 20
405.1289664331
 30
0.0
 40
2.000000000000052
100
AcDbArc
 50
90.0
 51
146.6329870308
  0
ARC
  5
E5
330
1F
100
AcDbEntity
  8
0
  6
Continuous
 62
     7
100
AcDbCircle
 10
-674.063341084
 20
405.1289664331
 30
0.0
 40
2.0
100
AcDbArc
 50
33.3670129692
 51
90.0
  0
ARC
  5
E6
330
1F
100
AcDbEntity
  8
0
  6
Continuous
 62
     7
100
AcDbCircle
 10
-674.063341084
 20
416.1289664331
 30
0.0
 40
2.0
100
AcDbArc
 50
270.0
 51
326.6329870308
  0
ARC
  5
E7
330
1F
100
AcDbEntity
  8
0
  6
Continuous
 62
     7
100
AcDbCircle
 10
-974.745475636
 20
433.9834280228
 30
0.0
 40
6.000000000000017
100
AcDbArc
 50
99.5940682269
 51
80.4059317731
  0
ARC
  5
E8
330
1F
100
AcDbEntity
  8
0
  6
Continuous
 62
     7
100
AcDbCircle
 10
-974.745475636
 20
433.9834280228
 30
0.0
 40
7.999999999999984
100
AcDbArc
 50
213.3670129692
 51
326.6329870308
  0
CIRCLE
  5
E9
330
1F
100
AcDbEntity
  8
0
  6
Continuous
 62
     7
100
AcDbCircle
 10
-984.745475636
 20
433.9834280228
 30
0.0
 40
1.299999999999997
  0
CIRCLE
  5
EA
330
1F
100
AcDbEntity
  8
0
  6
Continuous
 62
     7
100
AcDbCircle
 10
-964.745475636
 20
433.9834280228
 30
0.0
 40
1.299999999999997
  0
ARC
  5
EB
330
1F
100
AcDbEntity
  8
0
  6
Continuous
 62
     7
100
AcDbCircle
 10
-984.745475636
 20
433.9834280228
 30
0.0
 40
3.5
100
AcDbArc
 50
90.0
 51
270.0
  0
ARC
  5
EC
330
1F
100
AcDbEntity
  8
0
  6
Continuous
 62
     7
100
AcDbCircle
 10
-964.745475636
 20
433.9834280228
 30
0.0
 40
3.5
100
AcDbArc
 50
270.0
 51
90.0
  0
ARC
  5
ED
330
1F
100
AcDbEntity
  8
0
  6
Continuous
 62
     7
100
AcDbCircle
 10
-974.745475636
 20
433.9834280228
 30
0.0
 40
8.000000000000028
100
AcDbArc
 50
33.3670129692
 51
47.1096962145
  0
ARC
  5
EE
330
1F
100
AcDbEntity
  8
0
  6
Continuous
 62
     7
100
AcDbCircle
 10
-974.745475636
 20
433.9834280228
 30
0.0
 40
8.00000000000002
100
AcDbArc
 50
132.3103105044
 51
146.6329870308
  0
ARC
  5
EF
330
1F
100
AcDbEntity
  8
0
  6
Continuous
 62
     7
100
AcDbCircle
 10
-966.3938290917
 20
439.4834280228
 30
0.0
 40
2.0
100
AcDbArc
 50
213.3670129692
 51
270.0
  0
ARC
  5
F0
330
1F
100
AcDbEntity
  8
0
  6
Continuous
 62
     7
100
AcDbCircle
 10
-966.3938290917
 20
428.4834280228
 30
0.0
 40
2.0
100
AcDbArc
 50
90.0
 51
146.6329870308
  0
ARC
  5
F1
330
1F
100
AcDbEntity
  8
0
  6
Continuous
 62
     7
100
AcDbCircle
 10
-983.0971221802
 20
428.4834280228
 30
0.0
 40
2.0
100
AcDbArc
 50
33.3670129692
 51
90.0
  0
ARC
  5
F2
330
1F
100
AcDbEntity
  8
0
  6
Continuous
 62
     7
100
AcDbCircle
 10
-983.0971221802
 20
439.4834280228
 30
0.0
 40
2.0
100
AcDbArc
 50
270.0
 51
326.6329870308
  0
ARC
  5
F3
330
1F
100
AcDbEntity
  8
0
  6
Continuous
 62
     7
100
AcDbCircle
 10
-973.9531853726
 20
404.6686882797
 30
0.0
 40
6.000000000000017
100
AcDbArc
 50
99.5940682269
 51
80.4059317731
  0
ARC
  5
F4
330
1F
100
AcDbEntity
  8
0
  6
Continuous
 62
     7
100
AcDbCircle
 10
-973.9531853726
 20
404.6686882797
 30
0.0
 40
7.999999999999984
100
AcDbArc
 50
213.3670129692
 51
326.6329870308
  0
CIRCLE
  5
F5
330
1F
100
AcDbEntity
  8
0
  6
Continuous
 62
     7
100
AcDbCircle
 10
-983.9531853726
 20
404.6686882797
 30
0.0
 40
1.299999999999997
  0
CIRCLE
  5
F6
330
1F
100
AcDbEntity
  8
0
  6
Continuous
 62
     7
100
AcDbCircle
 10
-963.9531853726
 20
404.6686882797
 30
0.0
 40
1.299999999999888
  0
ARC
  5
F7
330
1F
100
AcDbEntity
  8
0
  6
Continuous
 62
     7
100
AcDbCircle
 10
-983.9531853726
 20
404.6686882797
 30
0.0
 40
3.5
100
AcDbArc
 50
90.0
 51
270.0
  0
ARC
  5
F8
330
1F
100
AcDbEntity
  8
0
  6
Continuous
 62
     7
100
AcDbCircle
 10
-963.9531853726
 20
404.6686882797
 30
0.0
 40
3.5
100
AcDbArc
 50
270.0
 51
90.0
  0
ARC
  5
F9
330
1F
100
AcDbEntity
  8
0
  6
Continuous
 62
     7
100
AcDbCircle
 10
-973.9531853726
 20
404.6686882797
 30
0.0
 40
8.000000000000016
100
AcDbArc
 50
33.3670129692
 51
47.1096962145
  0
ARC
  5
FA
330
1F
100
AcDbEntity
  8
0
  6
Continuous
 62
     7
100
AcDbCircle
 10
-973.9531853726
 20
404.6686882797
 30
0.0
 40
7.999999999999943
100
AcDbArc
 50
132.3103105044
 51
146.6329870308
  0
ARC
  5
FB
330
1F
100
AcDbEntity
  8
0
  6
Continuous
 62
     7
100
AcDbCircle
 10
-965.6015388284
 20
410.1686882797
 30
0.0
 40
2.000000000000052
100
AcDbArc
 50
213.3670129692
 51
270.0
  0
ARC
  5
FC
330
1F
100
AcDbEntity
  8
0
  6
Continuous
 62
     7
100
AcDbCircle
 10
-965.6015388284
 20
399.1686882797
 30
0.0
 40
2.000000000000083
100
AcDbArc
 50
90.0
 51
146.6329870308
  0
ARC
  5
FD
330
1F
100
AcDbEntity
  8
0
  6
Continuous
 62
     7
100
AcDbCircle
 10
-982.3048319169
 20
399.1686882797
 30
0.0
 40
2.000000000000083
100
AcDbArc
 50
33.3670129692
 51
90.0
  0
ARC
  5
FE
330
1F
100
AcDbEntity
  8
0
  6
Continuous
 62
     7
100
AcDbCircle
 10
-982.3048319169
 20
410.1686882797
 30
0.0
 40
2.000000000000052
100
AcDbArc
 50
270.0
 51
326.6329870308
  0
ARC
  5
FF
330
1F
100
AcDbEntity
  8
0
  6
Continuous
 62
     7
100
AcDbCircle
 10
-668.638318151
 20
453.5766681248
 30
0.0
 40
6.000000000000017
100
AcDbArc
 50
99.5940682269
 51
80.4059317731
  0
ARC
  5
100
330
1F
100
AcDbEntity
  8
0
  6
Continuous
 62
     7
100
AcDbCircle
 10
-668.638318151
 20
453.5766681248
 30
0.0
 40
8.000000000000016
100
AcDbArc
 50
213.3670129692
 51
326.6329870308
  0
CIRCLE
  5
101
330
1F
100
AcDbEntity
  8
0
  6
Continuous
 62
     7
100
AcDbCircle
 10
-678.638318151
 20
453.5766681248
 30
0.0
 40
1.299999999999997
  0
CIRCLE
  5
102
330
1F
100
AcDbEntity
  8
0
  6
Continuous
 62
     7
100
AcDbCircle
 10
-658.638318151
 20
453.5766681248
 30
0.0
 40
1.299999999999997
  0
ARC
  5
103
330
1F
100
AcDbEntity
  8
0
  6
Continuous
 62
     7
100
AcDbCircle
 10
-678.638318151
 20
453.5766681248
 30
0.0
 40
3.5
100
AcDbArc
 50
90.0
 51
270.0
  0
ARC
  5
104
330
1F
100
AcDbEntity
  8
0
  6
Continuous
 62
     7
100
AcDbCircle
 10
-658.638318151
 20
453.5766681248
 30
0.0
 40
3.5
100
AcDbArc
 50
270.0
 51
90.0
  0
ARC
  5
105
330
1F
100
AcDbEntity
  8
0
  6
Continuous
 62
     7
100
AcDbCircle
 10
-668.638318151
 20
453.5766681248
 30
0.0
 40
8.000000000000016
100
AcDbArc
 50
33.3670129692
 51
47.1096962145
  0
ARC
  5
106
330
1F
100
AcDbEntity
  8
0
  6
Continuous
 62
     7
100
AcDbCircle
 10
-668.638318151
 20
453.5766681248
 30
0.0
 40
8.00000000000002
100
AcDbArc
 50
132.3103105044
 51
146.6329870308
  0
ARC
  5
107
330
1F
100
AcDbEntity
  8
0
  6
Continuous
 62
     7
100
AcDbCircle
 10
-660.2866716068
 20
459.0766681248
 30
0.0
 40
2.0
100
AcDbArc
 50
213.3670129692
 51
270.0
  0
ARC
  5
108
330
1F
100
AcDbEntity
  8
0
  6
Continuous
 62
     7
100
AcDbCircle
 10
-660.2866716068
 20
448.0766681248
 30
0.0
 40
2.0
100
AcDbArc
 50
90.0
 51
146.6329870308
  0
ARC
  5
109
330
1F
100
AcDbEntity
  8
0
  6
Continuous
 62
     7
100
AcDbCircle
 10
-676.9899646953
 20
448.0766681248
 30
0.0
 40
2.0
100
AcDbArc
 50
33.3670129692
 51
90.0
  0
ARC
  5
10A
330
1F
100
AcDbEntity
  8
0
  6
Continuous
 62
     7
100
AcDbCircle
 10
-676.9899646953
 20
459.0766681248
 30
0.0
 40
2.0
100
AcDbArc
 50
270.0
 51
326.6329870308
  0
ARC
  5
10B
330
1F
100
AcDbEntity
  8
0
  6
Continuous
 62
     7
100
AcDbCircle
 10
-694.3440360027
 20
425.8216374134
 30
0.0
 40
5.999999999999961
100
AcDbArc
 50
99.5940682269
 51
80.4059317731
  0
ARC
  5
10C
330
1F
100
AcDbEntity
  8
0
  6
Continuous
 62
     7
100
AcDbCircle
 10
-694.3440360027
 20
425.8216374134
 30
0.0
 40
8.000000000000016
100
AcDbArc
 50
213.3670129692
 51
326.6329870308
  0
CIRCLE
  5
10D
330
1F
100
AcDbEntity
  8
0
  6
Continuous
 62
     7
100
AcDbCircle
 10
-704.3440360027
 20
425.8216374134
 30
0.0
 40
1.299999999999981
  0
CIRCLE
  5
10E
330
1F
100
AcDbEntity
  8
0
  6
Continuous
 62
     7
100
AcDbCircle
 10
-684.3440360027
 20
425.8216374134
 30
0.0
 40
1.299999999999981
  0
ARC
  5
10F
330
1F
100
AcDbEntity
  8
0
  6
Continuous
 62
     7
100
AcDbCircle
 10
-704.3440360027
 20
425.8216374134
 30
0.0
 40
3.5
100
AcDbArc
 50
90.0
 51
270.0
  0
ARC
  5
110
330
1F
100
AcDbEntity
  8
0
  6
Continuous
 62
     7
100
AcDbCircle
 10
-684.3440360027
 20
425.8216374134
 30
0.0
 40
3.5
100
AcDbArc
 50
270.0
 51
90.0
  0
ARC
  5
111
330
1F
100
AcDbEntity
  8
0
  6
Continuous
 62
     7
100
AcDbCircle
 10
-694.3440360027
 20
425.8216374134
 30
0.0
 40
7.999999999999987
100
AcDbArc
 50
33.3670129692
 51
47.1096962145
  0
ARC
  5
112
330
1F
100
AcDbEntity
  8
0
  6
Continuous
 62
     7
100
AcDbCircle
 10
-694.3440360027
 20
425.8216374134
 30
0.0
 40
7.999999999999984
100
AcDbArc
 50
132.3103105044
 51
146.6329870308
  0
ARC
  5
113
330
1F
100
AcDbEntity
  8
0
  6
Continuous
 62
     7
100
AcDbCircle
 10
-685.9923894584
 20
431.3216374134
 30
0.0
 40
2.0
100
AcDbArc
 50
213.3670129692
 51
270.0
  0
ARC
  5
114
330
1F
100
AcDbEntity
  8
0
  6
Continuous
 62
     7
100
AcDbCircle
 10
-685.9923894584
 20
420.3216374134
 30
0.0
 40
2.0
100
AcDbArc
 50
90.0
 51
146.6329870308
  0
ARC
  5
115
330
1F
100
AcDbEntity
  8
0
  6
Continuous
 62
     7
100
AcDbCircle
 10
-702.6956825469
 20
420.3216374134
 30
0.0
 40
2.0
100
AcDbArc
 50
33.3670129692
 51
90.0
  0
ARC
  5
116
330
1F
100
AcDbEntity
  8
0
  6
Continuous
 62
     7
100
AcDbCircle
 10
-702.6956825469
 20
431.3216374134
 30
0.0
 40
2.0
100
AcDbArc
 50
270.0
 51
326.6329870308
  0
ARC
  5
117
330
1F
100
AcDbEntity
  8
0
  6
Continuous
 62
     7
100
AcDbCircle
 10
-943.2701066805
 20
422.315636418
 30
0.0
 40
5.999999999999961
100
AcDbArc
 50
99.5940682269
 51
80.4059317731
  0
ARC
  5
118
330
1F
100
AcDbEntity
  8
0
  6
Continuous
 62
     7
100
AcDbCircle
 10
-943.2701066805
 20
422.315636418
 30
0.0
 40
8.000000000000016
100
AcDbArc
 50
213.3670129692
 51
326.6329870308
  0
CIRCLE
  5
119
330
1F
100
AcDbEntity
  8
0
  6
Continuous
 62
     7
100
AcDbCircle
 10
-953.2701066805
 20
422.315636418
 30
0.0
 40
1.299999999999981
  0
CIRCLE
  5
11A
330
1F
100
AcDbEntity
  8
0
  6
Continuous
 62
     7
100
AcDbCircle
 10
-933.2701066805
 20
422.315636418
 30
0.0
 40
1.299999999999981
  0
ARC
  5
11B
330
1F
100
AcDbEntity
  8
0
  6
Continuous
 62
     7
100
AcDbCircle
 10
-953.2701066805
 20
422.315636418
 30
0.0
 40
3.5
100
AcDbArc
 50
90.0
 51
270.0
  0
ARC
  5
11C
330
1F
100
AcDbEntity
  8
0
  6
Continuous
 62
     7
100
AcDbCircle
 10
-933.2701066805
 20
422.315636418
 30
0.0
 40
3.5
100
AcDbArc
 50
270.0
 51
90.0
  0
ARC
  5
11D
330
1F
100
AcDbEntity
  8
0
  6
Continuous
 62
     7
100
AcDbCircle
 10
-943.2701066805
 20
422.315636418
 30
0.0
 40
7.999999999999987
100
AcDbArc
 50
33.3670129692
 51
47.1096962145
  0
ARC
  5
11E
330
1F
100
AcDbEntity
  8
0
  6
Continuous
 62
     7
100
AcDbCircle
 10
-943.2701066805
 20
422.315636418
 30
0.0
 40
7.999999999999984
100
AcDbArc
 50
132.3103105044
 51
146.6329870308
  0
ARC
  5
11F
330
1F
100
AcDbEntity
  8
0
  6
Continuous
 62
     7
100
AcDbCircle
 10
-934.9184601363
 20
427.815636418
 30
0.0
 40
2.0
100
AcDbArc
 50
213.3670129692
 51
270.0
  0
ARC
  5
120
330
1F
100
AcDbEntity
  8
0
  6
Continuous
 62
     7
100
AcDbCircle
 10
-934.9184601363
 20
416.815636418
 30
0.0
 40
2.0
100
AcDbArc
 50
90.0
 51
146.6329870308
  0
ARC
  5
121
330
1F
100
AcDbEntity
  8
0
  6
Continuous
 62
     7
100
AcDbCircle
 10
-951.6217532248
 20
416.815636418
 30
0.0
 40
2.0
100
AcDbArc
 50
33.3670129692
 51
90.0
  0
ARC
  5
122
330
1F
100
AcDbEntity
  8
0
  6
Continuous
 62
     7
100
AcDbCircle
 10
-951.6217532248
 20
427.815636418
 30
0.0
 40
2.0
100
AcDbArc
 50
270.0
 51
326.6329870308
  0
ARC
  5
123
330
1F
100
AcDbEntity
  8
0
  6
Continuous
 62
     7
100
AcDbCircle
 10
-828.1564073295
 20
435.7553069006
 30
0.0
 40
5.999999999999961
100
AcDbArc
 50
99.5940682269
 51
80.4059317731
  0
ARC
  5
124
330
1F
100
AcDbEntity
  8
0
  6
Continuous
 62
     7
100
AcDbCircle
 10
-828.1564073295
 20
435.7553069006
 30
0.0
 40
8.000000000000016
100
AcDbArc
 50
213.3670129692
 51
326.6329870308
  0
CIRCLE
  5
125
330
1F
100
AcDbEntity
  8
0
  6
Continuous
 62
     7
100
AcDbCircle
 10
-838.1564073295
 20
435.7553069006
 30
0.0
 40
1.299999999999981
  0
CIRCLE
  5
126
330
1F
100
AcDbEntity
  8
0
  6
Continuous
 62
     7
100
AcDbCircle
 10
-818.1564073295
 20
435.7553069006
 30
0.0
 40
1.299999999999981
  0
ARC
  5
127
330
1F
100
AcDbEntity
  8
0
  6
Continuous
 62
     7
100
AcDbCircle
 10
-838.1564073295
 20
435.7553069006
 30
0.0
 40
3.5
100
AcDbArc
 50
90.0
 51
270.0
  0
ARC
  5
128
330
1F
100
AcDbEntity
  8
0
  6
Continuous
 62
     7
100
AcDbCircle
 10
-818.1564073295
 20
435.7553069006
 30
0.0
 40
3.5
100
AcDbArc
 50
270.0
 51
90.0
  0
ARC
  5
129
330
1F
100
AcDbEntity
  8
0
  6
Continuous
 62
     7
100
AcDbCircle
 10
-828.1564073295
 20
435.7553069006
 30
0.0
 40
7.999999999999987
100
AcDbArc
 50
33.3670129692
 51
47.1096962145
  0
ARC
  5
12A
330
1F
100
AcDbEntity
  8
0
  6
Continuous
 62
     7
100
AcDbCircle
 10
-828.1564073295
 20
435.7553069006
 30
0.0
 40
7.999999999999984
100
AcDbArc
 50
132.3103105044
 51
146.6329870308
  0
ARC
  5
12B
330
1F
100
AcDbEntity
  8
0
  6
Continuous
 62
     7
100
AcDbCircle
 10
-819.8047607853
 20
441.2553069006
 30
0.0
 40
2.0
100
AcDbArc
 50
213.3670129692
 51
270.0
  0
ARC
  5
12C
330
1F
100
AcDbEntity
  8
0
  6
Continuous
 62
     7
100
AcDbCircle
 10
-819.8047607853
 20
430.2553069006
 30
0.0
 40
2.0
100
AcDbArc
 50
90.0
 51
146.6329870308
  0
ARC
  5
12D
330
1F
100
AcDbEntity
  8
0
  6
Continuous
 62
     7
100
AcDbCircle
 10
-836.5080538738
 20
430.2553069006
 30
0.0
 40
2.0
100
AcDbArc
 50
33.3670129692
 51
90.0
  0
ARC
  5
12E
330
1F
100
AcDbEntity
  8
0
  6
Continuous
 62
     7
100
AcDbCircle
 10
-836.5080538738
 20
441.2553069006
 30
0.0
 40
2.0
100
AcDbArc
 50
270.0
 51
326.6329870308
  0
ARC
  5
12F
330
1F
100
AcDbEntity
  8
0
  6
Continuous
 62
     7
100
AcDbCircle
 10
-977.9146366893
 20
466.8634739508
 30
0.0
 40
5.999999999999961
100
AcDbArc
 50
99.5940682269
 51
80.4059317731
  0
ARC
  5
130
330
1F
100
AcDbEntity
  8
0
  6
Continuous
 62
     7
100
AcDbCircle
 10
-977.9146366893
 20
466.8634739508
 30
0.0
 40
8.000000000000016
100
AcDbArc
 50
213.3670129692
 51
326.6329870308
  0
CIRCLE
  5
131
330
1F
100
AcDbEntity
  8
0
  6
Continuous
 62
     7
100
AcDbCircle
 10
-987.9146366893
 20
466.8634739508
 30
0.0
 40
1.299999999999872
  0
CIRCLE
  5
132
330
1F
100
AcDbEntity
  8
0
  6
Continuous
 62
     7
100
AcDbCircle
 10
-967.9146366893
 20
466.8634739508
 30
0.0
 40
1.299999999999981
  0
ARC
  5
133
330
1F
100
AcDbEntity
  8
0
  6
Continuous
 62
     7
100
AcDbCircle
 10
-987.9146366893
 20
466.8634739508
 30
0.0
 40
3.500000000000057
100
AcDbArc
 50
90.0
 51
270.0
  0
ARC
  5
134
330
1F
100
AcDbEntity
  8
0
  6
Continuous
 62
     7
100
AcDbCircle
 10
-967.9146366893
 20
466.8634739508
 30
0.0
 40
3.500000000000057
100
AcDbArc
 50
270.0
 51
90.0
  0
ARC
  5
135
330
1F
100
AcDbEntity
  8
0
  6
Continuous
 62
     7
100
AcDbCircle
 10
-977.9146366893
 20
466.8634739508
 30
0.0
 40
7.999999999999909
100
AcDbArc
 50
33.3670129692
 51
47.1096962145
  0
ARC
  5
136
330
1F
100
AcDbEntity
  8
0
  6
Continuous
 62
     7
100
AcDbCircle
 10
-977.9146366893
 20
466.8634739508
 30
0.0
 40
7.999999999999984
100
AcDbArc
 50
132.3103105044
 51
146.6329870308
  0
ARC
  5
137
330
1F
100
AcDbEntity
  8
0
  6
Continuous
 62
     7
100
AcDbCircle
 10
-969.562990145
 20
472.3634739508
 30
0.0
 40
2.000000000000083
100
AcDbArc
 50
213.3670129692
 51
270.0
  0
ARC
  5
138
330
1F
100
AcDbEntity
  8
0
  6
Continuous
 62
     7
100
AcDbCircle
 10
-969.562990145
 20
461.3634739508
 30
0.0
 40
2.000000000000083
100
AcDbArc
 50
90.0
 51
146.6329870308
  0
ARC
  5
139
330
1F
100
AcDbEntity
  8
0
  6
Continuous
 62
     7
100
AcDbCircle
 10
-986.2662832335
 20
461.3634739508
 30
0.0
 40
2.000000000000083
100
AcDbArc
 50
33.3670129692
 51
90.0
  0
ARC
  5
13A
330
1F
100
AcDbEntity
  8
0
  6
Continuous
 62
     7
100
AcDbCircle
 10
-986.2662832335
 20
472.3634739508
 30
0.0
 40
2.000000000000083
100
AcDbArc
 50
270.0
 51
326.6329870308
  0
CIRCLE
  5
13B
330
1F
100
AcDbEntity
  8
0
  6
Continuous
 62
     7
100
AcDbCircle
 10
-692.4527834376
 20
528.6779528149
 30
0.0
 40
2.09999999999994
  0
CIRCLE
  5
13C
330
1F
100
AcDbEntity
  8
0
  6
Continuous
 62
     7
100
AcDbCircle
 10
-692.4527834376
 20
508.6779528149
 30
0.0
 40
2.09999999999994
  0
CIRCLE
  5
13D
330
1F
100
AcDbEntity
  8
0
  6
Continuous
 62
     7
100
AcDbCircle
 10
-692.4527834376
 20
488.6779528149
 30
0.0
 40
2.09999999999994
  0
CIRCLE
  5
13E
330
1F
100
AcDbEntity
  8
0
  6
Continuous
 62
     7
100
AcDbCircle
 10
-200.4527834376
 20
488.6779528149
 30
0.0
 40
2.100000000000076
  0
CIRCLE
  5
13F
330
1F
100
AcDbEntity
  8
0
  6
Continuous
 62
     7
100
AcDbCircle
 10
-200.4527834376
 20
508.6779528149
 30
0.0
 40
2.100000000000076
  0
CIRCLE
  5
140
330
1F
100
AcDbEntity
  8
0
  6
Continuous
 62
     7
100
AcDbCircle
 10
-200.4527834376
 20
528.6779528149
 30
0.0
 40
2.100000000000076
  0
CIRCLE
  5
141
330
1F
100
AcDbEntity
  8
0
  6
Continuous
 62
     7
100
AcDbCircle
 10
-692.4527834376
 20
589.0596514354
 30
0.0
 40
2.100000000000048
  0
CIRCLE
  5
142
330
1F
100
AcDbEntity
  8
0
  6
Continuous
 62
     7
100
AcDbCircle
 10
-692.4527834376
 20
569.0596514354
 30
0.0
 40
2.100000000000048
  0
CIRCLE
  5
143
330
1F
100
AcDbEntity
  8
0
  6
Continuous
 62
     7
100
AcDbCircle
 10
-692.4527834376
 20
549.0596514354
 30
0.0
 40
2.100000000000048
  0
CIRCLE
  5
144
330
1F
100
AcDbEntity
  8
0
  6
Continuous
 62
     7
100
AcDbCircle
 10
-200.4527834376
 20
549.0596514354
 30
0.0
 40
2.100000000000076
  0
CIRCLE
  5
145
330
1F
100
AcDbEntity
  8
0
  6
Continuous
 62
     7
100
AcDbCircle
 10
-200.4527834376
 20
569.0596514354
 30
0.0
 40
2.100000000000076
  0
CIRCLE
  5
146
330
1F
100
AcDbEntity
  8
0
  6
Continuous
 62
     7
100
AcDbCircle
 10
-200.4527834376
 20
589.0596514354
 30
0.0
 40
2.100000000000076
  0
LINE
  5
147
330
1F
100
AcDbEntity
  8
0
  6
Continuous
 62
     7
100
AcDbLine
 10
-724.2766320171
 20
403.3277053896
 30
0.0
 11
-708.2842510061
 21
471.4763939287
 31
0.0
  0
LINE
  5
148
330
1F
100
AcDbEntity
  8
0
  6
Continuous
 62
     7
100
AcDbLine
 10
-730.2867084135
 20
399.6022548518
 30
0.0
 11
-772.391246245
 21
409.4828824285
 31
0.0
  0
LINE
  5
149
330
1F
100
AcDbEntity
  8
0
  6
Continuous
 62
     7
100
AcDbLine
 10
-712.0097015438
 20
477.4864703251
 30
0.0
 11
-749.9794039585
 21
486.3967804265
 31
0.0
  0
LINE
  5
14A
330
1F
100
AcDbEntity
  8
0
  6
Continuous
 62
     7
100
AcDbLine
 10
-911.7922826989
 20
555.184211407
 30
0.0
 11
-906.7661058097
 21
576.6023706622
 31
0.0
  0
LINE
  5
14B
330
1F
100
AcDbEntity
  8
0
  6
Continuous
 62
     7
100
AcDbLine
 10
-896.890480548
 20
531.1439058213
 30
0.0
 11
-869.3892331177
 21
524.6902170327
 31
0.0
  0
LINE
  5
14C
330
1F
100
AcDbEntity
  8
0
  6
Continuous
 62
     7
100
AcDbLine
 10
-882.725800224
 20
591.5041728131
 30
0.0
 11
-823.9076764557
 21
577.7013856162
 31
0.0
  0
LINE
  5
14D
330
1F
100
AcDbEntity
  8
0
  6
Continuous
 62
     7
100
AcDbLine
 10
-851.3751116163
 20
512.2640599996
 30
0.0
 11
-790.4053677464
 21
421.9090394616
 31
0.0
  0
LINE
  5
14E
330
1F
100
AcDbEntity
  8
0
  6
Continuous
 62
     7
100
AcDbLine
 10
-804.6669425692
 20
563.2958606077
 30
0.0
 11
-769.220137845
 21
500.8023054351
 31
0.0
  0
LINE
  5
14F
330
1F
100
AcDbEntity
  8
0
  6
Continuous
 62
     7
100
AcDbLine
 10
-853.8263887755
 20
413.0873954063
 30
0.0
 11
-841.6913378236
 21
482.027518255
 31
0.0
  0
LINE
  5
150
330
1F
100
AcDbEntity
  8
0
  6
Continuous
 62
     7
100
AcDbLine
 10
-859.6174726184
 20
409.0298902708
 30
0.0
 11
-902.2109850222
 21
416.5273303954
 31
0.0
  0
LINE
  5
151
330
1F
100
AcDbEntity
  8
0
  6
Continuous
 62
     7
100
AcDbLine
 10
-845.7488429591
 20
487.8186020979
 30
0.0
 11
-884.1498609822
 21
494.5780665586
 31
0.0
  0
LINE
  5
152
330
1F
100
AcDbEntity
  8
0
  6
Continuous
 62
     7
100
AcDbLine
 10
-1049.5843062902
 20
554.1595592118
 30
0.0
 11
-1045.7704331339
 21
575.8264549642
 31
0.0
  0
LINE
  5
153
330
1F
100
AcDbEntity
  8
0
  6
Continuous
 62
     7
100
AcDbLine
 10
-1033.3542857483
 20
530.9952238402
 30
0.0
 11
-1005.5336568121
 21
526.0981517767
 31
0.0
  0
LINE
  5
154
330
1F
100
AcDbEntity
  8
0
  6
Continuous
 62
     7
100
AcDbLine
 10
-1022.6060977623
 20
592.0564755062
 30
0.0
 11
-963.095259074
 21
581.5811959471
 31
0.0
  0
LINE
  5
155
330
1F
100
AcDbEntity
  8
0
  6
Continuous
 62
     7
100
AcDbLine
 10
-986.8493092545
 20
514.7045962111
 30
0.0
 11
-920.8953325798
 21
427.920885961
 31
0.0
  0
LINE
  5
156
330
1F
100
AcDbEntity
  8
0
  6
Continuous
 62
     7
100
AcDbLine
 10
-943.0749392225
 20
568.2803770134
 30
0.0
 11
-904.1701808337
 21
507.8788854923
 31
0.0
  0
LINE
  5
157
330
1F
100
AcDbEntity
  8
0
  6
Continuous
 62
     7
100
AcDbLine
 10
-1396.4527834376
 20
394.287019816
 30
0.0
 11
-994.4527834376
 21
394.287019816
 31
0.0
  0
LINE
  5
158
330
1F
100
AcDbEntity
  8
0
  6
Continuous
 62
     7
100
AcDbLine
 10
-1396.4527834376
 20
394.287019816
 30
0.0
 11
-1396.4527834376
 21
444.287019816
 31
0.0
  0
LINE
  5
159
330
1F
100
AcDbEntity
  8
0
  6
Continuous
 62
     7
100
AcDbLine
 10
-1396.4527834376
 20
444.287019816
 30
0.0
 11
-994.4527834376
 21
444.287019816
 31
0.0
  0
LINE
  5
15A
330
1F
100
AcDbEntity
  8
0
  6
Continuous
 62
     7
100
AcDbLine
 10
-994.4527834376
 20
394.287019816
 30
0.0
 11
-994.4527834376
 21
444.287019816
 31
0.0
  0
LINE
  5
15B
330
1F
100
AcDbEntity
  8
0
  6
Continuous
 62
     7
100
AcDbLine
 10
-1396.4527834376
 20
455.5658584097
 30
0.0
 11
-994.4527834376
 21
455.5658584097
 31
0.0
  0
LINE
  5
15C
330
1F
100
AcDbEntity
  8
0
  6
Continuous
 62
     7
100
AcDbLine
 10
-1396.4527834376
 20
455.5658584097
 30
0.0
 11
-1396.4527834376
 21
505.5658584097
 31
0.0
  0
LINE
  5
15D
330
1F
100
AcDbEntity
  8
0
  6
Continuous
 62
     7
100
AcDbLine
 10
-1396.4527834376
 20
505.5658584097
 30
0.0
 11
-994.4527834376
 21
505.5658584097
 31
0.0
  0
LINE
  5
15E
330
1F
100
AcDbEntity
  8
0
  6
Continuous
 62
     7
100
AcDbLine
 10
-994.4527834376
 20
455.5658584097
 30
0.0
 11
-994.4527834376
 21
505.5658584097
 31
0.0
  0
LINE
  5
15F
330
1F
100
AcDbEntity
  8
0
  6
Continuous
 62
     7
100
AcDbLine
 10
-580.4527834376
 20
394.0596514354
 30
0.0
 11
-196.4527834376
 21
394.0596514354
 31
0.0
  0
LINE
  5
160
330
1F
100
AcDbEntity
  8
0
  6
Continuous
 62
     7
100
AcDbLine
 10
-580.4527834376
 20
394.0596514354
 30
0.0
 11
-580.4527834376
 21
458.0596514354
 31
0.0
  0
LINE
  5
161
330
1F
100
AcDbEntity
  8
0
  6
Continuous
 62
     7
100
AcDbLine
 10
-580.4527834376
 20
458.0596514354
 30
0.0
 11
-196.4527834376
 21
458.0596514354
 31
0.0
  0
LINE
  5
162
330
1F
100
AcDbEntity
  8
0
  6
Continuous
 62
     7
100
AcDbLine
 10
-196.4527834376
 20
394.0596514354
 30
0.0
 11
-196.4527834376
 21
458.0596514354
 31
0.0
  0
LINE
  5
163
330
1F
100
AcDbEntity
  8
0
  6
Continuous
 62
     7
100
AcDbLine
 10
-1396.4527834376
 20
516.287019816
 30
0.0
 11
-1060.4527834376
 21
516.287019816
 31
0.0
  0
LINE
  5
164
330
1F
100
AcDbEntity
  8
0
  6
Continuous
 62
     7
100
AcDbLine
 10
-1396.4527834376
 20
516.287019816
 30
0.0
 11
-1396.4527834376
 21
594.287019816
 31
0.0
  0
LINE
  5
165
330
1F
100
AcDbEntity
  8
0
  6
Continuous
 62
     7
100
AcDbLine
 10
-1396.4527834376
 20
594.287019816
 30
0.0
 11
-1060.4527834376
 21
594.287019816
 31
0.0
  0
LINE
  5
166
330
1F
100
AcDbEntity
  8
0
  6
Continuous
 62
     7
100
AcDbLine
 10
-1060.4527834376
 20
516.287019816
 30
0.0
 11
-1060.4527834376
 21
594.287019816
 31
0.0
  0
LINE
  5
167
330
1F
100
AcDbEntity
  8
0
  6
Continuous
 62
     7
100
AcDbLine
 10
-675.7116945397
 20
414.1289664331
 30
0.0
 11
-674.063341084
 21
414.1289664331
 31
0.0
  0
LINE
  5
168
330
1F
100
AcDbEntity
  8
0
  6
Continuous
 62
     7
100
AcDbLine
 10
-675.7116945397
 20
407.1289664331
 30
0.0
 11
-674.063341084
 21
407.1289664331
 31
0.0
  0
LINE
  5
169
330
1F
100
AcDbEntity
  8
0
  6
Continuous
 62
     7
100
AcDbLine
 10
-657.3600479955
 20
414.1289664331
 30
0.0
 11
-655.7116945397
 21
414.1289664331
 31
0.0
  0
LINE
  5
16A
330
1F
100
AcDbEntity
  8
0
  6
Continuous
 62
     7
100
AcDbLine
 10
-657.3600479955
 20
407.1289664331
 30
0.0
 11
-655.7116945397
 21
407.1289664331
 31
0.0
  0
LINE
  5
16B
330
1F
100
AcDbEntity
  8
0
  6
Continuous
 62
     7
100
AcDbLine
 10
-666.7116945397
 20
423.5450462162
 30
0.0
 11
-666.7116945397
 21
416.5450462162
 31
0.0
  0
LINE
  5
16C
330
1F
100
AcDbEntity
  8
0
  6
Continuous
 62
     7
100
AcDbLine
 10
-671.0968593469
 20
416.5450462162
 30
0.0
 11
-671.1564696625
 21
416.5450462162
 31
0.0
  0
LINE
  5
16D
330
1F
100
AcDbEntity
  8
0
  6
Continuous
 62
     7
100
AcDbLine
 10
-664.7116945397
 20
423.5450462162
 30
0.0
 11
-664.7116945397
 21
416.5450462162
 31
0.0
  0
LINE
  5
16E
330
1F
100
AcDbEntity
  8
0
  6
Continuous
 62
     7
100
AcDbLine
 10
-664.7116945397
 20
423.5450462162
 30
0.0
 11
-660.266919417
 21
423.5450462162
 31
0.0
  0
LINE
  5
16F
330
1F
100
AcDbEntity
  8
0
  6
Continuous
 62
     7
100
AcDbLine
 10
-666.7116945397
 20
423.5450462162
 30
0.0
 11
-671.1564696625
 21
423.5450462162
 31
0.0
  0
LINE
  5
170
330
1F
100
AcDbEntity
  8
0
  6
Continuous
 62
     7
100
AcDbLine
 10
-671.1564696625
 20
416.5450462162
 30
0.0
 11
-671.1564696625
 21
423.5450462162
 31
0.0
  0
LINE
  5
171
330
1F
100
AcDbEntity
  8
0
  6
Continuous
 62
     7
100
AcDbLine
 10
-660.266919417
 20
423.5450462162
 30
0.0
 11
-660.266919417
 21
416.4902311313
 31
0.0
  0
LINE
  5
172
330
1F
100
AcDbEntity
  8
0
  6
Continuous
 62
     7
100
AcDbLine
 10
-984.745475636
 20
437.4834280228
 30
0.0
 11
-983.0971221802
 21
437.4834280228
 31
0.0
  0
LINE
  5
173
330
1F
100
AcDbEntity
  8
0
  6
Continuous
 62
     7
100
AcDbLine
 10
-984.745475636
 20
430.4834280228
 30
0.0
 11
-983.0971221802
 21
430.4834280228
 31
0.0
  0
LINE
  5
174
330
1F
100
AcDbEntity
  8
0
  6
Continuous
 62
     7
100
AcDbLine
 10
-966.3938290917
 20
437.4834280228
 30
0.0
 11
-964.745475636
 21
437.4834280228
 31
0.0
  0
LINE
  5
175
330
1F
100
AcDbEntity
  8
0
  6
Continuous
 62
     7
100
AcDbLine
 10
-966.3938290917
 20
430.4834280228
 30
0.0
 11
-964.745475636
 21
430.4834280228
 31
0.0
  0
LINE
  5
176
330
1F
100
AcDbEntity
  8
0
  6
Continuous
 62
     7
100
AcDbLine
 10
-975.745475636
 20
446.8995078059
 30
0.0
 11
-975.745475636
 21
439.8995078059
 31
0.0
  0
LINE
  5
177
330
1F
100
AcDbEntity
  8
0
  6
Continuous
 62
     7
100
AcDbLine
 10
-980.1306404431
 20
439.8995078059
 30
0.0
 11
-980.1902507587
 21
439.8995078059
 31
0.0
  0
LINE
  5
178
330
1F
100
AcDbEntity
  8
0
  6
Continuous
 62
     7
100
AcDbLine
 10
-973.745475636
 20
446.8995078059
 30
0.0
 11
-973.745475636
 21
439.8995078059
 31
0.0
  0
LINE
  5
179
330
1F
100
AcDbEntity
  8
0
  6
Continuous
 62
     7
100
AcDbLine
 10
-973.745475636
 20
446.8995078059
 30
0.0
 11
-969.3007005132
 21
446.8995078059
 31
0.0
  0
LINE
  5
17A
330
1F
100
AcDbEntity
  8
0
  6
Continuous
 62
     7
100
AcDbLine
 10
-975.745475636
 20
446.8995078059
 30
0.0
 11
-980.1902507587
 21
446.8995078059
 31
0.0
  0
LINE
  5
17B
330
1F
100
AcDbEntity
  8
0
  6
Continuous
 62
     7
100
AcDbLine
 10
-980.1902507587
 20
439.8995078059
 30
0.0
 11
-980.1902507587
 21
446.8995078059
 31
0.0
  0
LINE
  5
17C
330
1F
100
AcDbEntity
  8
0
  6
Continuous
 62
     7
100
AcDbLine
 10
-969.3007005132
 20
446.8995078059
 30
0.0
 11
-969.3007005132
 21
439.844692721
 31
0.0
  0
LINE
  5
17D
330
1F
100
AcDbEntity
  8
0
  6
Continuous
 62
     7
100
AcDbLine
 10
-983.9531853726
 20
408.1686882797
 30
0.0
 11
-982.3048319169
 21
408.1686882797
 31
0.0
  0
LINE
  5
17E
330
1F
100
AcDbEntity
  8
0
  6
Continuous
 62
     7
100
AcDbLine
 10
-983.9531853726
 20
401.1686882797
 30
0.0
 11
-982.3048319169
 21
401.1686882797
 31
0.0
  0
LINE
  5
17F
330
1F
100
AcDbEntity
  8
0
  6
Continuous
 62
     7
100
AcDbLine
 10
-965.6015388284
 20
408.1686882797
 30
0.0
 11
-963.9531853726
 21
408.1686882797
 31
0.0
  0
LINE
  5
180
330
1F
100
AcDbEntity
  8
0
  6
Continuous
 62
     7
100
AcDbLine
 10
-965.6015388284
 20
401.1686882797
 30
0.0
 11
-963.9531853726
 21
401.1686882797
 31
0.0
  0
LINE
  5
181
330
1F
100
AcDbEntity
  8
0
  6
Continuous
 62
     7
100
AcDbLine
 10
-974.9531853726
 20
417.5847680628
 30
0.0
 11
-974.9531853726
 21
410.5847680628
 31
0.0
  0
LINE
  5
182
330
1F
100
AcDbEntity
  8
0
  6
Continuous
 62
     7
100
AcDbLine
 10
-979.3383501798
 20
410.5847680628
 30
0.0
 11
-979.3979604954
 21
410.5847680628
 31
0.0
  0
LINE
  5
183
330
1F
100
AcDbEntity
  8
0
  6
Continuous
 62
     7
100
AcDbLine
 10
-972.9531853726
 20
417.5847680628
 30
0.0
 11
-972.9531853726
 21
410.5847680628
 31
0.0
  0
LINE
  5
184
330
1F
100
AcDbEntity
  8
0
  6
Continuous
 62
     7
100
AcDbLine
 10
-972.9531853726
 20
417.5847680628
 30
0.0
 11
-968.5084102499
 21
417.5847680628
 31
0.0
  0
LINE
  5
185
330
1F
100
AcDbEntity
  8
0
  6
Continuous
 62
     7
100
AcDbLine
 10
-974.9531853726
 20
417.5847680628
 30
0.0
 11
-979.3979604954
 21
417.5847680628
 31
0.0
  0
LINE
  5
186
330
1F
100
AcDbEntity
  8
0
  6
Continuous
 62
     7
100
AcDbLine
 10
-979.3979604954
 20
410.5847680628
 30
0.0
 11
-979.3979604954
 21
417.5847680628
 31
0.0
  0
LINE
  5
187
330
1F
100
AcDbEntity
  8
0
  6
Continuous
 62
     7
100
AcDbLine
 10
-968.5084102499
 20
417.5847680628
 30
0.0
 11
-968.5084102499
 21
410.529952978
 31
0.0
  0
LINE
  5
188
330
1F
100
AcDbEntity
  8
0
  6
Continuous
 62
     7
100
AcDbLine
 10
-678.638318151
 20
457.0766681248
 30
0.0
 11
-676.9899646953
 21
457.0766681248
 31
0.0
  0
LINE
  5
189
330
1F
100
AcDbEntity
  8
0
  6
Continuous
 62
     7
100
AcDbLine
 10
-678.638318151
 20
450.0766681248
 30
0.0
 11
-676.9899646953
 21
450.0766681248
 31
0.0
  0
LINE
  5
18A
330
1F
100
AcDbEntity
  8
0
  6
Continuous
 62
     7
100
AcDbLine
 10
-660.2866716068
 20
457.0766681248
 30
0.0
 11
-658.638318151
 21
457.0766681248
 31
0.0
  0
LINE
  5
18B
330
1F
100
AcDbEntity
  8
0
  6
Continuous
 62
     7
100
AcDbLine
 10
-660.2866716068
 20
450.0766681248
 30
0.0
 11
-658.638318151
 21
450.0766681248
 31
0.0
  0
LINE
  5
18C
330
1F
100
AcDbEntity
  8
0
  6
Continuous
 62
     7
100
AcDbLine
 10
-669.638318151
 20
466.4927479079
 30
0.0
 11
-669.638318151
 21
459.4927479079
 31
0.0
  0
LINE
  5
18D
330
1F
100
AcDbEntity
  8
0
  6
Continuous
 62
     7
100
AcDbLine
 10
-674.0234829582
 20
459.4927479079
 30
0.0
 11
-674.0830932738
 21
459.4927479079
 31
0.0
  0
LINE
  5
18E
330
1F
100
AcDbEntity
  8
0
  6
Continuous
 62
     7
100
AcDbLine
 10
-667.638318151
 20
466.4927479079
 30
0.0
 11
-667.638318151
 21
459.4927479079
 31
0.0
  0
LINE
  5
18F
330
1F
100
AcDbEntity
  8
0
  6
Continuous
 62
     7
100
AcDbLine
 10
-667.638318151
 20
466.4927479079
 30
0.0
 11
-663.1935430283
 21
466.4927479079
 31
0.0
  0
LINE
  5
190
330
1F
100
AcDbEntity
  8
0
  6
Continuous
 62
     7
100
AcDbLine
 10
-669.638318151
 20
466.4927479079
 30
0.0
 11
-674.0830932738
 21
466.4927479079
 31
0.0
  0
LINE
  5
191
330
1F
100
AcDbEntity
  8
0
  6
Continuous
 62
     7
100
AcDbLine
 10
-674.0830932738
 20
459.4927479079
 30
0.0
 11
-674.0830932738
 21
466.4927479079
 31
0.0
  0
LINE
  5
192
330
1F
100
AcDbEntity
  8
0
  6
Continuous
 62
     7
100
AcDbLine
 10
-663.1935430283
 20
466.4927479079
 30
0.0
 11
-663.1935430283
 21
459.4379328231
 31
0.0
  0
LINE
  5
193
330
1F
100
AcDbEntity
  8
0
  6
Continuous
 62
     7
100
AcDbLine
 10
-704.3440360027
 20
429.3216374134
 30
0.0
 11
-702.6956825469
 21
429.3216374134
 31
0.0
  0
LINE
  5
194
330
1F
100
AcDbEntity
  8
0
  6
Continuous
 62
     7
100
AcDbLine
 10
-704.3440360027
 20
422.3216374134
 30
0.0
 11
-702.6956825469
 21
422.3216374134
 31
0.0
  0
LINE
  5
195
330
1F
100
AcDbEntity
  8
0
  6
Continuous
 62
     7
100
AcDbLine
 10
-685.9923894584
 20
429.3216374134
 30
0.0
 11
-684.3440360027
 21
429.3216374134
 31
0.0
  0
LINE
  5
196
330
1F
100
AcDbEntity
  8
0
  6
Continuous
 62
     7
100
AcDbLine
 10
-685.9923894584
 20
422.3216374134
 30
0.0
 11
-684.3440360027
 21
422.3216374134
 31
0.0
  0
LINE
  5
197
330
1F
100
AcDbEntity
  8
0
  6
Continuous
 62
     7
100
AcDbLine
 10
-695.3440360027
 20
438.7377171965
 30
0.0
 11
-695.3440360027
 21
431.7377171965
 31
0.0
  0
LINE
  5
198
330
1F
100
AcDbEntity
  8
0
  6
Continuous
 62
     7
100
AcDbLine
 10
-699.7292008098
 20
431.7377171965
 30
0.0
 11
-699.7888111254
 21
431.7377171965
 31
0.0
  0
LINE
  5
199
330
1F
100
AcDbEntity
  8
0
  6
Continuous
 62
     7
100
AcDbLine
 10
-693.3440360027
 20
438.7377171965
 30
0.0
 11
-693.3440360027
 21
431.7377171965
 31
0.0
  0
LINE
  5
19A
330
1F
100
AcDbEntity
  8
0
  6
Continuous
 62
     7
100
AcDbLine
 10
-693.3440360027
 20
438.7377171965
 30
0.0
 11
-688.89926088
 21
438.7377171965
 31
0.0
  0
LINE
  5
19B
330
1F
100
AcDbEntity
  8
0
  6
Continuous
 62
     7
100
AcDbLine
 10
-695.3440360027
 20
438.7377171965
 30
0.0
 11
-699.7888111254
 21
438.7377171965
 31
0.0
  0
LINE
  5
19C
330
1F
100
AcDbEntity
  8
0
  6
Continuous
 62
     7
100
AcDbLine
 10
-699.7888111254
 20
431.7377171965
 30
0.0
 11
-699.7888111254
 21
438.7377171965
 31
0.0
  0
LINE
  5
19D
330
1F
100
AcDbEntity
  8
0
  6
Continuous
 62
     7
100
AcDbLine
 10
-688.89926088
 20
438.7377171965
 30
0.0
 11
-688.89926088
 21
431.6829021117
 31
0.0
  0
LINE
  5
19E
330
1F
100
AcDbEntity
  8
0
  6
Continuous
 62
     7
100
AcDbLine
 10
-953.2701066805
 20
425.815636418
 30
0.0
 11
-951.6217532248
 21
425.815636418
 31
0.0
  0
LINE
  5
19F
330
1F
100
AcDbEntity
  8
0
  6
Continuous
 62
     7
100
AcDbLine
 10
-953.2701066805
 20
418.815636418
 30
0.0
 11
-951.6217532248
 21
418.815636418
 31
0.0
  0
LINE
  5
1A0
330
1F
100
AcDbEntity
  8
0
  6
Continuous
 62
     7
100
AcDbLine
 10
-934.9184601363
 20
425.815636418
 30
0.0
 11
-933.2701066805
 21
425.815636418
 31
0.0
  0
LINE
  5
1A1
330
1F
100
AcDbEntity
  8
0
  6
Continuous
 62
     7
100
AcDbLine
 10
-934.9184601363
 20
418.815636418
 30
0.0
 11
-933.2701066805
 21
418.815636418
 31
0.0
  0
LINE
  5
1A2
330
1F
100
AcDbEntity
  8
0
  6
Continuous
 62
     7
100
AcDbLine
 10
-944.2701066805
 20
435.2317162011
 30
0.0
 11
-944.2701066805
 21
428.2317162011
 31
0.0
  0
LINE
  5
1A3
330
1F
100
AcDbEntity
  8
0
  6
Continuous
 62
     7
100
AcDbLine
 10
-948.6552714877
 20
428.2317162011
 30
0.0
 11
-948.7148818033
 21
428.2317162011
 31
0.0
  0
LINE
  5
1A4
330
1F
100
AcDbEntity
  8
0
  6
Continuous
 62
     7
100
AcDbLine
 10
-942.2701066805
 20
435.2317162011
 30
0.0
 11
-942.2701066805
 21
428.2317162011
 31
0.0
  0
LINE
  5
1A5
330
1F
100
AcDbEntity
  8
0
  6
Continuous
 62
     7
100
AcDbLine
 10
-942.2701066805
 20
435.2317162011
 30
0.0
 11
-937.8253315578
 21
435.2317162011
 31
0.0
  0
LINE
  5
1A6
330
1F
100
AcDbEntity
  8
0
  6
Continuous
 62
     7
100
AcDbLine
 10
-944.2701066805
 20
435.2317162011
 30
0.0
 11
-948.7148818033
 21
435.2317162011
 31
0.0
  0
LINE
  5
1A7
330
1F
100
AcDbEntity
  8
0
  6
Continuous
 62
     7
100
AcDbLine
 10
-948.7148818033
 20
428.2317162011
 30
0.0
 11
-948.7148818033
 21
435.2317162011
 31
0.0
  0
LINE
  5
1A8
330
1F
100
AcDbEntity
  8
0
  6
Continuous
 62
     7
100
AcDbLine
 10
-937.8253315578
 20
435.2317162011
 30
0.0
 11
-937.8253315578
 21
428.1769011162
 31
0.0
  0
LINE
  5
1A9
330
1F
100
AcDbEntity
  8
0
  6
Continuous
 62
     7
100
AcDbLine
 10
-838.1564073295
 20
439.2553069006
 30
0.0
 11
-836.5080538738
 21
439.2553069006
 31
0.0
  0
LINE
  5
1AA
330
1F
100
AcDbEntity
  8
0
  6
Continuous
 62
     7
100
AcDbLine
 10
-838.1564073295
 20
432.2553069006
 30
0.0
 11
-836.5080538738
 21
432.2553069006
 31
0.0
  0
LINE
  5
1AB
330
1F
100
AcDbEntity
  8
0
  6
Continuous
 62
     7
100
AcDbLine
 10
-819.8047607853
 20
439.2553069006
 30
0.0
 11
-818.1564073295
 21
439.2553069006
 31
0.0
  0
LINE
  5
1AC
330
1F
100
AcDbEntity
  8
0
  6
Continuous
 62
     7
100
AcDbLine
 10
-819.8047607853
 20
432.2553069006
 30
0.0
 11
-818.1564073295
 21
432.2553069006
 31
0.0
  0
LINE
  5
1AD
330
1F
100
AcDbEntity
  8
0
  6
Continuous
 62
     7
100
AcDbLine
 10
-829.1564073295
 20
448.6713866837
 30
0.0
 11
-829.1564073295
 21
441.6713866837
 31
0.0
  0
LINE
  5
1AE
330
1F
100
AcDbEntity
  8
0
  6
Continuous
 62
     7
100
AcDbLine
 10
-833.5415721366
 20
441.6713866837
 30
0.0
 11
-833.6011824522
 21
441.6713866837
 31
0.0
  0
LINE
  5
1AF
330
1F
100
AcDbEntity
  8
0
  6
Continuous
 62
     7
100
AcDbLine
 10
-827.1564073295
 20
448.6713866837
 30
0.0
 11
-827.1564073295
 21
441.6713866837
 31
0.0
  0
LINE
  5
1B0
330
1F
100
AcDbEntity
  8
0
  6
Continuous
 62
     7
100
AcDbLine
 10
-827.1564073295
 20
448.6713866837
 30
0.0
 11
-822.7116322068
 21
448.6713866837
 31
0.0
  0
LINE
  5
1B1
330
1F
100
AcDbEntity
  8
0
  6
Continuous
 62
     7
100
AcDbLine
 10
-829.1564073295
 20
448.6713866837
 30
0.0
 11
-833.6011824522
 21
448.6713866837
 31
0.0
  0
LINE
  5
1B2
330
1F
100
AcDbEntity
  8
0
  6
Continuous
 62
     7
100
AcDbLine
 10
-833.6011824522
 20
441.6713866837
 30
0.0
 11
-833.6011824522
 21
448.6713866837
 31
0.0
  0
LINE
  5
1B3
330
1F
100
AcDbEntity
  8
0
  6
Continuous
 62
     7
100
AcDbLine
 10
-822.7116322068
 20
448.6713866837
 30
0.0
 11
-822.7116322068
 21
441.6165715988
 31
0.0
  0
LINE
  5
1B4
330
1F
100
AcDbEntity
  8
0
  6
Continuous
 62
     7
100
AcDbLine
 10
-987.9146366893
 20
470.3634739508
 30
0.0
 11
-986.2662832335
 21
470.3634739508
 31
0.0
  0
LINE
  5
1B5
330
1F
100
AcDbEntity
  8
0
  6
Continuous
 62
     7
100
AcDbLine
 10
-987.9146366893
 20
463.3634739508
 30
0.0
 11
-986.2662832335
 21
463.3634739508
 31
0.0
  0
LINE
  5
1B6
330
1F
100
AcDbEntity
  8
0
  6
Continuous
 62
     7
100
AcDbLine
 10
-969.562990145
 20
470.3634739508
 30
0.0
 11
-967.9146366893
 21
470.3634739508
 31
0.0
  0
LINE
  5
1B7
330
1F
100
AcDbEntity
  8
0
  6
Continuous
 62
     7
100
AcDbLine
 10
-969.562990145
 20
463.3634739508
 30
0.0
 11
-967.9146366893
 21
463.3634739508
 31
0.0
  0
LINE
  5
1B8
330
1F
100
AcDbEntity
  8
0
  6
Continuous
 62
     7
100
AcDbLine
 10
-978.9146366893
 20
479.7795537339
 30
0.0
 11
-978.9146366893
 21
472.7795537339
 31
0.0
  0
LINE
  5
1B9
330
1F
100
AcDbEntity
  8
0
  6
Continuous
 62
     7
100
AcDbLine
 10
-983.2998014964
 20
472.7795537339
 30
0.0
 11
-983.359411812
 21
472.7795537339
 31
0.0
  0
LINE
  5
1BA
330
1F
100
AcDbEntity
  8
0
  6
Continuous
 62
     7
100
AcDbLine
 10
-976.9146366893
 20
479.7795537339
 30
0.0
 11
-976.9146366893
 21
472.7795537339
 31
0.0
  0
LINE
  5
1BB
330
1F
100
AcDbEntity
  8
0
  6
Continuous
 62
     7
100
AcDbLine
 10
-976.9146366893
 20
479.7795537339
 30
0.0
 11
-972.4698615665
 21
479.7795537339
 31
0.0
  0
LINE
  5
1BC
330
1F
100
AcDbEntity
  8
0
  6
Continuous
 62
     7
100
AcDbLine
 10
-978.9146366893
 20
479.7795537339
 30
0.0
 11
-983.359411812
 21
479.7795537339
 31
0.0
  0
LINE
  5
1BD
330
1F
100
AcDbEntity
  8
0
  6
Continuous
 62
     7
100
AcDbLine
 10
-983.359411812
 20
472.7795537339
 30
0.0
 11
-983.359411812
 21
479.7795537339
 31
0.0
  0
LINE
  5
1BE
330
1F
100
AcDbEntity
  8
0
  6
Continuous
 62
     7
100
AcDbLine
 10
-972.4698615665
 20
479.7795537339
 30
0.0
 11
-972.4698615665
 21
472.7247386491
 31
0.0
  0
LINE
  5
1BF
330
1F
100
AcDbEntity
  8
0
  6
Continuous
 62
     7
100
AcDbLine
 10
-696.4527834376
 20
533.6779528149
 30
0.0
 11
-196.4527834376
 21
533.6779528149
 31
0.0
  0
LINE
  5
1C0
330
1F
100
AcDbEntity
  8
0
  6
Continuous
 62
     7
100
AcDbLine
 10
-696.4527834376
 20
533.6779528149
 30
0.0
 11
-696.4527834376
 21
483.6779528149
 31
0.0
  0
LINE
  5
1C1
330
1F
100
AcDbEntity
  8
0
  6
Continuous
 62
     7
100
AcDbLine
 10
-696.4527834376
 20
483.6779528149
 30
0.0
 11
-196.4527834376
 21
483.6779528149
 31
0.0
  0
LINE
  5
1C2
330
1F
100
AcDbEntity
  8
0
  6
Continuous
 62
     7
100
AcDbLine
 10
-196.4527834376
 20
533.6779528149
 30
0.0
 11
-196.4527834376
 21
483.6779528149
 31
0.0
  0
LINE
  5
1C3
330
1F
100
AcDbEntity
  8
0
  6
Continuous
 62
     7
100
AcDbLine
 10
-696.4527834376
 20
594.0596514354
 30
0.0
 11
-196.4527834376
 21
594.0596514354
 31
0.0
  0
LINE
  5
1C4
330
1F
100
AcDbEntity
  8
0
  6
Continuous
 62
     7
100
AcDbLine
 10
-696.4527834376
 20
594.0596514354
 30
0.0
 11
-696.4527834376
 21
544.0596514354
 31
0.0
  0
LINE
  5
1C5
330
1F
100
AcDbEntity
  8
0
  6
Continuous
 62
     7
100
AcDbLine
 10
-696.4527834376
 20
544.0596514354
 30
0.0
 11
-196.4527834376
 21
544.0596514354
 31
0.0
  0
LINE
  5
1C6
330
1F
100
AcDbEntity
  8
0
  6
Continuous
 62
     7
100
AcDbLine
 10
-196.4527834376
 20
594.0596514354
 30
0.0
 11
-196.4527834376
 21
544.0596514354
 31
0.0
  0
POINT
  5
1C7
330
1F
100
AcDbEntity
  8
0
  6
Continuous
 62
     7
100
AcDbPoint
 10
-807.5064669253
 20
482.8973265887
 30
0.0
  0
POINT
  5
1C8
330
1F
100
AcDbEntity
  8
0
  6
Continuous
 62
     7
100
AcDbPoint
 10
-874.4126778537
 20
557.7112023289
 30
0.0
  0
POINT
  5
1C9
330
1F
100
AcDbEntity
  8
0
  6
Continuous
 62
     7
100
AcDbPoint
 10
-742.2678524842
 20
422.95717268
 30
0.0
  0
POINT
  5
1CA
330
1F
100
AcDbEntity
  8
0
  6
Continuous
 62
     7
100
AcDbPoint
 10
-941.3933025882
 20
487.8256763677
 30
0.0
  0
POINT
  5
1CB
330
1F
100
AcDbEntity
  8
0
  6
Continuous
 62
     7
100
AcDbPoint
 10
-1012.3962966986
 20
558.7827248755
 30
0.0
  0
POINT
  5
1CC
330
1F
100
AcDbEntity
  8
0
  6
Continuous
 62
     7
100
AcDbPoint
 10
-872.8929164669
 20
431.6741520302
 30
0.0
  0
POINT
  5
1CD
330
1F
100
AcDbEntity
  8
0
  6
Continuous
 62
     7
100
AcDbPoint
 10
-1195.4527834376
 20
419.287019816
 30
0.0
  0
POINT
  5
1CE
330
1F
100
AcDbEntity
  8
0
  6
Continuous
 62
     7
100
AcDbPoint
 10
-1195.4527834376
 20
480.5658584097
 30
0.0
  0
POINT
  5
1CF
330
1F
100
AcDbEntity
  8
0
  6
Continuous
 62
     7
100
AcDbPoint
 10
-388.4527834376
 20
426.0596514354
 30
0.0
  0
POINT
  5
1D0
330
1F
100
AcDbEntity
  8
0
  6
Continuous
 62
     7
100
AcDbPoint
 10
-1228.4527834376
 20
555.287019816
 30
0.0
  0
POINT
  5
1D1
330
1F
100
AcDbEntity
  8
0
  6
Continuous
 62
     7
100
AcDbPoint
 10
-1228.4527834376
 20
555.287019816
 30
0.0
  0
POINT
  5
1D2
330
1F
100
AcDbEntity
  8
0
  6
Continuous
 62
     7
100
AcDbPoint
 10
-665.7116945397
 20
410.6289664331
 30
0.0
  0
POINT
  5
1D3
330
1F
100
AcDbEntity
  8
0
  6
Continuous
 62
     7
100
AcDbPoint
 10
-974.745475636
 20
433.9834280228
 30
0.0
  0
POINT
  5
1D4
330
1F
100
AcDbEntity
  8
0
  6
Continuous
 62
     7
100
AcDbPoint
 10
-973.9531853726
 20
404.6686882797
 30
0.0
  0
POINT
  5
1D5
330
1F
100
AcDbEntity
  8
0
  6
Continuous
 62
     7
100
AcDbPoint
 10
-668.638318151
 20
453.5766681248
 30
0.0
  0
POINT
  5
1D6
330
1F
100
AcDbEntity
  8
0
  6
Continuous
 62
     7
100
AcDbPoint
 10
-694.3440360027
 20
425.8216374134
 30
0.0
  0
POINT
  5
1D7
330
1F
100
AcDbEntity
  8
0
  6
Continuous
 62
     7
100
AcDbPoint
 10
-943.2701066805
 20
422.315636418
 30
0.0
  0
POINT
  5
1D8
330
1F
100
AcDbEntity
  8
0
  6
Continuous
 62
     7
100
AcDbPoint
 10
-828.1564073295
 20
435.7553069006
 30
0.0
  0
POINT
  5
1D9
330
1F
100
AcDbEntity
  8
0
  6
Continuous
 62
     7
100
AcDbPoint
 10
-977.9146366893
 20
466.8634739508
 30
0.0
  0
ENDSEC
  0
SECTION
  2
OBJECTS
  0
DICTIONARY
  5
C
330
0
100
AcDbDictionary
281
     1
  3
ACAD_GROUP
350
D
  3
ACAD_LAYOUT
350
1A
  3
ACAD_MLINESTYLE
350
17
  3
ACAD_PLOTSETTINGS
350
19
  3
ACAD_PLOTSTYLENAME
350
E
  3
ACAD_SCALELIST
350
47
  0
DICTIONARY
  5
D
102
{ACAD_REACTORS
330
C
102
}
330
C
100
AcDbDictionary
281
     1
  0
DICTIONARY
  5
1A
102
{ACAD_REACTORS
330
C
102
}
330
C
100
AcDbDictionary
281
     1
  3
Layout1
350
1E
  3
Layout2
350
26
  3
Model
350
22
  0
DICTIONARY
  5
17
102
{ACAD_REACTORS
330
C
102
}
330
C
100
AcDbDictionary
281
     1
  3
Standard
350
18
  0
DICTIONARY
  5
19
102
{ACAD_REACTORS
330
C
102
}
330
C
100
AcDbDictionary
281
     1
  0
ACDBDICTIONARYWDFLT
  5
E
102
{ACAD_REACTORS
330
C
102
}
330
C
100
AcDbDictionary
281
     1
  3
Normal
350
F
100
AcDbDictionaryWithDefault
340
F
  0
DICTIONARY
  5
47
102
{ACAD_REACTORS
330
C
102
}
330
C
100
AcDbDictionary
281
     1
  3
A0
350
48
  3
A1
350
49
  3
A2
350
4A
  3
A3
350
4B
  3
A4
350
4C
  3
A5
350
4D
  3
A6
350
4E
  3
A7
350
4F
  3
A8
350
50
  3
A9
350
51
  3
B0
350
52
  3
B1
350
53
  3
B2
350
54
  3
B3
350
55
  3
B4
350
56
  3
B5
350
57
  3
B6
350
58
  3
B7
350
59
  3
B8
350
5A
  3
B9
350
5B
  3
C0
350
5C
  3
C1
350
5D
  3
C2
350
5E
  3
C3
350
5F
  3
C4
350
60
  3
C5
350
61
  3
C6
350
62
  3
C7
350
63
  3
C8
350
64
  3
C9
350
65
  3
D0
350
66
  3
D1
350
67
  3
D2
350
68
  0
LAYOUT
  5
1E
102
{ACAD_REACTORS
330
1A
102
}
330
1A
100
AcDbPlotSettings
  1

  2
none_device
  4

  6

 40
0.0
 41
0.0
 42
0.0
 43
0.0
 44
0.0
 45
0.0
 46
0.0
 47
0.0
 48
0.0
 49
0.0
140
0.0
141
0.0
142
1.0
143
1.0
 70
   688
 72
     1
 73
     0
 74
     5
  7

 75
    16
147
1.0
148
0.0
149
0.0
100
AcDbLayout
  1
Layout1
 70
     1
 71
     1
 10
0.0
 20
0.0
 11
420.0
 21
297.0
 12
0.0
 22
0.0
 32
0.0
 14
1.0000000000E+20
 24
1.0000000000E+20
 34
1.0000000000E+20
 15
-1.0000000000E+20
 25
-1.0000000000E+20
 35
-1.0000000000E+20
146
0.0
 13
0.0
 23
0.0
 33
0.0
 16
1.0
 26
0.0
 36
0.0
 17
0.0
 27
1.0
 37
0.0
 76
     0
330
1B
  0
LAYOUT
  5
26
102
{ACAD_REACTORS
330
1A
102
}
330
1A
100
AcDbPlotSettings
  1

  2
none_device
  4

  6

 40
0.0
 41
0.0
 42
0.0
 43
0.0
 44
0.0
 45
0.0
 46
0.0
 47
0.0
 48
0.0
 49
0.0
140
0.0
141
0.0
142
1.0
143
1.0
 70
   688
 72
     1
 73
     0
 74
     5
  7

 75
    16
147
1.0
148
0.0
149
0.0
100
AcDbLayout
  1
Layout2
 70
     1
 71
     2
 10
0.0
 20
0.0
 11
0.0
 21
0.0
 12
0.0
 22
0.0
 32
0.0
 14
0.0
 24
0.0
 34
0.0
 15
0.0
 25
0.0
 35
0.0
146
0.0
 13
0.0
 23
0.0
 33
0.0
 16
1.0
 26
0.0
 36
0.0
 17
0.0
 27
1.0
 37
0.0
 76
     0
330
23
  0
LAYOUT
  5
22
102
{ACAD_REACTORS
330
1A
102
}
330
1A
100
AcDbPlotSettings
  1

  2
none_device
  4
ANSI_A_(11.00_x_8.50_Inches)
  6

 40
6.35
 41
19.05
 42
6.35000508
 43
19.05000254
 44
279.4
 45
215.9
 46
316.9363463063
 47
-25.0094259984
 48
0.0
 49
0.0
140
0.0
141
0.0
142
0.009075
143
1.0
 70
  1696
 72
     0
 73
     0
 74
     0
  7

 75
     0
147
0.0179189148
148
-1300.4909072572
149
0.0
100
AcDbLayout
  1
Model
 70
     1
 71
     0
 10
0.0
 20
0.0
 11
420.0
 21
297.0
 12
0.0
 22
0.0
 32
0.0
 14
-1396.4527834376
 24
394.0596514354
 34
0.0
 15
-196.4527834376
 25
594.287019816
 35
0.0
146
0.0
 13
0.0
 23
0.0
 33
0.0
 16
1.0
 26
0.0
 36
0.0
 17
0.0
 27
1.0
 37
0.0
 76
     0
330
1F
331
29
  0
MLINESTYLE
  5
18
102
{ACAD_REACTORS
330
17
102
}
330
17
100
AcDbMlineStyle
  2
Standard
 70
     0
  3

 62
   256
 51
90.0
 52
90.0
 71
     2
 49
0.5
 62
   256
  6
BYLAYER
 49
-0.5
 62
   256
  6
BYLAYER
  0
ACDBPLACEHOLDER
  5
F
102
{ACAD_REACTORS
330
E
102
}
330
E
  0
SCALE
  5
48
102
{ACAD_REACTORS
330
47
102
}
330
47
100
AcDbScale
 70
     0
300
1:1
140
1.0
141
1.0
290
     1
  0
SCALE
  5
49
102
{ACAD_REACTORS
330
47
102
}
330
47
100
AcDbScale
 70
     0
300
1:2
140
1.0
141
2.0
290
     0
  0
SCALE
  5
4A
102
{ACAD_REACTORS
330
47
102
}
330
47
100
AcDbScale
 70
     0
300
1:4
140
1.0
141
4.0
290
     0
  0
SCALE
  5
4B
102
{ACAD_REACTORS
330
47
102
}
330
47
100
AcDbScale
 70
     0
300
1:5
140
1.0
141
5.0
290
     0
  0
SCALE
  5
4C
102
{ACAD_REACTORS
330
47
102
}
330
47
100
AcDbScale
 70
     0
300
1:8
140
1.0
141
8.0
290
     0
  0
SCALE
  5
4D
102
{ACAD_REACTORS
330
47
102
}
330
47
100
AcDbScale
 70
     0
300
1:10
140
1.0
141
10.0
290
     0
  0
SCALE
  5
4E
102
{ACAD_REACTORS
330
47
102
}
330
47
100
AcDbScale
 70
     0
300
1:16
140
1.0
141
16.0
290
     0
  0
SCALE
  5
4F
102
{ACAD_REACTORS
330
47
102
}
330
47
100
AcDbScale
 70
     0
300
1:20
140
1.0
141
20.0
290
     0
  0
SCALE
  5
50
102
{ACAD_REACTORS
330
47
102
}
330
47
100
AcDbScale
 70
     0
300
1:30
140
1.0
141
30.0
290
     0
  0
SCALE
  5
51
102
{ACAD_REACTORS
330
47
102
}
330
47
100
AcDbScale
 70
     0
300
1:40
140
1.0
141
40.0
290
     0
  0
SCALE
  5
52
102
{ACAD_REACTORS
330
47
102
}
330
47
100
AcDbScale
 70
     0
300
1:50
140
1.0
141
50.0
290
     0
  0
SCALE
  5
53
102
{ACAD_REACTORS
330
47
102
}
330
47
100
AcDbScale
 70
     0
300
1:100
140
1.0
141
100.0
290
     0
  0
SCALE
  5
54
102
{ACAD_REACTORS
330
47
102
}
330
47
100
AcDbScale
 70
     0
300
2:1
140
2.0
141
1.0
290
     0
  0
SCALE
  5
55
102
{ACAD_REACTORS
330
47
102
}
330
47
100
AcDbScale
 70
     0
300
4:1
140
4.0
141
1.0
290
     0
  0
SCALE
  5
56
102
{ACAD_REACTORS
330
47
102
}
330
47
100
AcDbScale
 70
     0
300
8:1
140
8.0
141
1.0
290
     0
  0
SCALE
  5
57
102
{ACAD_REACTORS
330
47
102
}
330
47
100
AcDbScale
 70
     0
300
10:1
140
10.0
141
1.0
290
     0
  0
SCALE
  5
58
102
{ACAD_REACTORS
330
47
102
}
330
47
100
AcDbScale
 70
     0
300
100:1
140
100.0
141
1.0
290
     0
  0
SCALE
  5
59
102
{ACAD_REACTORS
330
47
102
}
330
47
100
AcDbScale
 70
     0
300
1/128" = 1'-0"
140
0.0078125
141
12.0
290
     0
  0
SCALE
  5
5A
102
{ACAD_REACTORS
330
47
102
}
330
47
100
AcDbScale
 70
     0
300
1/64" = 1'-0"
140
0.015625
141
12.0
290
     0
  0
SCALE
  5
5B
102
{ACAD_REACTORS
330
47
102
}
330
47
100
AcDbScale
 70
     0
300
1/32" = 1'-0"
140
0.03125
141
12.0
290
     0
  0
SCALE
  5
5C
102
{ACAD_REACTORS
330
47
102
}
330
47
100
AcDbScale
 70
     0
300
1/16" = 1'-0"
140
0.0625
141
12.0
290
     0
  0
SCALE
  5
5D
102
{ACAD_REACTORS
330
47
102
}
330
47
100
AcDbScale
 70
     0
300
3/32" = 1'-0"
140
0.09375
141
12.0
290
     0
  0
SCALE
  5
5E
102
{ACAD_REACTORS
330
47
102
}
330
47
100
AcDbScale
 70
     0
300
1/8" = 1'-0"
140
0.125
141
12.0
290
     0
  0
SCALE
  5
5F
102
{ACAD_REACTORS
330
47
102
}
330
47
100
AcDbScale
 70
     0
300
3/16" = 1'-0"
140
0.1875
141
12.0
290
     0
  0
SCALE
  5
60
102
{ACAD_REACTORS
330
47
102
}
330
47
100
AcDbScale
 70
     0
300
1/4" = 1'-0"
140
0.25
141
12.0
290
     0
  0
SCALE
  5
61
102
{ACAD_REACTORS
330
47
102
}
330
47
100
AcDbScale
 70
     0
300
3/8" = 1'-0"
140
0.375
141
12.0
290
     0
  0
SCALE
  5
62
102
{ACAD_REACTORS
330
47
102
}
330
47
100
AcDbScale
 70
     0
300
1/2" = 1'-0"
140
0.5
141
12.0
290
     0
  0
SCALE
  5
63
102
{ACAD_REACTORS
330
47
102
}
330
47
100
AcDbScale
 70
     0
300
3/4" = 1'-0"
140
0.75
141
12.0
290
     0
  0
SCALE
  5
64
102
{ACAD_REACTORS
330
47
102
}
330
47
100
AcDbScale
 70
     0
300
1" = 1'-0"
140
1.0
141
12.0
290
     0
  0
SCALE
  5
65
102
{ACAD_REACTORS
330
47
102
}
330
47
100
AcDbScale
 70
     0
300
1-1/2" = 1'-0"
140
1.5
141
12.0
290
     0
  0
SCALE
  5
66
102
{ACAD_REACTORS
330
47
102
}
330
47
100
AcDbScale
 70
     0
300
3" = 1'-0"
140
3.0
141
12.0
290
     0
  0
SCALE
  5
67
102
{ACAD_REACTORS
330
47
102
}
330
47
100
AcDbScale
 70
     0
300
6" = 1'-0"
140
6.0
141
12.0
290
     0
  0
SCALE
  5
68
102
{ACAD_REACTORS
330
47
102
}
330
47
100
AcDbScale
 70
     0
300
1'-0" = 1'-0"
140
12.0
141
12.0
290
     0
  0
ENDSEC
  0
EOF
